<?xml version="1.0" encoding="utf-8"?>
<!-- Generator: Adobe Illustrator 27.0.0, SVG Export Plug-In . SVG Version: 6.00 Build 0)  -->
<svg version="1.1" id="Para_desarrollo" xmlns="http://www.w3.org/2000/svg" xmlns:xlink="http://www.w3.org/1999/xlink" x="0px"
	 y="0px" viewBox="0 0 40.6 40.6" style="enable-background:new 0 0 40.6 40.6;" xml:space="preserve">
<style type="text/css">
	.st0{fill:#EBECEE;}
</style>
<g>
	<path class="st0" d="M20.3,40.6C9.1,40.6,0,31.5,0,20.3S9.1,0,20.3,0c11.2,0,20.3,9.1,20.3,20.4C40.6,31.5,31.5,40.6,20.3,40.6z
		 M31.9,15.4c-0.1-3.7-2.2-6.3-5.9-6.5c-3.8-0.3-7.6-0.3-11.4,0c-3.5,0.2-5.5,2.3-5.8,5.8c-0.3,3.8-0.3,7.6,0,11.4
		c0.2,3.5,2.3,5.5,5.8,5.8c3.8,0.3,7.6,0.3,11.4,0c3.5-0.2,5.4-2.4,5.8-5.8C32,24.1,31.9,17,31.9,15.4L31.9,15.4z"/>
	<path class="st0" d="M29.6,26.1c-0.2,2.1-1.5,3.4-3.6,3.6c-1.9,0.2-3.7,0.2-5.6,0.2c-2,0-3.9,0-5.9-0.2c-2.1-0.2-3.4-1.5-3.6-3.6
		c-0.2-2.1-0.2-4.2-0.2-6.2c0-1.7,0-3.5,0.2-5.2c0.2-2.1,1.5-3.4,3.6-3.6c1.9-0.2,3.7-0.2,5.6-0.2c2,0,3.9,0,5.9,0.2
		c2.1,0.2,3.3,1.5,3.7,3.6c0,0.3,0.1,0.5,0.1,0.8C29.8,17,29.8,24.1,29.6,26.1L29.6,26.1z M20.3,26.3c3.3,0,6-2.8,6-6.1
		c0-3.3-2.7-5.9-6-5.9c-3.3,0-6,2.7-6,6C14.3,23.6,17.1,26.3,20.3,26.3z M27.9,14.1c0-0.8-0.7-1.4-1.4-1.4c-0.8,0-1.4,0.7-1.4,1.4
		c0,0.7,0.6,1.3,1.4,1.3C27.3,15.5,27.9,14.8,27.9,14.1L27.9,14.1z"/>
	<path class="st0" d="M24.2,20.3c0,2.1-1.7,3.9-3.9,3.9c-2.1,0-3.9-1.7-3.9-3.9c0-2.1,1.7-3.9,3.9-3.9
		C22.4,16.4,24.1,18.1,24.2,20.3z"/>
</g>
</svg>
