<?xml version="1.0" encoding="utf-8"?>
<!-- Generator: Adobe Illustrator 27.0.0, SVG Export Plug-In . SVG Version: 6.00 Build 0)  -->
<svg version="1.1" id="Para_desarrollo" xmlns="http://www.w3.org/2000/svg" xmlns:xlink="http://www.w3.org/1999/xlink" x="0px"
	 y="0px" viewBox="0 0 54.8 54.8" style="enable-background:new 0 0 54.8 54.8;" xml:space="preserve">
<style type="text/css">
	.st0{fill:#FFFFFF;}
</style>
<path class="st0" d="M27,0C11.9,0.2-0.2,12.7,0,27.8c0.2,15.2,12.7,27.2,27.9,27C42.9,54.6,55,42.1,54.8,27C54.6,11.9,42.2-0.2,27,0
	z M44.1,35.8c-0.6,0.3-1.4,0.2-2-0.4c-1.9-1.9-3.8-3.8-5.7-5.6c-2.8-2.8-5.6-5.6-8.5-8.5c-0.1-0.1-0.2-0.2-0.5-0.4
	c-0.1,0.2-0.2,0.4-0.4,0.5c-4.7,4.7-9.3,9.3-14,14c-0.6,0.6-1.3,0.8-1.9,0.5c-1.1-0.5-1.3-1.8-0.5-2.6c0.6-0.6,1.2-1.2,1.8-1.8
	c4.6-4.6,9.1-9.1,13.7-13.7c1-1,1.8-1,2.8,0c5.1,5.1,10.2,10.2,15.4,15.4C45.3,34,45.2,35.2,44.1,35.8z"/>
</svg>
