<?xml version="1.0" encoding="utf-8"?>
<!-- Generator: Adobe Illustrator 27.0.0, SVG Export Plug-In . SVG Version: 6.00 Build 0)  -->
<svg version="1.1" id="Para_desarrollo" xmlns="http://www.w3.org/2000/svg" xmlns:xlink="http://www.w3.org/1999/xlink" x="0px"
	 y="0px" viewBox="0 0 40.6 40.6" style="enable-background:new 0 0 40.6 40.6;" xml:space="preserve">
<style type="text/css">
	.st0{fill:#EBECEE;}
</style>
<path class="st0" d="M20.3,40.6C9.1,40.6,0,31.5,0,20.2C0,9.1,9.1,0,20.4,0c11.2,0,20.3,9.1,20.2,20.4
	C40.6,31.5,31.5,40.6,20.3,40.6L20.3,40.6z M20.8,8.7c0,0.4,0,0.8,0,1.1c0,5,0,10,0,15.1c0,1.8-1.5,3.2-3.3,3.2
	c-1.8,0.1-3.3-1.2-3.6-3c-0.2-1.7,0.9-3.4,2.7-3.8c0.6-0.1,1.1-0.1,1.8-0.1v-3.6c-4.6-1-9.1,3.5-8.2,8.2c0.7,3.8,4.1,6.3,7.9,6
	c3.7-0.3,6.5-3.4,6.5-7.2c0-2.5,0-5,0-7.5c0-0.2,0-0.4,0-0.7c3.4,1.7,4.4,2,5.8,1.8v-3.6c-3.5-0.4-5.5-2.4-5.9-5.8L20.8,8.7
	L20.8,8.7z"/>
</svg>
