<?xml version="1.0" encoding="utf-8"?>
<!-- Generator: Adobe Illustrator 27.0.0, SVG Export Plug-In . SVG Version: 6.00 Build 0)  -->
<svg version="1.1" id="Para_desarrollo" xmlns="http://www.w3.org/2000/svg" xmlns:xlink="http://www.w3.org/1999/xlink" x="0px"
	 y="0px" viewBox="0 0 26.2 26.4" style="enable-background:new 0 0 26.2 26.4;" xml:space="preserve">
<path fill="currentColor" d="M20,26.4c-1.8-0.1-3.6-0.7-5.4-1.5c-6.1-3-10.6-7.6-13.4-13.7C0.4,9.4-0.1,7.6,0,5.7c0.1-1,0.4-1.9,1.1-2.6
	c0.7-0.7,1.4-1.4,2.1-2.1c1.3-1.2,2.7-1.2,4,0C8.3,2,9.4,3,10.4,4.1c1.3,1.3,1.3,2.7,0,4C9.9,8.7,9.3,9.2,8.8,9.7
	c-0.2,0.2-0.2,0.4-0.1,0.7c1,1.9,2.4,3.5,4,4.9c1,0.8,2.1,1.5,3.2,2.3c0.3,0.2,0.5,0.1,0.7-0.1c0.6-0.6,1.2-1.2,1.8-1.8
	c1.1-1,2.5-1,3.5,0.1c1.2,1.1,2.4,2.3,3.5,3.5c1.1,1.1,1.1,2.5,0.1,3.6c-0.7,0.8-1.5,1.6-2.3,2.4C22.4,26,21.3,26.4,20,26.4L20,26.4
	z M19.9,25c1.2,0,1.9-0.3,2.6-1c0.6-0.6,1.2-1.2,1.8-1.8c0.8-0.8,0.8-1.5,0-2.3c-1-1-2.1-2.1-3.1-3.1c-0.8-0.8-1.4-0.8-2.1,0
	c-0.6,0.6-1.3,1.3-1.9,1.9c-0.5,0.5-0.9,0.5-1.5,0.2c-0.8-0.5-1.7-1-2.5-1.5c-2.4-1.9-4.5-4-5.9-6.8C7,9.9,7.1,9.5,7.6,9
	c0.6-0.6,1.3-1.2,1.9-1.8c0.7-0.8,0.7-1.3,0-2.1C8.4,4,7.4,2.9,6.3,1.9c-0.8-0.7-1.4-0.7-2.1,0C3.6,2.5,3,3.1,2.4,3.6
	C1.6,4.4,1.3,5.4,1.4,6.5c0.1,1.4,0.5,2.8,1.1,4c2.7,5.9,7,10.2,12.8,13.1C16.8,24.4,18.4,24.9,19.9,25L19.9,25z"/>
</svg>
