<?xml version="1.0" encoding="utf-8"?>
<!-- Generator: Adobe Illustrator 27.0.0, SVG Export Plug-In . SVG Version: 6.00 Build 0)  -->
<svg version="1.1" id="Para_desarrollo" xmlns="http://www.w3.org/2000/svg" xmlns:xlink="http://www.w3.org/1999/xlink" x="0px"
	 y="0px" viewBox="0 0 39.4 39.3" style="enable-background:new 0 0 39.4 39.3;" xml:space="preserve">
<style type="text/css">
	.st0{fill:#EBECEE;}
</style>
<path class="st0" d="M25.1,38.5V24h4.2c0.2-1.7,0.4-3.3,0.6-4.9h-4.8c0-1.4-0.1-2.8,0-4.1c0-0.8,0.7-1.2,1.4-1.3
	c1.1-0.1,2.2-0.1,3.4-0.2V9.1c-2-0.1-4.1-0.4-6.1,0.2c-2.5,0.8-3.9,2.9-4,5.9c0,1.2,0,2.5,0,3.8h-4.1V24H20v15.3
	C12.2,39.7,2.3,34,0.3,23.2c-2-11,5.4-21,15.8-22.9C27-1.6,37.2,5.5,39,16C41,27.4,33.4,36.4,25.1,38.5L25.1,38.5z"/>
</svg>
