<?xml version="1.0" encoding="utf-8"?>
<!-- Generator: Adobe Illustrator 27.0.0, SVG Export Plug-In . SVG Version: 6.00 Build 0)  -->
<svg version="1.1" id="Para_desarrollo" xmlns="http://www.w3.org/2000/svg" xmlns:xlink="http://www.w3.org/1999/xlink" x="0px"
	 y="0px" viewBox="0 0 24.6 32.2" style="enable-background:new 0 0 24.6 32.2;" xml:space="preserve">

<g>
	<path fill="currentColor" d="M24.6,12.9c0.1,2.3-1,4.7-2.5,6.8c-2.9,4-5.9,8-8.9,12c-0.5,0.7-1.2,0.7-1.7,0C8.3,27.5,5.1,23.3,2.1,19
		C-1.4,14.1-0.2,7.7,3.3,3.9c5.3-5.8,15.1-5,19.3,1.7C23.9,7.7,24.6,9.9,24.6,12.9z M12.3,29.7c1-1.4,2-2.6,2.9-3.9
		c2-2.7,4-5.5,5.9-8.3c1.7-2.5,1.9-5.2,1.1-8c-1.4-5.3-6.9-8.6-12.2-7.4C4.9,3.2,1.2,8.1,2,14c0.3,1.9,1.3,3.5,2.4,5.1
		c2.4,3.3,4.9,6.6,7.3,9.8C11.9,29.1,12.1,29.4,12.3,29.7L12.3,29.7z"/>
	<path fill="currentColor" d="M18.9,12.3c-0.1,3.7-3.1,6.6-6.8,6.5c-3.6-0.1-6.5-3.2-6.4-6.7c0.1-3.7,3.1-6.6,6.8-6.5
		C16.1,5.7,19,8.8,18.9,12.3z M7.6,12.3c0,2.6,2.1,4.7,4.8,4.7c2.6,0,4.7-2.1,4.7-4.7c0-2.6-2.1-4.7-4.7-4.7
		C9.7,7.5,7.6,9.7,7.6,12.3z"/>
</g>
</svg>
