<?xml version="1.0" encoding="utf-8"?>
<!-- Generator: Adobe Illustrator 27.0.0, SVG Export Plug-In . SVG Version: 6.00 Build 0)  -->
<svg version="1.1" id="Para_desarrollo" xmlns="http://www.w3.org/2000/svg" xmlns:xlink="http://www.w3.org/1999/xlink" x="0px"
	 y="0px" viewBox="0 0 29 18.9" style="enable-background:new 0 0 29 18.9;" xml:space="preserve">

<path fill="currentColor" d="M14.5,0c4,0,8,0,12,0C28.2,0,29,0.7,29,2.4c0,4.7,0,9.4,0,14.1c0,1.5-0.8,2.3-2.3,2.3c-8.1,0-16.3,0-24.4,0
	c-1.5,0-2.3-0.8-2.3-2.3c0-4.8,0-9.6,0-14.3C0,0.8,0.8,0,2.3,0C6.4,0,10.4,0,14.5,0z M26.6,17.8c-2.6-3.1-5-6-7.5-9
	c-0.8,0.7-1.6,1.3-2.4,1.9c-1.5,1.2-3,1.2-4.4,0c-0.8-0.6-1.6-1.2-2.4-1.9c-2.5,3-5,6-7.5,9L26.6,17.8L26.6,17.8z M1.9,1.1
	c0.2,0.1,0.3,0.2,0.4,0.3C5.8,4.3,9.4,7.2,13,10c0.9,0.8,2,0.7,2.9,0c3.6-2.9,7.1-5.7,10.7-8.6c0.1-0.1,0.3-0.1,0.4-0.2
	c0,0-0.1-0.1-0.2-0.2C27,1.1,1.9,1.1,1.9,1.1z M1.1,1.8C1,2,1,2,1,2.1C1,7,1,11.9,1,16.8c0,0.2,0.1,0.5,0.2,0.8
	c2.7-3.2,5.3-6.3,7.9-9.4C6.4,6,3.8,3.9,1.1,1.8L1.1,1.8z M27.8,1.8c-2.7,2.2-5.3,4.2-8,6.4c2.6,3.1,5.2,6.2,7.8,9.3
	C28,17,28.1,3.1,27.8,1.8z"/>
</svg>
