<?xml version="1.0" encoding="utf-8"?>
<!-- Generator: Adobe Illustrator 27.0.0, SVG Export Plug-In . SVG Version: 6.00 Build 0)  -->
<svg version="1.1" id="Para_desarrollo" xmlns="http://www.w3.org/2000/svg" xmlns:xlink="http://www.w3.org/1999/xlink" x="0px"
	 y="0px" viewBox="0 0 40.6 40.6" style="enable-background:new 0 0 40.6 40.6;" xml:space="preserve">
<style type="text/css">
	.st0{fill:#EBECEE;}
</style>
<g>
	<path class="st0" d="M20.3,0c11.2,0,20.3,9.1,20.3,20.3c0,11.2-9.1,20.3-20.3,20.3C9.1,40.6,0,31.5,0,20.2C0,9.1,9.1,0,20.3,0z
		 M18.7,23c0.2,0.3,0.4,0.5,0.5,0.8c1.8,2.6,3.6,5.3,5.4,7.9c0.3,0.4,0.5,0.6,1,0.6c1.9,0,3.8,0,5.6,0c0.2,0,0.4,0,0.6-0.1
		c-3.2-4.6-6.3-9.1-9.4-13.7c2.9-3.3,5.7-6.6,8.6-10c-1.2-0.1-2.1-0.1-2.9,0.9c-2,2.5-4.1,4.9-6.2,7.3c-0.1,0.1-0.3,0.3-0.4,0.5
		c-0.2-0.3-0.4-0.5-0.5-0.8c-1.7-2.5-3.4-4.9-5.1-7.4c-0.3-0.4-0.6-0.6-1.1-0.6c-1.8,0-3.6,0-5.5,0c-0.2,0-0.4,0-0.7,0.1
		c3.1,4.4,6,8.8,9,13.2c-3,3.5-6,7-9,10.5c1.2,0.2,2.1,0.1,2.9-0.9C13.9,28.4,16.2,25.7,18.7,23L18.7,23z"/>
	<path class="st0" d="M29.1,30.7c-1,0-1.9,0-2.8,0c-0.2,0-0.4-0.2-0.6-0.4c-4.7-6.7-9.4-13.5-14.1-20.2c0,0,0-0.1-0.1-0.3
		c1,0,1.9,0,2.8,0c0.2,0,0.4,0.2,0.5,0.4c4.7,6.7,9.3,13.3,14,20C28.9,30.4,29,30.5,29.1,30.7z"/>
</g>
</svg>
