<?xml version="1.0" encoding="utf-8"?>
<!-- Generator: Adobe Illustrator 27.0.0, SVG Export Plug-In . SVG Version: 6.00 Build 0)  -->
<svg version="1.1" id="Para_desarrollo" xmlns="http://www.w3.org/2000/svg" xmlns:xlink="http://www.w3.org/1999/xlink" x="0px"
	 y="0px" viewBox="0 0 240.9 53.1" style="enable-background:new 0 0 240.9 53.1;" xml:space="preserve">
<style type="text/css">
	.st0{fill:#FFFFFF;}
</style>
<g>
	<g>
		<path class="st0" d="M81.1,50.9h-4.2L76.1,53h-1.3l3.4-9.5h1.4l3.4,9.5h-1.3C81.8,53,81.1,50.9,81.1,50.9z M79,45.1l-1.7,4.8h3.4
			L79,45.1z"/>
		<path class="st0" d="M88.5,43.5c2.2,0,3.3,1.2,3.3,2.8c0,1.2-0.7,2.4-2.3,2.7l2.4,4h-1.5l-2.3-3.9h-1.5V53h-1.2v-9.5
			C85.5,43.5,88.5,43.5,88.5,43.5z M88.5,44.5h-1.8v3.6h1.8c1.4,0,2-0.8,2-1.8S89.9,44.5,88.5,44.5z"/>
		<path class="st0" d="M92.9,43.5h6.4v1h-2.6V53h-1.2v-8.5h-2.6V43.5z"/>
		<path class="st0" d="M124.7,48.3c0,3-1.9,4.7-5.1,4.7h-3v-9.5h3C122.8,43.5,124.7,45.4,124.7,48.3z M119.6,52
			c2.5,0,3.8-1.4,3.8-3.7s-1.3-3.8-3.8-3.8h-1.7V52C117.9,52,119.6,52,119.6,52z"/>
		<path class="st0" d="M131.9,44.5H128v3.2h3.5v1H128V52h3.9v1h-5.1v-9.5h5.1V44.5L131.9,44.5z"/>
		<path class="st0" d="M137.3,53.1c-1.9,0-3.3-1.1-3.3-2.6h1.3c0.1,0.8,0.6,1.6,2,1.6c1.2,0,1.9-0.7,1.9-1.6c0-2.6-5.1-0.9-5.1-4.5
			c0-1.6,1.3-2.6,3.2-2.6s3,1,3.2,2.5H139c-0.1-0.6-0.7-1.4-1.8-1.4c-1,0-1.8,0.5-1.8,1.5c0,2.5,5.1,0.9,5.1,4.5
			C140.5,51.8,139.4,53.1,137.3,53.1L137.3,53.1z"/>
		<path class="st0" d="M142.7,43.5h1.2V53h-1.2V43.5z"/>
		<path class="st0" d="M155.3,46.3h-1.5c-0.5-1.1-1.6-1.8-2.9-1.8c-2,0-3.5,1.5-3.5,3.7s1.5,3.7,3.5,3.7c1.9,0,3.2-1.2,3.4-3.1h-3.8
			v-1h5.1v1c-0.2,2.4-2.1,4.3-4.7,4.3s-4.8-2-4.8-4.8s2.1-4.9,4.8-4.9C152.9,43.4,154.6,44.5,155.3,46.3z"/>
		<path class="st0" d="M165.1,43.5V53h-1.2l-5-7.6V53h-1.2v-9.5h1.2l5,7.6v-7.6H165.1z"/>
		<path class="st0" d="M104.1,50.5c0-0.6,0.2-1.1,0.4-1.5c0.3-0.4,0.8-0.9,1.6-1.3c-0.4-0.4-0.6-0.7-0.8-0.9s-0.2-0.4-0.3-0.7
			c-0.1-0.2-0.1-0.5-0.1-0.7c0-0.7,0.2-1.2,0.6-1.5s1-0.5,1.8-0.5c0.7,0,1.3,0.2,1.7,0.5s0.6,0.9,0.6,1.5c0,0.5-0.2,0.9-0.4,1.3
			s-0.8,0.8-1.5,1.2l2.7,2.5c0.2-0.3,0.4-0.6,0.6-1c0.2-0.4,0.3-0.8,0.4-1.2h1.1c-0.3,1.2-0.7,2.2-1.3,2.8l1.9,1.9h-1.5l-1.2-1.2
			c-0.5,0.5-1,0.8-1.6,1s-1.1,0.3-1.8,0.3c-0.9,0-1.7-0.2-2.2-0.7S104.1,51.3,104.1,50.5L104.1,50.5z M107.1,52.1
			c1.1,0,1.9-0.3,2.6-1l-2.8-2.8c-0.5,0.3-0.8,0.5-1,0.7s-0.3,0.4-0.4,0.6c-0.1,0.2-0.1,0.5-0.1,0.8c0,0.5,0.2,0.9,0.5,1.2
			C106.1,52,106.5,52.1,107.1,52.1L107.1,52.1z M106,45.3c0,0.3,0.1,0.6,0.2,0.9c0.2,0.3,0.4,0.6,0.8,1c0.6-0.3,0.9-0.6,1.2-0.9
			c0.2-0.3,0.3-0.6,0.3-1c0-0.3-0.1-0.6-0.3-0.8c-0.2-0.2-0.5-0.3-0.9-0.3s-0.7,0.1-0.9,0.3S106,45,106,45.3L106,45.3z"/>
	</g>
	<g>
		<path class="st0" d="M110.8,0c-10.4,0-18.9,8.5-18.9,18.9s8.5,18.9,18.9,18.9s18.9-8.5,18.9-18.9S121.2,0,110.8,0z M110.8,30.5
			c-6.4,0-11.6-5.2-11.6-11.6s5.2-11.6,11.6-11.6s11.6,5.2,11.6,11.6S117.2,30.5,110.8,30.5z"/>
		<path class="st0" d="M156.6,3.2v20.1l-14-21.5c-0.5-0.7-1.2-1.1-2.1-1.1h-3.3c-1.4,0-2.5,1.1-2.5,2.5v33.9h7.3V14.3l13.6,20.8
			c1,1.5,2.6,2.3,4.3,2.3h3.9V0.7h-4.8C157.7,0.7,156.6,1.8,156.6,3.2L156.6,3.2z"/>
		<path class="st0" d="M226.8,17.1l12.8-16.4h-6.4c-1.8,0-3.5,0.8-4.6,2.2l-7.4,9.5V0.7h-5.1c-1.2,0-2.1,1-2.1,2.1V35
			c0,1.2,1,2.1,2.1,2.1h3c1.2,0,2.1-1,2.1-2.1v-13l8.9,12.7c1.1,1.5,2.9,2.5,4.7,2.5h5.9L226.8,17.1L226.8,17.1z"/>
		<path class="st0" d="M79.1,0.7H75c-0.8,0-1.6,0.5-1.8,1.3l-8,22.4L57.4,2c-0.3-0.8-1-1.3-1.8-1.3h-4.1c-1,0-1.8,0.7-1.9,1.6
			l-6,34.8h5.2c1.3,0,2.3-0.9,2.6-2.2l3.3-18.9L61,34.7c0.5,1.5,1.9,2.4,3.4,2.4h1.4c1.5,0,2.9-1,3.4-2.4L76,15.8l3.3,19.1
			c0.2,1.2,1.3,2.2,2.6,2.2h5.2L81,2.3C80.8,1.4,80,0.7,79.1,0.7L79.1,0.7z"/>
		<path class="st0" d="M20.9,1.1H17c-1.2,0-2.3,0.7-2.8,1.9L0,37l17.5,0c1.1,0,2-0.9,2-2v-3.6c0-1.1-0.9-2-2-2H12l6.9-17L28,34.6
			c0.6,1.5,2.1,2.5,3.8,2.5h5.9L23.7,3C23.2,1.8,22.1,1.1,20.9,1.1z"/>
		<path class="st0" d="M190.4,1.1h-3.9c-1.2,0-2.3,0.7-2.8,1.9L169.5,37l17.4,0c1.1,0,2-0.9,2-2v-3.6c0-1.1-0.9-2-2-2h-5.5l6.9-17
			l9.1,22.1c0.6,1.5,2.1,2.5,3.8,2.5h5.9L193.2,3C192.7,1.8,191.6,1.1,190.4,1.1L190.4,1.1z"/>
	</g>
</g>
</svg>
