<svg id="Home" xmlns="http://www.w3.org/2000/svg" viewBox="0 0 57.12 37.28"><defs><style>.cls-1{fill:#fff;}</style></defs><title>Amonak-Para desarrollo-Sección Contáctanos</title><path class="cls-1" d="M28.58,0H52.31c3.38,0,4.81,1.44,4.81,4.81q0,14,0,27.89c0,3-1.49,4.58-4.52,4.58H4.49c-3,0-4.48-1.55-4.49-4.48V4.52C0,1.52,1.53,0,4.59,0ZM52.5,35.19,37.65,17.38,33,21.14c-2.91,2.31-5.84,2.32-8.74,0l-4.73-3.78L4.63,35.19ZM3.74,2.12c.33.31.49.48.68.63q10.64,8.52,21.27,17a4.32,4.32,0,0,0,5.81-.05Q42.11,11.26,52.68,2.79a3.4,3.4,0,0,1,.8-.35l-.33-.32ZM2.13,3.5A5.83,5.83,0,0,0,2,4.17Q2,18.63,2,33.09a8.57,8.57,0,0,0,.38,1.62L17.92,16.12Zm52.78.06L39.21,16.13,54.58,34.57C55.17,33.51,55.42,6.08,54.91,3.56Z"/></svg>