<svg id="Home" xmlns="http://www.w3.org/2000/svg" viewBox="0 0 43.57 43.57"><defs><style>.cls-1{fill:#fff;}</style></defs><title>Amonak-Para desarrollo-Sección Footer</title><path class="cls-1" d="M21.8,43.57A21.79,21.79,0,1,1,43.57,21.84,21.79,21.79,0,0,1,21.8,43.57Zm12.4-27c-.12-4-2.32-6.74-6.29-7a87.58,87.58,0,0,0-12.23,0C12,9.74,9.75,12,9.49,15.66a92.43,92.43,0,0,0,0,12.23c.25,3.72,2.46,5.93,6.17,6.19a89.14,89.14,0,0,0,12.23,0c3.74-.25,5.84-2.53,6.23-6.26C34.32,25.83,34.25,18.27,34.2,16.52Z"/><path class="cls-1" d="M31.81,28A4,4,0,0,1,28,31.82c-2,.2-4,.2-6,.2s-4.19,0-6.28-.2a4,4,0,0,1-3.89-3.91c-.21-2.23-.19-4.47-.19-6.71a52.31,52.31,0,0,1,.19-5.6,4,4,0,0,1,3.87-3.85,57.75,57.75,0,0,1,6-.19c2.09,0,4.2,0,6.28.19a4.16,4.16,0,0,1,3.93,3.91,8,8,0,0,1,.11.84C32,18.26,32,25.92,31.81,28Zm-10,.25a6.43,6.43,0,1,0-6.47-6.41A6.48,6.48,0,0,0,21.83,28.22ZM30,15.09a1.49,1.49,0,1,0-3,.08,1.51,1.51,0,0,0,1.49,1.43A1.49,1.49,0,0,0,30,15.09Z"/><path class="cls-1" d="M26,21.76a4.17,4.17,0,1,1-4.19-4.14A4.15,4.15,0,0,1,26,21.76Z"/></svg>