<svg id="Home" xmlns="http://www.w3.org/2000/svg" viewBox="0 0 38.16 24.91"><defs><style>.cls-1{fill:#fff;}</style></defs><title>Amonak-Para desarrollo-Sección Footer</title><path class="cls-1" d="M19.09,0H35c2.26,0,3.21,1,3.21,3.22V21.85c0,2-1,3-3,3q-16.07,0-32.14,0a2.67,2.67,0,0,1-3-3V3C0,1,1,0,3.06,0Zm16,23.51-9.92-11.9L22,14.12a4.26,4.26,0,0,1-5.84,0L13,11.61,3.1,23.51ZM2.5,1.42c.22.2.33.32.46.42q7.1,5.69,14.2,11.37a2.9,2.9,0,0,0,3.89,0Q28.13,7.53,35.19,1.86a2.92,2.92,0,0,1,.54-.23l-.22-.21Zm-1.07.92a3.91,3.91,0,0,0-.08.44q0,9.66,0,19.32a5.21,5.21,0,0,0,.25,1.09L12,10.77Zm35.25,0-10.49,8.4L36.46,23.09C36.86,22.39,37,4.06,36.68,2.38Z"/></svg>