<svg id="Home" xmlns="http://www.w3.org/2000/svg" viewBox="0 0 43.57 43.57"><defs><style>.cls-1{fill:#fff;}</style></defs><title>Amonak-Para desarrollo-Sección Footer</title><path class="cls-1" d="M21.76,43.57A21.79,21.79,0,1,1,43.57,21.88,21.8,21.8,0,0,1,21.76,43.57Zm.58-34.19v1.17c0,5.38,0,10.77,0,16.16a3.57,3.57,0,0,1-3.5,3.48A3.71,3.71,0,0,1,15,27a3.63,3.63,0,0,1,2.84-4,14.45,14.45,0,0,1,1.91-.11V19C14.83,17.9,10,22.76,11,27.81a7.79,7.79,0,0,0,8.45,6.38,7.71,7.71,0,0,0,7-7.75c0-2.69,0-5.39,0-8.08,0-.24,0-.48.05-.74,3.63,1.8,4.68,2.11,6.19,1.87V15.63c-3.79-.42-5.85-2.53-6.31-6.25Z"/></svg>