<?xml version="1.0" encoding="utf-8"?>
<!-- Generator: Adobe Illustrator 23.0.5, SVG Export Plug-In . SVG Version: 6.00 Build 0)  -->
<svg version="1.1" id="Quienes_somos" xmlns="http://www.w3.org/2000/svg" xmlns:xlink="http://www.w3.org/1999/xlink" x="0px"
	 y="0px" viewBox="0 0 36.5 33.2" style="enable-background:new 0 0 36.5 33.2;" xml:space="preserve">
<style type="text/css">
	.st0{fill:#5A640E;}
</style>
<title>Amonak-Para desarrollo-Sección Contáctanos-74</title>
<g>
	<defs>
		<path id="SVGID_1_" d="M-217.6-476.2h826.1c23.3,0,42.3,18.9,42.3,42.3v319.5c0,23.3-18.9,42.3-42.3,42.3h-826.1
			c-23.3,0-42.3-18.9-42.3-42.3V-434C-259.9-457.3-240.9-476.2-217.6-476.2z"/>
	</defs>
	<clipPath id="SVGID_2_">
		<use xlink:href="#SVGID_1_"  style="overflow:visible;"/>
	</clipPath>
</g>
<path class="st0" d="M14,20.6c0,0,0,0.1,0,0.1c0.2,0.7,0.4,1.4,0.6,2.1h17c0.5,0,1,0.1,1.4,0.3c0.5,0.3,0.7,0.9,0.4,1.4
	c-0.1,0.1-0.2,0.3-0.3,0.4c-0.4,0.3-0.8,0.4-1.3,0.4H12.9c-0.3,0-0.4-0.1-0.4-0.3c-0.4-1.5-0.8-3-1.2-4.4c-0.5-1.8-0.9-3.6-1.4-5.3
	C9.5,13.6,9,12,8.6,10.3C8.3,9.1,8,7.8,7.6,6.6S7,4.2,6.7,3C6.6,2.8,6.5,2.7,6.3,2.7l-5-0.1C0.5,2.5,0,1.8,0,1.1
	c0-0.2,0.1-0.3,0.1-0.5C0.4,0.2,0.9-0.1,1.4,0h5.7c0.7-0.1,1.4,0.5,1.5,1.2c0.4,1.3,0.7,2.5,1,3.8c0,0.1,0.1,0.2,0.1,0.3
	C10,5.8,10,5.8,10.5,5.8h23.7c0.6,0,1.2,0.2,1.6,0.6c0.5,0.4,0.7,1.2,0.5,1.8c-0.9,2.3-1.8,4.6-2.7,6.9c-0.6,1.5-1.2,3.1-1.8,4.7
	c-0.1,0.4-0.5,0.7-0.9,0.7c-0.1,0-0.3,0-0.4,0h-8.2c-2.6,0-5.3,0-8,0L14,20.6z M10.5,8.3c0,0.1,0,0.1,0,0.2c0.4,1.3,0.7,2.7,1.1,4
	c0.5,1.9,1.1,3.8,1.6,5.6c0.1,0.2,0.1,0.3,0.4,0.3c2.3,0,4.6,0,6.9,0c3,0,6.1,0,9.1,0c0.3,0,0.5-0.1,0.6-0.4c1-2.8,2.1-5.5,3.2-8.3
	c0.2-0.5,0.4-1,0.6-1.5L10.5,8.3z"/>
<path class="st0" d="M16.6,26.8c1.8,0,3.2,1.4,3.2,3.2s-1.4,3.2-3.2,3.2c-1.8,0-3.2-1.4-3.2-3.2C13.5,28.2,14.9,26.8,16.6,26.8z
	 M16.6,31.2c0.7,0,1.2-0.5,1.2-1.2c0.1-0.7-0.4-1.3-1.1-1.3c-0.7-0.1-1.3,0.4-1.3,1.1c0,0.1,0,0.1,0,0.2
	C15.5,30.6,16,31.2,16.6,31.2L16.6,31.2z"/>
<path class="st0" d="M31.4,30c0,1.8-1.4,3.2-3.2,3.2c-1.8,0-3.2-1.4-3.2-3.2s1.4-3.2,3.2-3.2c0,0,0,0,0,0C30,26.8,31.4,28.3,31.4,30
	z M27,30c0,0.7,0.5,1.2,1.2,1.2c0,0,0.1,0,0.1,0c0.7,0,1.2-0.6,1.2-1.2c0,0,0,0,0,0c-0.1-0.7-0.7-1.2-1.3-1.1
	C27.5,28.9,27.1,29.4,27,30L27,30z"/>
</svg>
