<?xml version="1.0" encoding="utf-8"?>
<!-- Generator: Adobe Illustrator 23.0.5, SVG Export Plug-In . SVG Version: 6.00 Build 0)  -->
<svg version="1.1" id="Quienes_somos" xmlns="http://www.w3.org/2000/svg" xmlns:xlink="http://www.w3.org/1999/xlink" x="0px"
	 y="0px" viewBox="0 0 31.6 34" style="enable-background:new 0 0 31.6 34;" xml:space="preserve">
<style type="text/css">
	.st0{fill:#5A640E;}
</style>
<title>Amonak-Para desarrollo-Sección Contáctanos-74</title>
<path class="st0" d="M15.8,21.5h-5c-4.6-0.1-8.4,3.6-8.5,8.2c0,0,0,0,0,0.1c0,1,0,2,0,3c0,0.5-0.3,1-0.9,1.1c-0.5,0.1-0.9,0-1.2-0.4
	C0.1,33.4,0,33.1,0,32.9c-0.2-2,0-4,0.4-6c1.3-4.5,5.5-7.7,10.2-7.7c3.3,0,6.7,0,10,0c5.8-0.2,10.7,4.3,11,10.2c0.1,1.1,0,2.3,0,3.4
	c0,0.6-0.4,1.1-1,1.2c-0.5,0.1-1-0.2-1.2-0.7c-0.1-0.2-0.1-0.5-0.1-0.8c0-0.8,0-1.6,0-2.4c0.1-4.6-3.5-8.5-8.1-8.6
	c-0.2,0-0.3,0-0.5,0L15.8,21.5z"/>
<path class="st0" d="M15.9,0c4.7,0,8.4,3.8,8.4,8.5c0,4.7-3.8,8.4-8.5,8.4c-4.6,0-8.4-3.8-8.4-8.4C7.4,3.8,11.2,0,15.9,0z M15.8,2.3
	c-3.4,0-6.1,2.8-6,6.1c0,3.4,2.8,6.1,6.1,6c3.4,0,6.1-2.8,6-6.1c0,0,0,0,0,0C21.8,5,19.1,2.3,15.8,2.3z"/>
</svg>
