<svg id="Home" xmlns="http://www.w3.org/2000/svg" viewBox="0 0 32.39 42.48"><defs><style>.cls-1{fill:#fff;}</style></defs><title>Amonak-Para desarrollo-Sección Footer</title><path class="cls-1" d="M32.38,17c.16,3-1.24,6.14-3.31,9-3.86,5.33-7.82,10.58-11.75,15.85a1.23,1.23,0,0,1-2.2,0C11,36.23,6.77,30.67,2.73,25c-4.57-6.44-3-14.89,1.62-19.89A16.25,16.25,0,0,1,29.79,7.37,17,17,0,0,1,32.38,17ZM16.21,39.11c1.36-1.79,2.65-3.45,3.88-5.14,2.64-3.62,5.32-7.2,7.83-10.91a12.38,12.38,0,0,0,1.45-10.58,13.7,13.7,0,0,0-26.7,6A15.12,15.12,0,0,0,5.8,25.14c3.18,4.35,6.42,8.65,9.64,13Z"/><path class="cls-1" d="M24.91,16.26a8.71,8.71,0,1,1-8.4-8.83A8.71,8.71,0,0,1,24.91,16.26ZM10,16.17a6.21,6.21,0,1,0,6.2-6.25A6.22,6.22,0,0,0,10,16.17Z"/></svg>