<svg id="Quienes_somos" data-name="Quienes somos" xmlns="http://www.w3.org/2000/svg" viewBox="0 0 29.7 33.96"><defs><style>.cls-1{fill:#5a640e;}</style></defs><title>Amonak-Para desarrollo-Sección Contáctanos-74</title><path class="cls-1" d="M11,0c.32,0,.64.06,1,.11A10.43,10.43,0,0,1,19.69,5a10.16,10.16,0,0,1,1.6,5.74,10.5,10.5,0,0,1-3.07,7.36L18,18.4l.1.15,3.24,4a.29.29,0,0,0,.28.11,2.15,2.15,0,0,1,2,.81l3,3.75c.81,1,1.61,2,2.43,3a2.43,2.43,0,0,1,.56,1.28.69.69,0,0,0,0,.1v.24a1,1,0,0,0-.05.16,2.16,2.16,0,0,1-1.72,1.85l-.24.07H27.3L27,33.89a2.1,2.1,0,0,1-1.24-.74q-2.81-3.48-5.6-7a2.11,2.11,0,0,1-.34-2,.27.27,0,0,0,0-.27c-1.12-1.38-2.23-2.77-3.35-4.16l-.09-.1-.18.1a10.4,10.4,0,0,1-5.82,1.55A10.59,10.59,0,0,1,.18,12.46c-.07-.39-.1-.78-.14-1.17,0-.08,0-.16,0-.24v-.76c0-.07,0-.14,0-.22A10.41,10.41,0,0,1,.53,7.41,10.6,10.6,0,0,1,9.31.11L10.26,0Zm-.37,19.28A8.62,8.62,0,1,0,2,10.67,8.61,8.61,0,0,0,10.65,19.28Z"/></svg>