<svg id="Home" xmlns="http://www.w3.org/2000/svg" viewBox="0 0 51.79 52.01"><defs><style>.cls-1{fill:#fff;}</style></defs><title>Amonak-Para desarrollo-Sección Contáctanos</title><path class="cls-1" d="M39.51,52a26.12,26.12,0,0,1-10.57-3A55.48,55.48,0,0,1,2.47,21.91,21.94,21.94,0,0,1,0,11.14,8.07,8.07,0,0,1,2.29,6C3.65,4.54,5,3.13,6.45,1.79,9-.6,11.75-.6,14.27,1.81Q17.5,4.9,20.58,8.13c2.54,2.65,2.5,5.27-.06,7.93-1,1.07-2.08,2.13-3.18,3.14a.89.89,0,0,0-.2,1.29A32.3,32.3,0,0,0,25,30.11c2,1.69,4.2,3,6.31,4.56.58.42,1,.28,1.46-.23,1.17-1.22,2.35-2.43,3.61-3.55a4.8,4.8,0,0,1,6.94.11q3.51,3.38,6.89,6.89a5,5,0,0,1,.14,7.2c-1.45,1.65-3,3.21-4.59,4.73A8.48,8.48,0,0,1,39.51,52Zm-.21-2.64a6.15,6.15,0,0,0,5.09-1.88l3.54-3.63c1.57-1.62,1.58-2.87,0-4.46q-3-3.06-6.1-6.09c-1.51-1.5-2.67-1.52-4.19,0-1.28,1.25-2.53,2.54-3.81,3.8a2.15,2.15,0,0,1-2.94.41,45.52,45.52,0,0,1-4.9-3c-4.79-3.68-8.93-8-11.57-13.49A2.29,2.29,0,0,1,15,17.77c1.23-1.21,2.49-2.39,3.68-3.63,1.44-1.5,1.44-2.66,0-4.13Q15.6,6.86,12.45,3.77C11,2.3,9.72,2.3,8.23,3.75,7.07,4.88,6,6.07,4.78,7.18a6.65,6.65,0,0,0-2.12,5.67,22.25,22.25,0,0,0,2.21,8A53,53,0,0,0,30.16,46.67,23.58,23.58,0,0,0,39.3,49.37Z"/></svg>