<svg id="Home" xmlns="http://www.w3.org/2000/svg" viewBox="0 0 43.57 43.57"><defs><style>.cls-1{fill:#fff;}</style></defs><title>Amonak-Para desarrollo-Sección Footer</title><path class="cls-1" d="M21.77,0A21.79,21.79,0,1,1,0,21.74,21.78,21.78,0,0,1,21.77,0ZM20,24.65l.6.84c1.94,2.82,3.89,5.65,5.81,8.48a1.16,1.16,0,0,0,1.1.61c2,0,4,0,6,0a5.23,5.23,0,0,0,.69-.08c-3.4-4.95-6.73-9.8-10.08-14.66L33.42,9.05c-1.29-.14-2.22-.13-3.09,1-2.13,2.69-4.44,5.23-6.68,7.83-.14.16-.29.31-.47.5l-.59-.83c-1.81-2.64-3.63-5.27-5.43-7.93A1.22,1.22,0,0,0,16,9c-2,0-3.92,0-5.87,0-.24,0-.47,0-.8.07L19,23.21,9.36,34.47a2.82,2.82,0,0,0,3.13-1C14.89,30.48,17.45,27.63,20,24.65Z"/><path class="cls-1" d="M31.2,33c-1.06,0-2,0-3,0a1,1,0,0,1-.6-.37L12.49,10.94a1.28,1.28,0,0,1-.07-.29c1,0,2,0,3,0,.17,0,.38.23.5.4L31,32.53A3.18,3.18,0,0,1,31.2,33Z"/></svg>