<svg id="Home" xmlns="http://www.w3.org/2000/svg" viewBox="0 0 240.9 53.13"><defs><style>.cls-1{fill:#355c01;}</style></defs><title>Amonak-Para desarrollo-Sección Banner principal</title><path class="cls-1" d="M81.05,50.92H76.9L76.14,53H74.82l3.45-9.47H79.7L83.13,53H81.82ZM79,45.1l-1.72,4.81H80.7Z"/><path class="cls-1" d="M88.53,43.52c2.24,0,3.31,1.24,3.31,2.8a2.69,2.69,0,0,1-2.27,2.73L92,53H90.47l-2.26-3.89H86.7V53H85.46V43.52Zm0,1H86.7v3.61h1.83c1.41,0,2-.77,2-1.83S90,44.54,88.53,44.54Z"/><path class="cls-1" d="M92.91,43.52h6.45v1H96.77V53H95.52V44.53H92.91Z"/><path class="cls-1" d="M124.69,48.3c0,3-1.93,4.74-5.06,4.74h-3V43.52h3C122.76,43.52,124.69,45.35,124.69,48.3ZM119.63,52c2.49,0,3.79-1.39,3.79-3.71a3.44,3.44,0,0,0-3.79-3.77h-1.72V52Z"/><path class="cls-1" d="M131.91,44.53H128v3.18h3.47v1H128V52h3.88v1h-5.12V43.5h5.12Z"/><path class="cls-1" d="M137.28,53.13c-1.91,0-3.26-1.06-3.29-2.63h1.32a1.77,1.77,0,0,0,2,1.58c1.2,0,1.91-.68,1.91-1.58,0-2.57-5.15-.93-5.15-4.47,0-1.57,1.27-2.64,3.16-2.64s3,1,3.15,2.45H139a1.72,1.72,0,0,0-1.85-1.38A1.57,1.57,0,0,0,135.31,46c0,2.46,5.14.93,5.14,4.45C140.45,51.8,139.34,53.13,137.28,53.13Z"/><path class="cls-1" d="M142.74,43.52H144V53h-1.25Z"/><path class="cls-1" d="M155.27,46.28h-1.49a3,3,0,0,0-2.89-1.75,3.46,3.46,0,0,0-3.52,3.74A3.46,3.46,0,0,0,150.89,52a3.2,3.2,0,0,0,3.34-3.09h-3.8v-1h5.13v1a4.62,4.62,0,0,1-4.67,4.26,4.86,4.86,0,0,1,0-9.71A4.5,4.5,0,0,1,155.27,46.28Z"/><path class="cls-1" d="M165.15,43.5V53H163.9l-5-7.58V53h-1.24V43.5h1.24l5,7.57V43.5Z"/><path class="cls-1" d="M104.09,50.49a2.56,2.56,0,0,1,.45-1.5,4.83,4.83,0,0,1,1.63-1.32,7.4,7.4,0,0,1-.75-.94,2.87,2.87,0,0,1-.32-.66,2.22,2.22,0,0,1-.12-.72,1.94,1.94,0,0,1,.64-1.53,2.69,2.69,0,0,1,1.78-.55,2.39,2.39,0,0,1,1.67.55,1.94,1.94,0,0,1,.6,1.51,2.06,2.06,0,0,1-.44,1.29,5,5,0,0,1-1.47,1.2l2.66,2.55a3.36,3.36,0,0,0,.58-.95,7.56,7.56,0,0,0,.37-1.19h1.1a6.28,6.28,0,0,1-1.34,2.83l2,1.9h-1.5l-1.2-1.16a5.13,5.13,0,0,1-1.57,1,5,5,0,0,1-1.77.3,3.17,3.17,0,0,1-2.18-.69A2.45,2.45,0,0,1,104.09,50.49Zm3,1.63a3.6,3.6,0,0,0,2.61-1l-2.85-2.76a6.25,6.25,0,0,0-1,.73,2,2,0,0,0-.45.63,2,2,0,0,0-.14.75,1.53,1.53,0,0,0,.51,1.21A1.92,1.92,0,0,0,107.06,52.12Zm-1-6.8a1.67,1.67,0,0,0,.24.86,4.84,4.84,0,0,0,.8,1,4.26,4.26,0,0,0,1.17-.9,1.51,1.51,0,0,0,.33-1,1.06,1.06,0,0,0-.34-.82,1.24,1.24,0,0,0-.89-.31,1.41,1.41,0,0,0-1,.31A1.06,1.06,0,0,0,106.05,45.32Z"/><path class="cls-1" d="M110.76,0a18.91,18.91,0,1,0,18.91,18.91A18.93,18.93,0,0,0,110.76,0Zm0,30.55a11.64,11.64,0,1,1,11.63-11.64A11.65,11.65,0,0,1,110.76,30.55Z"/><path class="cls-1" d="M156.57,3.21V23.29l-14-21.45A2.46,2.46,0,0,0,140.48.73h-3.26a2.46,2.46,0,0,0-2.46,2.46v33.9H142V14.34l13.59,20.77A5.19,5.19,0,0,0,160,37.45h3.89V.73h-4.79A2.49,2.49,0,0,0,156.57,3.21Z"/><path class="cls-1" d="M226.84,17.15,239.65.73h-6.4A5.79,5.79,0,0,0,228.68,3l-7.38,9.46V.73h-5.13A2.14,2.14,0,0,0,214,2.87V35a2.14,2.14,0,0,0,2.14,2.14h3A2.14,2.14,0,0,0,221.3,35v-13l8.92,12.71A5.79,5.79,0,0,0,235,37.09h5.94Z"/><path class="cls-1" d="M79.09.73H75A1.94,1.94,0,0,0,73.19,2l-8,22.39L57.44,2A2,2,0,0,0,55.6.73H51.51A1.94,1.94,0,0,0,49.6,2.34L43.55,37.09h5.19a2.6,2.6,0,0,0,2.57-2.16l3.28-18.86L61,34.65a3.64,3.64,0,0,0,3.43,2.44H65.8a3.64,3.64,0,0,0,3.42-2.4L76,15.83l3.32,19.1a2.61,2.61,0,0,0,2.57,2.16h5.19L81,2.34A1.94,1.94,0,0,0,79.09.73Z"/><path class="cls-1" d="M20.9,1.09H17A3,3,0,0,0,14.22,3L0,37l17.45,0a2,2,0,0,0,2-2V31.48a2,2,0,0,0-2-2H12l7-17L28,34.55a4.11,4.11,0,0,0,3.8,2.54h5.9L23.71,3A3.06,3.06,0,0,0,20.9,1.09Z"/><path class="cls-1" d="M190.36,1.09h-3.87A3,3,0,0,0,183.68,3L169.46,37l17.44,0a2,2,0,0,0,2-2V31.48a2,2,0,0,0-2-2h-5.47l6.94-17,9.09,22.12a4.09,4.09,0,0,0,3.79,2.54h5.9L193.16,3A3,3,0,0,0,190.36,1.09Z"/></svg>