<svg id="Home" xmlns="http://www.w3.org/2000/svg" viewBox="0 0 194.69 196.78"><defs><style>.cls-1{fill:#fff;}</style></defs><title>Amonak-Para desarrollo-Sección Footer</title><path class="cls-1" d="M75.52,114.39H73.19l-.43,1.19H72L74,110.25h.81l1.93,5.33H76Zm-1.17-3.28-1,2.71h1.93Z"/><path class="cls-1" d="M79.73,110.22c1.26,0,1.86.7,1.86,1.58a1.51,1.51,0,0,1-1.28,1.53l1.34,2.25h-.83l-1.28-2.19H78.7v2.19H78v-5.36Zm0,.58h-1v2h1c.79,0,1.13-.43,1.13-1S80.53,110.8,79.73,110.8Z"/><path class="cls-1" d="M82.19,110.22h3.63v.57H84.36v4.79h-.7v-4.79H82.19Z"/><path class="cls-1" d="M100.05,112.91a2.55,2.55,0,0,1-2.84,2.67H95.55v-5.36h1.66A2.56,2.56,0,0,1,100.05,112.91ZM97.21,115a1.91,1.91,0,0,0,2.13-2.09,1.93,1.93,0,0,0-2.13-2.12h-1V115Z"/><path class="cls-1" d="M104.12,110.79h-2.18v1.79h2v.58h-2V115h2.18v.58h-2.88v-5.36h2.88Z"/><path class="cls-1" d="M107.13,115.63c-1.07,0-1.83-.6-1.85-1.48H106a1,1,0,0,0,1.1.89c.68,0,1.08-.39,1.08-.89,0-1.45-2.9-.52-2.9-2.51,0-.89.72-1.49,1.78-1.49a1.59,1.59,0,0,1,1.77,1.38h-.77a1,1,0,0,0-1-.78c-.58,0-1,.29-1,.86,0,1.39,2.89.53,2.89,2.51A1.61,1.61,0,0,1,107.13,115.63Z"/><path class="cls-1" d="M110.21,110.22h.7v5.36h-.7Z"/><path class="cls-1" d="M117.25,111.77h-.84a1.7,1.7,0,0,0-1.63-1,2.1,2.1,0,0,0,0,4.2,1.8,1.8,0,0,0,1.89-1.73h-2.14v-.57h2.88v.54a2.59,2.59,0,0,1-2.63,2.39,2.73,2.73,0,0,1,0-5.46A2.55,2.55,0,0,1,117.25,111.77Z"/><path class="cls-1" d="M122.8,110.22v5.36h-.7l-2.81-4.27v4.27h-.7v-5.36h.7l2.81,4.25v-4.25Z"/><path class="cls-1" d="M88.47,114.14a1.42,1.42,0,0,1,.26-.84,2.68,2.68,0,0,1,.91-.74,4.39,4.39,0,0,1-.42-.53,1.81,1.81,0,0,1-.18-.37,1.4,1.4,0,0,1-.06-.41,1.11,1.11,0,0,1,.35-.86,1.54,1.54,0,0,1,1-.3,1.37,1.37,0,0,1,.93.3,1.09,1.09,0,0,1,.34.85,1.15,1.15,0,0,1-.25.73,2.82,2.82,0,0,1-.82.67L92,114.08a1.74,1.74,0,0,0,.33-.54,4.82,4.82,0,0,0,.21-.67h.61a3.37,3.37,0,0,1-.75,1.59l1.1,1.07h-.84l-.68-.65a3,3,0,0,1-.88.56,2.87,2.87,0,0,1-1,.17,1.77,1.77,0,0,1-1.22-.39A1.38,1.38,0,0,1,88.47,114.14Zm1.68.92a2,2,0,0,0,1.46-.57L90,112.94a4.36,4.36,0,0,0-.58.41,1.33,1.33,0,0,0-.25.35,1.18,1.18,0,0,0-.08.43.88.88,0,0,0,.29.68A1.09,1.09,0,0,0,90.15,115.06Zm-.57-3.82a.91.91,0,0,0,.13.48,3,3,0,0,0,.45.55,2.28,2.28,0,0,0,.66-.51.83.83,0,0,0,.18-.53.58.58,0,0,0-.19-.46.68.68,0,0,0-.5-.18.82.82,0,0,0-.53.17A.59.59,0,0,0,89.58,111.24Z"/><path class="cls-1" d="M0,99.18C.33,83,3,69.91,8.84,57.62,22.77,28.12,45.5,9,77.5,2.29c32.6-6.81,61.6,1.64,86.12,24.2,16.13,14.83,25.93,33.39,29.59,55,4.77,28.17-2.06,53.56-19.22,76.22a100.45,100.45,0,0,1-38.54,31.14,85.86,85.86,0,0,1-29.89,7.72,84.91,84.91,0,0,1-34.31-4.91,113.42,113.42,0,0,1-35.51-19.93C20.16,158.82,9,142.92,3.42,123.32A89.3,89.3,0,0,1,0,99.18Zm110.74,21.66c.23.46-.1.8-.24,1.15q-3.52,8.58-7.09,17.16a6.91,6.91,0,0,0-.54,2.27c-.28,4.82-.55,9.65-.89,14.47-.14,2-1.16,3.82-1.7,5.75a33.06,33.06,0,0,0-1.34,4.59c-.71,5.67-1.45,11.34-2.17,17-.51,4-1,8-1.52,11.95-.12.88.15,1.15,1,1.13,1.36,0,2.73,0,4.08.07.85.06,1.29-.15,1.24-1.07a7,7,0,0,1,.07-1q.56-6.62,1.1-13.24c.59-7,1.17-14,1.79-21a34.89,34.89,0,0,1,.66-6.39,46.49,46.49,0,0,1,2.42-6.28c3.87-8.59,7.8-17.15,11.72-25.72.15-.31.17-.74.65-.9.16.46-.14.79-.3,1.13-3.94,8.67-7.94,17.32-11.83,26a26.17,26.17,0,0,0-2.45,6.9c-.38,2.66-.48,5.36-.71,8l-1.56,18.52q-.6,7.13-1.19,14.25c0,.22-.14.48.12.65a2.3,2.3,0,0,0,2.57-.86q2.79-7.72,5.59-15.44a6,6,0,0,0,.36-2.1c0-5.83.07-11.65,0-17.48a16.25,16.25,0,0,1,1.52-7.26c4.25-9.32,8.37-18.69,12.52-28,.33-.75.55-.81,1.19-.29,1.79,1.46,3.63,2.88,5.49,4.26a1.47,1.47,0,0,1,.65,1.45c-.45,6.73-.86,13.46-1.34,20.18a16.9,16.9,0,0,1-.5,4.35c-1.43,4.22-2.81,8.45-4.19,12.69-2.74,8.48-5.86,16.83-7.79,25.56,0,.23.05.65-.47.7a2.13,2.13,0,0,1,0-.51c.78-3.06,1.43-6.17,2.39-9.18,3-9.27,6-18.49,9.07-27.74a13.17,13.17,0,0,0,.92-3.33q.73-11.25,1.49-22.52a1.48,1.48,0,0,0-.68-1.45c-1.61-1.2-3.21-2.42-4.76-3.7-.71-.58-1-.58-1.37.33q-6.63,15-13.36,30a4,4,0,0,0-.35,1.68c0,6.33,0,12.67,0,19a13.76,13.76,0,0,1-.83,4.88c-1.68,4.6-3.25,9.23-4.9,13.85-.22.62-.18.88.55.8,1.08-.13,2.16-.25,3.25-.34a.73.73,0,0,0,.71-.59c1.52-5.15,3.27-10.25,4.52-15.47,1.59-6.61,2.75-13.32,4.13-20a48.69,48.69,0,0,1,1.65-7.46c1.49-4,3.12-7.9,4.7-11.85.08-.18.1-.44.42-.52a4.52,4.52,0,0,1,.09.53c.22,2.51.34,5,.65,7.53.44,3.45.49,6.83-1,10.07a5.15,5.15,0,0,0-.3.86c-1.87,6.32-4.49,12.4-5.35,19-.47,3.63-1.87,7.09-2.82,10.64-.56,2.08-1.15,4.15-1.76,6.37a82.42,82.42,0,0,0,9.85-2.43c.19-.06.35-.09.43-.35.38-1.34.86-2.65,1.21-4q3.85-14.86,7.67-29.75a45.41,45.41,0,0,0,1.72-7.13c.71-7.66,1.21-15.34,2-23,.25-2.48.12-4.69-1.52-6.66-.18-.21-.54-.47-.14-1,.66,1.08,1.27,2.12,1.92,3.12a2.44,2.44,0,0,1,.39,1.64c-.62,7.19-1.2,14.38-1.83,21.57a35,35,0,0,1-.6,5.68q-4.5,17.59-9.07,35.18c-.38,1.45-.86,2.88-1.35,4.5,1.79-.65,3.38-1.24,5-1.78a1.62,1.62,0,0,0,1.06-1.11c1.4-3.76,2.86-7.5,4.26-11.26a46.88,46.88,0,0,0,2.42-6.92c.78-3.8,1.51-7.61,2.34-11.39a340.52,340.52,0,0,0,6.06-36,12,12,0,0,1,.57-3.16,1.75,1.75,0,0,1,.1,1.31c-.31,2.36-.62,4.73-.94,7.09-.59,4.38-1,8.8-1.82,13.14-1.4,7.6-3,15.15-4.59,22.71-.65,3.06-1,6.18-2.12,9.13-1.86,4.93-3.74,9.86-5.6,14.79a1.48,1.48,0,0,0-.22,1.1c1.38-.62,2.71-1.25,4.06-1.79A1.75,1.75,0,0,0,137,186.8c.88-3.74,1.62-7.53,2.76-11.19,3.68-11.85,7.39-23.7,11.34-35.47,1.87-5.55,3.17-11.09,2.64-17a8.28,8.28,0,0,1,0-1.22c0-.2-.11-.49.22-.58.24.14.17.36.17.55,0,3.17,0,6.34,0,9.5a3.82,3.82,0,0,1-.21,1.1c-2.42,7.58-4.89,15.14-7.25,22.74-3,9.55-6.46,18.94-8.57,28.73a19.9,19.9,0,0,0-.71,3.47c2.94-1.42,5.65-3,8.33-4.6a2.2,2.2,0,0,0,1-1.32c3.41-10.52,6.85-21,10.24-31.54a41.6,41.6,0,0,0,2.13-7.12c.95-6.92,1.8-13.84,2.71-20.76,0-.35,0-.78.33-1.09.31.29.17.57.14.83-.66,5.16-1.3,10.33-2,15.49-.33,2.39-.33,4.85-1.08,7.15-3.87,12.05-7.81,24.07-11.71,36.1-.12.37-.38.74-.2,1.23.28-.17.54-.31.79-.48a108,108,0,0,0,10.53-7.91,3.77,3.77,0,0,0,1.1-1.55q3.23-8.59,6.48-17.19a4.14,4.14,0,0,0,.28-1c.29-2.5.56-5,.83-7.51.65-5.89,1.34-11.77,1.94-17.67a49.08,49.08,0,0,0,.65-8.13c-.15-2.27-.17-4.56-.39-6.83-.16-1.71.11-3.47-.56-5.14-1.65-4.07-3.21-8.17-4.94-12.21a5.23,5.23,0,0,1-.09-4.33c1.52-4,3.16-7.91,4.31-12,.89-3.18,1.56-6.41,2.33-9.62.06-.24,0-.57.44-.64a7.74,7.74,0,0,1-.43,2.26c-.76,3.21-1.35,6.48-2.35,9.61-1.28,4-2.9,7.92-4.39,11.86a1.69,1.69,0,0,0,0,1.36q2.09,5.1,4.13,10.22a19.59,19.59,0,0,1,1.9,7.12c.05,4.93.68,9.83,0,14.78-1,7.22-1.6,14.48-2.45,21.72-.27,2.32-.25,4.69-1.07,6.93-1.81,5-3.58,9.92-5.35,14.89-.11.3-.34.59-.21,1,1.63-1.34,3.06-2.84,4.54-4.28a3.71,3.71,0,0,0,.94-1.54c2.95-9,5.77-18.15,8.93-27.13a36,36,0,0,0,2.3-15.07,1.87,1.87,0,0,1,0-.41,5,5,0,0,0-.92-3.66,1.91,1.91,0,0,1-.32-1c-.34-6-.73-12.1-1-18.15a36.22,36.22,0,0,0-1.79-10.72c-.94-2.62-1.62-5.33-2.42-8A2.14,2.14,0,0,1,171,80c3.22-10,6.41-20.09,9.64-30.12a2,2,0,0,0-.19-1.9,104.6,104.6,0,0,0-6.5-9.53c-.32-.42-.54-1.11-1.33-.78s-1.78.25-2.07,1.55q-4.34,19.32-8.81,38.6a11.58,11.58,0,0,1-.8,2.87,1,1,0,0,1-.06-1C163.93,66.35,167,53,170,39.56c.29-1.31.81-2,2.07-2.15.69-.1.75-.35.29-.9-1.61-1.94-3.25-3.85-5-5.67A10.22,10.22,0,0,0,165.47,29c-1.29,4.56-3.22,8.88-2.65,13.7a2.15,2.15,0,0,1-.45,1.42c-1.72,2.74-3.42,5.5-5.13,8.24a3.76,3.76,0,0,0-.56,1.41c-.35,2.59-.72,5.19-1.09,7.78Q154.29,70.77,153,80c0,.22.11.58-.32.63a1.6,1.6,0,0,1,0-1.1c1.06-7.55,2.17-15.09,3.17-22.65A14.06,14.06,0,0,1,158.17,50c1.35-1.84,2.41-3.87,3.64-5.79a3.23,3.23,0,0,0,.6-2.1,20.08,20.08,0,0,1,1.25-8.61c.49-1.37.85-2.8,1.26-4.2.1-.31.32-.67,0-1a51.84,51.84,0,0,0-4.54-4.17c-.13.37-.22.62-.3.88q-5.24,17.38-10.47,34.78a15.5,15.5,0,0,0-1,3.74q-.34,7.65-.68,15.3c0,.32,0,.66-.29.9-.26-.18-.15-.39-.14-.58.18-4.11.32-8.23.57-12.34a20.59,20.59,0,0,1,.38-4.77c1-3.26,2-6.51,2.95-9.77l8.34-27.64c.11-.38.38-.77,0-1.13-1.65-1.39-3.32-2.76-5.13-4.06a4.81,4.81,0,0,0-.22.72c-1.45,7.51-2.91,15-4.33,22.55-.42,2.19-.09,4.42-.19,6.63,0,.32.14.71-.38,1.09,0-2.59-.31-5.06.13-7.46,1.39-7.73,2.91-15.44,4.42-23.16a1,1,0,0,0-.47-1.17c-1.33-.88-2.66-1.77-4-2.71-.66-.47-.86-.35-1,.44Q146,31.72,143.25,47c-.1.58,0,1.27-.49,1.78-.29-.21-.16-.42-.13-.6l2.46-14q1.6-9.09,3.19-18.19c.06-.32.29-.68-.12-.92-1.67-1-3.32-2.07-5.2-3a295.89,295.89,0,0,1-2.87,34.72c-1.59,11.25-6.27,32.87-7.55,33.84l1.32-5A277.49,277.49,0,0,0,140,44.21q1.4-10.17,2-20.42c.23-3.71.32-7.42.47-11.12,0-.43.09-.86-.46-1.12-1.29-.6-2.57-1.25-3.84-1.9-.51-.27-.62-.09-.66.42-.12,1.76-.28,3.53-.42,5.29q-1.64,20-3.28,40a31.54,31.54,0,0,1-.6,5.57q-2.51,9.42-5.05,18.82a1.4,1.4,0,0,1-.44.92c-.27-.49,0-.87.1-1.22,1-3.91,2.1-7.82,3.14-11.73a59.68,59.68,0,0,0,2-8c.64-5.16.9-10.38,1.32-15.57l1.56-18.83q.63-7.68,1.27-15.37c0-.47,0-.84-.53-1.05-1.83-.73-3.65-1.49-5.47-2.26-.61-.25-.75,0-.77.56,0,1.94-.13,3.88-.22,5.82-.39,9.38-.77,18.77-1.2,28.16-.24,5.25-.2,10.49-1.78,15.65-2.29,7.47-4.15,15.08-6.22,22.62-.11.38,0,1-.71,1.19.09-.4.14-.69.21-1,2.13-7.82,4.27-15.62,6.37-23.44a26.64,26.64,0,0,0,1.34-5.54c.31-6.9.57-13.81.86-20.72q.47-11.43,1-22.85c0-.64-.09-1-.77-1.18-1.79-.52-3.57-1.12-5.34-1.71-.65-.22-.86-.08-.93.63-.57,5.59-1.18,11.18-1.77,16.76q-1,9.14-1.95,18.28C118.64,46,118,52.1,117.35,58.19c-.33,3.11-.52,6.26-1.1,9.33-.73,4-1.79,7.89-2.71,11.83a2.31,2.31,0,0,1-.45,1.28c-.31-.23-.15-.47-.1-.68.34-1.49.71-3,1-4.48.71-3.36,1.78-6.64,2.15-10.07.59-5.35,1.14-10.7,1.71-16.05L120,29.14c.8-7.51,1.58-15,2.41-22.54.29-2.71.33-2.65-2.26-3.38-1-.28-1.24,0-1.4.93q-2.86,18-5.8,35.88c-2.12,12.9-4.31,25.78-5.69,38.79a3.05,3.05,0,0,1-.46,1.86,6.29,6.29,0,0,1,.13-2.43c.65-5.34,1.25-10.68,2-16,.73-5.12,1.64-10.22,2.47-15.32q2.2-13.56,4.4-27.11c.88-5.4,1.75-10.81,2.65-16.22.1-.58,0-.79-.61-.88-1.2-.21-2.4-.46-3.59-.74-.65-.16-.82.08-.89.69-.21,1.92-.49,3.85-.73,5.77q-1.48,11.76-3,23.51-1.59,12.56-3.18,25.12Q105.16,68,103.79,79c-.07.54-.18,1.08-.27,1.62a3.92,3.92,0,0,1,0-2.37l2.94-23.51q1.59-12.51,3.18-25Q111.21,16.85,112.83,4c.29-2.25.31-2.25-2-2.57a.79.79,0,0,1-.2,0c-.7-.26-.86.09-.92.73-.29,2.91-.63,5.82-.94,8.73Q107.62,22,106.47,33c-.87,8.2-1.73,16.39-2.63,24.58a32.65,32.65,0,0,1-.73,5.76c-1.62,5.52-3.32,11-5,16.51-.08.26,0,.63-.47.73-.21-.4,0-.74.14-1.07.91-3,1.87-6.05,2.76-9.08.79-2.71,2-5.34,2.33-8.13,1-8,1.77-16.11,2.63-24.17Q107.33,21,109.16,3.84c.27-2.55.3-2.54-2.19-2.86-.24,0-.47-.06-.71-.07-1.41-.1-1.38-.09-1.58,1.33q-1.56,11.28-3.14,22.55C100.41,32.85,99.29,40.9,98.12,49c-.21,1.44,0,3-.79,4.29a68.54,68.54,0,0,1-9.55,13.33.9.9,0,0,1-1.14.29c-5.56-2.13-11.15-4.17-16.67-6.4a2.58,2.58,0,0,1-1.49-1.41C66,53.7,63.9,48.21,61.71,42.75a5.11,5.11,0,0,1-.27-1.09q-1.36-9.81-2.74-19.61Q57.88,16.13,57,10.21c0-.23.05-.58-.36-.6A1.83,1.83,0,0,0,55,11.38q.7,5.47,1.42,10.94Q58,34.57,59.57,46.83t3.22,24.81c.39,3,.47,6.06,2.3,8.67,0,.07.1.19-.22.38a13.35,13.35,0,0,1-1.8-3.82c-.35-1.7-.46-3.44-.69-5.16L59.44,48.92Q58,37.47,56.46,26c-.63-4.87-1.26-9.73-1.86-14.59-.09-.7-.33-.79-.9-.44a18.66,18.66,0,0,1-1.71.91.79.79,0,0,0-.54.95c.17,1.21.24,2.43.37,3.65.71,6.81,1.44,13.61,2.15,20.42s1.41,13.61,2.12,20.42q1.15,11,2.33,22c0,.14.07.35-.21.38-.27-.21-.24-.54-.27-.82Q57,70,56.06,61L53.93,40.46,51.74,19.63c-.22-2.1-.42-4.2-.66-6.29,0-.26.09-.84-.46-.62s-1.36.55-1.29,1.64c.29,5,.48,9.93.72,14.89.17,3.71.22,7.42.55,11.12.47,5.32,1.15,10.62,1.73,15.94.73,6.73,1.48,13.47,2.18,20.2a8.66,8.66,0,0,1,.09,3.25c-1.34-11-2.43-21.93-3.74-32.89s-1.18-22-2-33.28c-.77.82-2.06.7-2,2.13q.9,15.09,1.72,30.18.93,16.47,1.83,32.94c0,.31.16.65-.36.94q-1.8-32.23-3.6-64.57c-1.31.64-2.22,1.2-2.23,2.81,0,2.55-.36,5.09-.56,7.64-.6,7.29-1.22,14.59-1.77,21.89A31.75,31.75,0,0,1,40,56.75c-.76-.52-1.43-1-2.17-1.46a2.74,2.74,0,0,1-1.3-1.82C34.47,46.31,32.37,39.16,30.29,32c-.3-1-.61-2-.94-3.15A28.71,28.71,0,0,0,27,31.17a1.3,1.3,0,0,0-.38,1.37c.65,2.82,1.26,5.65,1.89,8.47q4.66,20.66,9.33,41.31c.06.3.35.61-.14,1.12-4-17.11-7.76-34.12-11.59-51.32-.85,1-1.51,1.8-2.24,2.55a1.8,1.8,0,0,0-.46,1.84c1,4.72,2.11,9.43,2.94,14.18,1.7,9.65,3.26,19.33,4.87,29A1.19,1.19,0,0,1,31,80.82c-2.65-15.06-4.62-30-8.2-44.88-.95,1.22-1.78,2.33-2.66,3.4a1.48,1.48,0,0,0-.3,1.41C21,46.06,22,51.42,23,56.77c1.28,6.57,2.86,13.11,3,19.85A11.75,11.75,0,0,0,28.63,84a18.14,18.14,0,0,1,1.05,1.63c.12.19.32.38.09.63-.39-.08-.47-.46-.65-.73-.82-1.25-1.59-2.54-2.44-3.77a4.47,4.47,0,0,1-.84-2.36c-.06-1.15-.15-2.31-.27-3.46a81.92,81.92,0,0,0-.87-8.73c-1.3-6.16-2.43-12.35-3.62-18.53C20.56,46,20,43.35,19.37,40.44a59.14,59.14,0,0,0-3.41,5,.91.91,0,0,0,0,.59,68.8,68.8,0,0,0,1.62,7.27,48.71,48.71,0,0,1,2,8.94c1,8.82,2.2,17.63,2.39,26.53.07,3.23.54,6.46.34,9.69-.4,6.76-.92,13.52-1.39,20.28a2.28,2.28,0,0,0,0,1,2.18,2.18,0,0,1-.69,2.79,1.51,1.51,0,0,0-.25,1.9c1.86,4.53,3.7,9.07,5.47,13.64,1.12,2.9,2.5,5.69,2.83,8.89.64,6.27,1.54,12.5,2.32,18.75a1.84,1.84,0,0,0,.61,1.22c2.47,2.25,5,4.43,7.65,6.47.16.12.29.37.59.25a2.31,2.31,0,0,0,0-.32,183.7,183.7,0,0,1-4.68-28c-.17-1.91,0-3.86-.78-5.73-2-5.05-4-10.12-6-15.19a21.13,21.13,0,0,1-1.51-4.11c-.65-3.89-1.23-7.8-1.85-11.7a2.24,2.24,0,0,1,.23-1.37c1.51-3.13,3-6.26,4.51-9.38.09-.19.09-.6.53-.46.14.34-.12.58-.25.83q-2.1,4.42-4.24,8.84a2.82,2.82,0,0,0-.3,1.84c.36,1.94.55,3.91.92,5.85.48,2.46.54,5,1.5,7.38,2.28,5.68,4.46,11.4,6.73,17.09a10.19,10.19,0,0,1,.68,3.06c.14,1.7.28,3.39.44,5.09A177.74,177.74,0,0,0,39.9,173.6a1.41,1.41,0,0,0,.42.91l4.77,3.43c-.38-1.85-.73-3.41-1-5-.43-2.38-1.27-4.7-1.29-7.12-.07-6.37,0-12.74,0-19.11,0-.28,0-.56,0-.83,1.23,2.56,2.31,5.13,3.4,7.69,2.05,4.82,3.86,9.75,6.82,14.13a14.82,14.82,0,0,1,1.63,2.83c2,5.08,4.49,10,5.79,15.35a1.57,1.57,0,0,0,1,1.19c3,1.36,6.06,2.6,9.15,3.75.89.33.88,0,.76-.71q-2.88-15.6-5.76-31.22a3.1,3.1,0,0,0-.49-1.67c-.48,6.51-.94,12.84-1.43,19.47-2.21-2.62-4.15-5-6.2-7.35a16.25,16.25,0,0,1-2.9-4.85c-2.45-6.15-4.42-12.53-8.17-18.09a.41.41,0,0,1,0-.09c-4.13-8.13-8-16.38-11.85-24.65-.12-.26-.48-.53-.12-.9.28.08.31.34.4.54,1,2.18,2,4.38,3.08,6.55,3.72,7.77,7.18,15.66,11.66,23a14.18,14.18,0,0,1,1,2.12q2.59,6.6,5.19,13.19a4.23,4.23,0,0,0,.72,1.23l6.11,7.27c.2.24.34.6.81.63l1.56-21.22A39.72,39.72,0,0,1,66,159q2.89,15.76,5.78,31.53a1,1,0,0,0,.74,1A89,89,0,0,0,92.74,196c1.93.17,2,.14,2.23-1.83,1-7.87,2-15.74,3-23.6a35.21,35.21,0,0,1,.91-6c.75-2.4,1.58-4.78,2.39-7.16a6.24,6.24,0,0,0,.33-1.7c.23-3.81.4-7.62.71-11.42.14-1.68-.08-3.4.61-5q3.66-8.74,7.27-17.52C110.32,121.36,110.32,121,110.74,120.84ZM57.37,9.55c.14,1,.26,1.92.38,2.79q1.7,12.09,3.4,24.17c.3,2.05.27,4.19,1,6.13q3,8,6.51,15.85a3,3,0,0,0,1.84,1.74q8,3,15.91,6.1c.64.25.94,0,1.36-.4A66.88,66.88,0,0,0,96,54.66a10.91,10.91,0,0,0,1.55-4.46c1-7.52,2.09-15,3.14-22.55Q102.49,15,104.27,2.27c.22-1.52.19-1.52-1.39-1.59A6.87,6.87,0,0,1,101.76.6c-.73-.14-.93.13-1,.85-.3,3.59-.56,7.19-1,10.77-.44,3.37-1.13,6.71-1.73,10.06a39.73,39.73,0,0,1-1.14,6c-1.2,3.47-2.71,6.83-4.08,10.23a1.7,1.7,0,0,1-.7.84q-3.11,2-6.2,4a1.34,1.34,0,0,1-1.14.21c-1.73-.37-3.48-.67-5.2-1a1.62,1.62,0,0,0-1.43.3c-1.19.85-2.42,1.64-3.6,2.51-.47.34-.7.31-1-.21-.66-1.15-1.47-2.22-2.06-3.4A5.89,5.89,0,0,0,68,38.49,2,2,0,0,1,66.65,37c-1.72-5.28-3.49-10.53-5.21-15.8-.94-2.9-2.16-5.74-2.06-8.89a18.12,18.12,0,0,0-.16-2.75c0-.3.24-1-.43-.86S57.48,8.86,57.37,9.55Zm109.84,155.2.24.2c1.24-1.43,2.55-2.81,3.72-4.29,3.57-4.49,7.47-8.78,9.13-14.48a47.08,47.08,0,0,0,1.63-4.72c.63-3.61,1-7.28,1.5-10.91.63-4.38.89-8.81,2.07-13.09a8.05,8.05,0,0,0,.24-3.62c-.44-2.55-.74-5.12-1.1-7.68q-1.69-11.86-3.39-23.74a7.56,7.56,0,0,1,.14-3.5c1.59-5,3.09-10.07,4.64-15.11a3.44,3.44,0,0,0,0-2.08c-.58-2-1-4-1.66-6a36.86,36.86,0,0,0-3.16-6.27c-.15.39-.25.61-.32.83q-4.74,14.82-9.47,29.63a2.45,2.45,0,0,0,0,1.49c.89,2.93,1.76,5.86,2.63,8.79a26.89,26.89,0,0,1,1.35,6.36c.29,6.46.72,12.91,1.07,19.37.09,1.64.17,3.26,1.22,4.63a1.65,1.65,0,0,1,.16,1.09c0,2.93,0,5.86,0,8.79a5.46,5.46,0,0,1-.27,1.8q-3.65,11.31-7.27,22.63ZM30,165.72a2.26,2.26,0,0,0,.05-1.25c-.67-5.33-1.31-10.67-2-16a22.36,22.36,0,0,0-1.09-5.69c-2.55-6.19-5-12.43-7.48-18.65-.14-.36-.5-.74-.11-1.12,1.13-1.13,1.22-2.42,1.24-4,.07-4.35.57-8.69.84-13a90.57,90.57,0,0,0,.51-9.17c-.37-8.33-.58-16.67-1.67-25-.55-4.15-.76-8.33-1.59-12.45C18,56.16,16.93,53,16.27,49.8c-.23-1.14-.49-2.28-.79-3.69-1.75,3.18-4.4,5.73-3.21,9.6,0,0,0,.06,0,.1.65,6.19,1.35,12.38,1.94,18.58.28,2.93,1,5.85.3,8.82a3.8,3.8,0,0,0-.14,1.31Q15.57,96.25,16.73,108a4.05,4.05,0,0,1-.34,2.17c-1,2.2-2,4.42-2.92,6.63a1.82,1.82,0,0,0-.27,1.07c.21,1.31.32,2.64.63,3.93q4.32,17.64,8.71,35.26A2.8,2.8,0,0,0,23,158.3,97.54,97.54,0,0,0,30,165.72ZM59.77,11.88c.27,1.41,0,2.93.51,4.39q3.36,10.07,6.63,20.15a2.47,2.47,0,0,0,1.63,1.88,5.14,5.14,0,0,1,3.06,2.79c.62,1.17,1.39,2.26,2.06,3.41.27.44.49.54,1,.2,1-.76,2.15-1.44,3.17-2.23a2.19,2.19,0,0,1,2-.37c1.53.34,3.07.59,4.6.93a2.08,2.08,0,0,0,1.72-.35c1.78-1.19,3.59-2.34,5.41-3.47a2.51,2.51,0,0,0,1.07-1.29q1.77-4.45,3.58-8.9a9,9,0,0,0,.59-1.84c.56-3.32,1.08-6.65,1.75-9.95,1.06-5.26,1.37-10.59,1.9-15.9.06-.62-.12-.85-.76-.83-1.88.05-3.75.07-5.62,0-.73,0-1,.21-1,1-1.06,10.33-2.16,20.65-3.22,31a3.14,3.14,0,0,1-1.58,2.83,14.86,14.86,0,0,0-2.38,1.75,1.72,1.72,0,0,1-1.69.37c-1.32-.34-2.64-.67-4-.92a2,2,0,0,1-1.56-1.12c-2.57-4.6-5.18-9.18-7.79-13.77S65.57,12.44,63,7.86c-.15-.26-.23-.79-.64-.67a11.77,11.77,0,0,0-2.53,1.06c-.54.33-.09,1-.11,1.53C59.65,10.46,59.73,11.14,59.77,11.88ZM180.33,147.47a92.07,92.07,0,0,0,13.92-46.75,95.7,95.7,0,0,0-8.52-42.19,17.27,17.27,0,0,0,.68,2.84,4.34,4.34,0,0,1,0,2.78c-1.45,4.61-2.78,9.25-4.25,13.85a8.83,8.83,0,0,0-.39,4.88c.24,1,.29,2,.44,3,1.2,8.42,2.36,16.84,3.63,25.25.41,2.76.7,5.45-.31,8.13a9.11,9.11,0,0,0-.41,1.79c-.64,4.79-1.3,9.57-1.88,14.37-.47,3.82-1,7.62-2.59,11.17A8.45,8.45,0,0,0,180.33,147.47ZM22.08,157c-1.46-5.91-3-11.8-4.36-17.72-1.64-7-3.81-13.9-4.89-21.05a2.42,2.42,0,0,1,.19-1.46c1.05-2.33,2.06-4.67,3.09-7a2.32,2.32,0,0,0,.25-1.27Q15.48,99.71,14.61,91c-.23-2.3-.8-4.65-.56-6.9a39.57,39.57,0,0,0-.1-8.43c-.74-6.8-1.42-13.61-2.13-20.41-.06-.62-.16-1.23-.28-2.14a67.74,67.74,0,0,0-3,6.13,10,10,0,0,0-1.13,2.94,40.8,40.8,0,0,0-.25,6.72c.48,5.74,1.09,11.46,1.25,17.21.11,4,.6,8,.44,12C8.62,105.07,8,112,7.48,118.91a4.79,4.79,0,0,0,.16,1.81c1.23,4.17,2.49,8.34,3.68,12.53s2.75,8.47,3.61,12.85a7,7,0,0,0,.63,2.34A54.51,54.51,0,0,0,22.08,157ZM84.63,37.11c.22.07.45-.07.68-.24,1.14-.85,2.28-1.72,3.45-2.55a1.18,1.18,0,0,0,.45-1c.27-2.67.55-5.35.84-8q1.26-12,2.54-23.95c.07-.62-.12-.78-.71-.72-1.18.11-2.37.19-3.56.24-.61,0-.77.31-.84.88-.37,2.87-.81,5.73-1.15,8.6a2.1,2.1,0,0,1-.85,1.51c-1.44,1.15-2.83,2.35-4.25,3.53-.94.78-1.8,1.95-2.87,2.19s-2.31-.78-3.5-1.17a1.81,1.81,0,0,1-1.19-1.13c-1.42-3.24-2.91-6.45-4.31-9.7-.3-.7-.62-.81-1.29-.55Q66,5.85,63.93,6.51c-.65.2-.76.43-.41,1Q71.29,21.41,79,35.26c.16.29.29.62.68.7ZM14.47,146.59a20.52,20.52,0,0,0-.42-2.72q-3.41-11.38-6.75-22.78a4.32,4.32,0,0,1-.29-1.6c.18-2.17.36-4.34.47-6.51.39-7.16,1.34-14.29.8-21.5-.37-5.08-.39-10.19-.84-15.28a69.47,69.47,0,0,1-.63-10.59,3.92,3.92,0,0,0-.06-1.91A97.57,97.57,0,0,0,1,108.82,86.8,86.8,0,0,0,14.47,146.59Zm45.69,39.93A48,48,0,0,0,57.71,179c-1.84-4.34-3.37-8.83-6-12.81a29.93,29.93,0,0,1-2.89-5.38c-1.63-4-3.34-8-5-12-.12-.28-.16-.64-.57-.87,0,.26,0,.42,0,.58q0,8.7,0,17.38a4.36,4.36,0,0,0,.07.81q1.08,5.36,2.18,10.7c.06.3.06.66.34.83,1.38.91,2.78,1.8,4.36,2.8-.62-4.77-1.21-9.3-1.82-14.07.24.45.38.68.49.92l7.11,15.71c.16.34.22.76.57.95C57.63,185.24,58.8,185.82,60.16,186.52ZM125,141.78l-.22-.05c-.89,2.23-1.79,4.46-2.66,6.69a38.32,38.32,0,0,0-2,5.25c-1,4.1-1.67,8.27-2.55,12.39-1.36,6.34-2.26,12.79-4.28,19-1,3.16-1.94,6.37-2.89,9.56-.33,1.08-.32,1.09.84.95.7-.09,1.4-.27,2.11-.33a1,1,0,0,0,1-.91c.32-1.32.74-2.61,1.09-3.92,1.14-4.24,2.54-8.4,3.47-12.69.44-2,.47-4.06,1.1-6,1.87-5.82,3.78-11.63,5.67-17.45a3,3,0,0,0,.24-1.09Q125.46,147.48,125,141.78ZM86.53,1.11l-.24,0A102.19,102.19,0,0,0,70.22,4.4c-.75.21-.76.52-.47,1.14,1.11,2.4,2.34,4.77,3.22,7.26a5.9,5.9,0,0,0,4.51,4.25.66.66,0,0,1,.2.06c.42.27.74.12,1.09-.18,2.18-1.84,4.38-3.67,6.57-5.5a1.25,1.25,0,0,0,.55-.82q.58-4.45,1.2-8.89C87.16,1.2,87,1,86.53,1.11ZM38.13,47.36a42.14,42.14,0,0,1-2-5C35,37.64,33.86,33,32.7,28.27c-.54-2.2-.52-2.17-2.21-.68a1.59,1.59,0,0,0-.5,1.93c2.24,7.6,4.46,15.2,6.61,22.82A4.87,4.87,0,0,0,39,55.56c.7.41.89.4,1.16-.38a41.47,41.47,0,0,0,1.59-10.25q.9-11.15,1.8-22.28c.16-1.88.29-3.76.46-5.91l-2.5,1.76c-.25.17-.17.41-.18.65-.2,5.37-.46,10.74-.59,16.11C40.6,39.42,40.44,43.55,38.13,47.36ZM34.41,24.19c-2,1.33-2,1.33-1.47,3.39,1,3.93,2,7.86,2.92,11.79a26.63,26.63,0,0,0,2.41,7c.64-2.19,1.78-4,1.83-6.24.11-4.77.37-9.53.52-14.29.07-2.22,0-4.44,0-6.67-.85.51-1.66,1-1.68,2.36,0,2.62-.36,5.23-.51,7.85a24.42,24.42,0,0,1-1.18,5.93C36.27,31.44,35.35,27.84,34.41,24.19Zm14.9,146-.17.06q.72,5.34,1.43,10.68a.84.84,0,0,0,.4.68l4.31,2.44.18-.17ZM37.17,33.24h.29c.85-4.09.71-8.27,1.21-12.71-1.43,1.18-2.89,2-3.71,3.23-.53.79.38,2.1.6,3.19a1.42,1.42,0,0,0,0,.2C36.12,29.18,36.65,31.21,37.17,33.24Z"/><path class="cls-1" d="M60.19,120.73A18.25,18.25,0,0,1,61.1,124q5.75,23.85,11.44,47.72a2,2,0,0,0,.7,1.18q3.36,2.76,6.68,5.55a1.76,1.76,0,0,0,1.21.44c2.38,0,4.77,0,7.15,0a1,1,0,0,0,1.1-.76c.86-2.9,1.82-5.77,2.64-8.68a30,30,0,0,0,.6-5.27c.72-7.59,1.4-15.18,2.1-22.77a3.49,3.49,0,0,1,.18-.79q3.18-9.6,6.39-19.17c.07-.23.09-.53.39-.68.32.47,0,.84-.13,1.18q-3,9-6,18a26.63,26.63,0,0,0-.83,6.15c-.74,7.55-1.4,15.11-2.1,22.67a5.73,5.73,0,0,1-.24,1.09c-.88,2.83-1.77,5.65-2.62,8.48-.21.68-.48,1-1.26,1-2.49-.06-5,0-7.46,0a1.85,1.85,0,0,1-1.3-.45c-2.26-1.91-4.55-3.79-6.83-5.68a1.92,1.92,0,0,1-.71-1.07q-6.06-25.37-12.14-50.7A.62.62,0,0,1,60.19,120.73Z"/><path class="cls-1" d="M96.69,120.68a15.34,15.34,0,0,1-.57,3.48c-1.15,4-2.34,8-3.53,11.93a4.25,4.25,0,0,1-.48,1c-2.84,4.8-5.71,9.59-8.54,14.41-.34.56-.61.74-1.27.49-2.26-.86-4.53-1.67-6.82-2.46a2.1,2.1,0,0,1-1.13-.94q-3-4.8-6.07-9.58a3.36,3.36,0,0,1-.49-1.32q-1.44-8.19-2.86-16.39c0-.16-.1-.33.2-.46a1.48,1.48,0,0,1,.3.88q1.35,7.84,2.72,15.68a4.24,4.24,0,0,0,.62,1.6q3,4.61,5.86,9.23a2.23,2.23,0,0,0,1.23,1q3.14,1.07,6.23,2.24c.58.22.9.2,1.24-.38,2.83-4.82,5.76-9.57,8.51-14.43,1.07-1.88,1.38-4.11,2-6.2a61.52,61.52,0,0,0,2.44-9.16A.59.59,0,0,1,96.69,120.68Z"/><path class="cls-1" d="M43.89,120.85c5.52,9.64,11,19.31,16.21,29.38,1.07-2.28,2-4.33,3-6.39.16-.36-.1-.73-.2-1.08Q59.82,132.38,56.76,122c-.11-.36-.38-.73-.16-1.21.38.11.36.46.43.7q3.21,10.81,6.4,21.62a1.4,1.4,0,0,1,0,1.08c-1.08,2.23-2.12,4.48-3.3,7C54.76,140.89,49.16,131,43.89,120.85Z"/><path class="cls-1" d="M32.37,46.83c3.14,10.48,6.27,21,9.46,31.61.85-.7,1.61-1.3,2.34-1.94.36-.31.2-.77.2-1.17q0-13.59,0-27.18a2.25,2.25,0,0,1,.13-1.22c.41.16.25.51.25.76q0,14.12,0,28.21A1.29,1.29,0,0,1,44.25,77c-.86.65-1.69,1.36-2.64,2.14C38.37,68.35,35.18,57.65,32,47Z"/><path class="cls-1" d="M90.92,80.67c-.19-.5.1-.8.23-1.13,3.24-8,6.47-16,9.75-24a14.11,14.11,0,0,0,.7-4.2c.87-8.3,1.69-16.6,2.52-24.89,0-.2,0-.42.23-.55.37.15.18.45.16.68l-1.77,17.68c-.3,3-.63,5.89-.89,8.84a10.05,10.05,0,0,1-.69,3q-4.81,11.81-9.62,23.63C91.41,80,91.38,80.41,90.92,80.67Z"/><path class="cls-1" d="M145.77,76.87V53.62l-.29-.07-7.83,24.22-.38-.12q4.32-13.45,8.66-26.89l.11,0V76.86Z"/><path class="cls-1" d="M68.1,120.77c.46.25.46.66.59,1,1.64,4.32,3.28,8.65,4.89,13a3.43,3.43,0,0,0,1.1,1.55c1.28,1.07,2.57,2.13,3.78,3.28a8.64,8.64,0,0,0,3.35,1.85.62.62,0,0,0,.89-.33c2.06-3.57,4.18-7.1,6.2-10.69.58-1,.47-2.32.66-3.49.34-2,.61-4,1-6.23a1.12,1.12,0,0,1,.24,1.12c-.39,2.7-.8,5.39-1.2,8.08a2.59,2.59,0,0,1-.38.94c-2.06,3.53-4.12,7.05-6.15,10.6-.31.54-.58.63-1.2.47-1.89-.5-3.22-1.8-4.73-2.9a13.78,13.78,0,0,1-5.19-7.41c-1-3.31-2.4-6.5-3.62-9.75C68.17,121.52,67.93,121.23,68.1,120.77Z"/><path class="cls-1" d="M139,120.78a14.81,14.81,0,0,1,.41,3.15q.9,9.09,1.74,18.19a14.33,14.33,0,0,1-.61,4q-2.17,11.38-4.39,22.75a3.32,3.32,0,0,1-.38,1.08c-.32-.58,0-1.12.06-1.64q2.38-12.44,4.82-24.85a5.51,5.51,0,0,0,.08-1.52q-1-10.15-1.95-20.32C138.76,121.39,138.59,121.11,139,120.78Z"/><path class="cls-1" d="M46.14,80.54V34.74h.21v45.8Z"/><path class="cls-1" d="M76.75,80.55c-.58.23-.76-.1-1-.26-2.46-1.77-4.9-3.56-7.36-5.33a1.82,1.82,0,0,1-.76-1.14Q64.72,61.1,61.73,48.38c-.06-.25-.24-.5,0-.79.36.13.33.47.4.74Q65,60.75,67.9,73.17A2.65,2.65,0,0,0,69,74.89c2.31,1.63,4.58,3.31,6.87,5Z"/><path class="cls-1" d="M71,120.78A6.34,6.34,0,0,1,72.3,123c.26.57.48.59,1,.27,1.41-.94,2.86-1.83,4.35-2.78.51,1.18,1,2.28,1.46,3.42a3.12,3.12,0,0,0,1.52,1.64,5,5,0,0,0,5.21.25c1.67-.75,2.69-1.62,2.87-3.44a10.8,10.8,0,0,1,.44-1.68c.46.5.12.87.1,1.22-.15,2.47-1.52,3.73-3.83,4.54a5.64,5.64,0,0,1-4.27-.12c-2-.76-2.47-2.42-3.18-4-.52-1.18-.5-1.18-1.55-.52S74.15,123.21,73,124c-.45.3-.7.26-.9-.27A14.54,14.54,0,0,1,71,120.78Z"/><path class="cls-1" d="M114.77,121l-5.34,15.87-.39-.13,5.33-15.87Z"/><path class="cls-1" d="M100.31,80.51q1.43-5.94,2.84-11.88l.39.09q-1.41,5.94-2.83,11.88Z"/><path class="cls-1" d="M142.47,79.3H138.7v-.17h3.76Z"/><path class="cls-1" d="M92.22,85.76a10.63,10.63,0,1,0,10.63,10.63A10.64,10.64,0,0,0,92.22,85.76Zm0,17.17a6.55,6.55,0,1,1,6.54-6.54A6.55,6.55,0,0,1,92.22,102.93Z"/><path class="cls-1" d="M118,87.56V98.85l-7.89-12.06a1.38,1.38,0,0,0-1.16-.63H107.1a1.39,1.39,0,0,0-1.38,1.39v19.06h4.08V93.82l7.64,11.67a2.91,2.91,0,0,0,2.45,1.32h2.18V86.16h-2.69A1.4,1.4,0,0,0,118,87.56Z"/><path class="cls-1" d="M157.49,95.4l7.2-9.24h-3.6a3.28,3.28,0,0,0-2.57,1.26l-4.15,5.32V86.16h-2.88a1.2,1.2,0,0,0-1.2,1.21v18a1.2,1.2,0,0,0,1.2,1.2h1.68a1.2,1.2,0,0,0,1.2-1.2V98.08l5,7.14a3.25,3.25,0,0,0,2.66,1.39h3.34Z"/><path class="cls-1" d="M74.42,86.16H72.13a1.1,1.1,0,0,0-1,.73L66.59,99.48,62.24,86.9a1.09,1.09,0,0,0-1-.74h-2.3a1.09,1.09,0,0,0-1.07.91l-3.4,19.54h2.92a1.46,1.46,0,0,0,1.44-1.22l1.84-10.6,3.61,10.45a2,2,0,0,0,1.93,1.37H67a2,2,0,0,0,1.92-1.35l3.79-10.6,1.87,10.73A1.46,1.46,0,0,0,76,106.61h2.91l-3.4-19.54A1.09,1.09,0,0,0,74.42,86.16Z"/><path class="cls-1" d="M41.7,86.37H39.53a1.69,1.69,0,0,0-1.58,1l-8,19.16,9.81,0a1.12,1.12,0,0,0,1.14-1.13v-2a1.15,1.15,0,0,0-1.14-1.15H36.69l3.91-9.57,5.11,12.44a2.3,2.3,0,0,0,2.13,1.43h3.32L43.28,87.43A1.71,1.71,0,0,0,41.7,86.37Z"/><path class="cls-1" d="M137,86.37H134.8a1.7,1.7,0,0,0-1.58,1l-8,19.16,9.81,0a1.14,1.14,0,0,0,1.15-1.13v-2a1.15,1.15,0,0,0-1.14-1.15H132l3.9-9.57L141,105.18a2.32,2.32,0,0,0,2.13,1.43h3.32l-7.88-19.18A1.7,1.7,0,0,0,137,86.37Z"/></svg>