<?xml version="1.0" encoding="utf-8"?>
<!-- Generator: Adobe Illustrator 23.0.5, SVG Export Plug-In . SVG Version: 6.00 Build 0)  -->
<svg version="1.1" id="Home" xmlns="http://www.w3.org/2000/svg" xmlns:xlink="http://www.w3.org/1999/xlink" x="0px" y="0px"
	 viewBox="0 0 1685.3 754.8" style="enable-background:new 0 0 1685.3 754.8;" xml:space="preserve">
<style type="text/css">
	.st0{fill:#F1F1F1;}
	.st1{fill:none;}
	.st2{fill:#FFFFFF;}
</style>
<title>Amonak-Para desarrollo-Sección Banner principal</title>
<path class="st0" d="M1356.3,0.6c21.4,60.4,29.7,122.9,30.5,186.8c1.7-27.9,3.3-55.6,5-83.2c2.5-30.9,5.8-75.1-12.4-103.6
	L1356.3,0.6z"/>
<path class="st0" d="M566.2,182.5c0,0,10.8-35.4,23.9-44.6c0,0,1.7,15.5,2.9,31l-5.4-23.1C587.6,145.8,566.3,167.3,566.2,182.5z"/>
<path class="st0" d="M584.4,122.9c0,0,12.5-33.9,13.2-58.3c0,0,8.1,22.1,4.5,61.4l-4.5-37.3C597.6,88.6,604.3,95.8,584.4,122.9z"/>
<g>
	<path class="st0" d="M1303,755c0-0.1,0-0.2,0-0.2h0C1303,754.9,1303,755,1303,755z"/>
	<path class="st1" d="M0.4,86.9c-0.5-12.2-0.7-26.4,0.3-41.1V0.6h7.1h9.1H54h8.3h14.8h9.1h12.4c0,0,0,0,0,0h9.1c0,0,0,0,0,0h37.1v0
		h9.1v0h15.6c0,0,0,0,0,0h9.9c0,0,0,0,0,0h50.3h9.1h64.3v0h8.3v0h12.4v0h8.2v0h15.7h3.3h99h9.9h20.6h9.1h51.2h8.3h28.8h9.1H605
		c0,0,0,0,0,0h9c0,0,0,0,0,0h14.8h9.1h12.4v0h9.1c0,0,0,0,0,0h37.1h9.1h15.7h9.9h50.3c0,0,0,0,0,0h8.3c0,0,0,0,0,0h65.2h8.2h11.5v0
		h8.3v0h16.5h3.3h42c0,0,0,0,0,0h14c0,0,0,0,0,0h43h9.9h20.6c0,0,0,0,0-0.1h8.3c0,0,0,0,0,0.1h51.2h8.2h0.8h2.5h91.6v0h9.1v0h146v0
		h7.4v0h65.1h9.1h9.1h17.3h117.9c0,0,0,0,0,0h9.9c0,0,0,0,0,0h15.7l8.2,0c0,0,0,0,0,0h15.7v0h8.3v0h51.9V0H0v754.8h0.7V92.4
		C0.6,90.6,0.5,88.7,0.4,86.9z"/>
	<path class="st2" d="M336.1,647.6c1.2-8.9,1.7-17.7,1.5-26.5c-0.1-2.6-0.2-5.1-0.3-7.7c-1.1-17.7-4.5-35.1-8.5-52.5
		c-7.4-28.5-16.5-56.6-20.6-84.7c-4.1-21.9-7.4-43.9-10.7-65.9c-9.2-65.8-12.3-132.3-9.1-198.6c0.8-25.2,2.5-50.7,4.1-75.9
		c3.3-45,7.4-90,10.7-135.1h-64.3c-1,1.5-1.5,3.3-1.6,5.1c0,10,0,20.2-0.8,30.3c5,46,2.5,91.8-1.7,137.6
		c-1.6,22.8-3.3,45.6-4.1,68.4c1.6,44.2,7.4,87.9,14,131.3c4.1,21.8,7.5,43.3,10.7,64.9c5.7,38.1,14.8,72.8,11.5,110.3
		c0,11.6,0,23.4-0.8,35c-0.8-8.1-2.5-16.3-4.1-24.4c-5.8-27.6-14-55.3-16.5-84c-2.5-21.9-5.8-43.9-7.4-65.9
		c-7.6-65.9-10.6-132.3-9.1-198.6c0-25.2,0.8-50.5,1.6-75.7c0.8-44.8,0.8-89.5-0.8-134.1h-50.3c14.8,43.5,14.8,86.9,10.7,130
		c-2.5,22.8-5.8,45.6-9.1,68.4c-0.8,22.8-9,46.9-3.2,68.4c5.8,22.6,11.5,45.4,16.5,68.4c5,22.8,9.1,45.6,12.4,68.6
		c4.9,26.3,9.1,52.5,10.7,79c2.5,26.5,2.5,52.9,2.5,79.4c-5.8,50.1-7.4,99.7-7.4,149.2c0,14.3,0.3,28.6,0.8,42.9h36.5
		c0.3-13.1,0.9-26.2,2.2-39.3c2.5-24.4,5.8-48.8,12.4-73.2c0-0.2,0-0.4,0-0.6v0.6c0,0,0,0,0,0c0,19.9-0.8,40.1-0.8,60.2
		c0,17.3-0.4,34.8-0.7,52.3h4c0-0.6-0.1-1.2-0.1-1.8c0-23.6,0-47.2,0.8-70.8c0.8-23.8,2.5-47.4,5-71c1.7-24.5,2.5-49,0.8-73.5
		c-0.8-24.8-4.2-49.4-9.9-73.5c-3.3-17.5-6.6-34.8-9-52.1c-9.1-52.1-16.5-104.2-15.7-157.3c-0.7-22-0.1-44,1.7-65.9
		c3.3-60.7,10.7-121.3,21.5-182.5c0.8,43.2,0,86.3-1.7,129.4c-0.8,24-1.7,48-2.5,72.2c-2.5,65.8,0.8,130.2,7.4,194.8
		c2.5,21.6,4.9,43.1,8.2,64.9c2.5,28.3,9,56.6,14,84.7c4.9,28.3,8.2,56.4,5.8,84.5c-3.3,28.1-11.5,54.9-18.1,82
		c-3.2,11.8-5.5,23.9-6.7,36h44c0.3-16.6,4.3-32.4,8.9-48C327.8,687,334.4,667.5,336.1,647.6z M264.4,641.7v-12
		c0.8-15.5,1.6-30.7,1.6-46.2C268.5,602.6,269.3,621.9,264.4,641.7z"/>
	<path class="st2" d="M365.8,623c-0.8-25.6-2.5-51.5-4.9-77.1s-4.9-51.5-9.1-77.1c-4.1-28.9-9-57.8-14-86.7
		c-5.8-29.1-12.4-58.4-19-87.9c-5.8-24,3.3-50.9,4.1-76.1c2.5-17.9,5.8-35.8,9.1-53.7c10.7-53.5,21.4-107,15.7-162V0.6H332
		c12.3,28.5,0.8,65.3-1.7,98.1c-0.8,17.3-2.5,34.6-4.9,51.7c-2.5,17.1-5.8,34.2-8.3,51.1c-4.1,33.8-9.9,65.9-6.6,100.8
		c3.3,26.2,6.6,52.5,10.7,78.7s8.2,52.3,11.5,78.6c5.8,38.7,9.9,77.3,12.4,116.4c0.8,19.3,2.5,38.9,2.5,58.4
		c0.8,28.7,0.8,57.4,1.7,86.1c0.3,11.5,0.8,22.9,1.3,34.4h21.2c-0.9-19.5-2-39-2.7-58.4C367.4,672,366.6,647.4,365.8,623z"/>
	<path class="st2" d="M338.9,658.2c-1.3,8.4-2.9,16.7-4.5,24.9c-4.1,24.6-8.2,48.6-6.6,71.4c0,0.1,0,0.1,0,0.2h15
		c-0.7-14.6-1.3-29.2-1.7-43.7C340.6,693.5,339.7,675.9,338.9,658.2z"/>
	<path class="st2" d="M212.3,623.8c0.8-24.3,1.7-48.3,0.8-72.3c-0.8-48.2-5.8-96.2-14.8-143.5c-4.1-22.4-8.2-44.7-14-66.7
		c-5.8-22.2-11.5-44.2-18.1-65.9c-3.3-10.8-3.3-21.4-3.3-32.2c6.4-20.6,11.7-41.5,15.7-62.7c10.7-60,9.1-120.7-9.1-179.9h-15.6
		c20.6,64.5,7.4,129.8,3.3,194.7c-1.6,22.2-2.5,44.6,0,66.8c5,44.2,11.5,88.1,16.5,132.1c3.3,22,5.8,44,8.3,66.1
		c1.7,20.2,3.3,39.9,5,59.8c0.8,19.9,1.6,39.9,2.5,59.8v81c0,26.9,0,53.5,0.8,80.2c-0.3,4.5-0.5,9.1-0.7,13.6h15.4
		c0-21,0.1-42.1,1.6-63.5C207.4,668.9,209.8,646.3,212.3,623.8z"/>
	<path class="st2" d="M183.6,580.6c0-19.7-0.8-39.5-1.6-59.2c-0.8-19.7-2.5-39.3-4.1-59c-3.3-27.7-8.2-55.2-13.2-82.8
		c-5.8-27.5-11.6-55.1-19-82.8c-5.8-21.4-5.8-45.4-2.5-67c5-19.5,8.9-39.3,11.6-59.2c9.1-57.2,7.4-112.5-9.9-169.9h-37.1
		c13.2,45.2,14,91,12.4,137c0,23-1.6,46.2-2.5,69.2c-2.5,65.6,17.3,130,31.3,195.6c4.9,21.8,9.1,43.7,10.7,65.7
		c3.3,24.2,3.3,50.9-5,75.1c-8,22.5-14,45.7-18.2,69.2c-5.8,25.6-8.2,51.9-9.1,77.9c-1.4,21.6-1,43.3,0.1,64.5h47.6
		c0.6-13.4,1.3-26.8,1.8-40.2C179.4,669.6,183.6,624.8,183.6,580.6z"/>
	<path class="st2" d="M446.6,685.2c-0.8-21.6-1.6-42.7-4.1-64.3c-3.3-42.7-9.9-85.3-18.1-128c-3.3-17.3-6.6-34.4-10.7-51.7
		c-9.9-51.7-19-103.4-22.3-156.1c-0.7-24.6-0.1-49.2,1.6-73.7c5.8-72,22.3-142.7,56.9-210.8h-99c16.5,47,8.3,97.5-4.1,149.6
		c-4.9,19.1-9,38.7-14,58.2c-8.2,21.4-10.7,48.2-8.2,69.6c4.9,24.4,9.9,48.7,14,72.7s8.2,47.8,12.4,71.6
		c8.3,42.9,14,86.4,18.1,130.4c1.6,22,2.5,44,3.3,66c0.8,25,2.5,50.1,3.3,75.1c1.3,20.2,2.7,40.6,3.6,61h46.8
		c-1.6-25.1-12.1-50.2-14.9-75.3c0-10.6-2.5-24,3.3-34.6c5.8-24.2,4.9-48.2,1.6-72.2c-2.5-23.8-8.3-47.6-11.5-71
		c-3.3-17.9-6.6-35.8-10.7-53.7C383.1,394.3,374,340.3,374,285c-0.8-24.4,0-48.6,0.8-73.1c1.7-69.8,9.1-140,18.1-211.2h14
		c-13.2,66.5-23,133.5-28,200.7c-1.6,23.6-2.5,47.4-2.5,71.4c-1.6,53.5,9.1,105.8,20.6,157.3c3.3,17.1,7.4,34.2,11.5,51.3
		c12.4,50.8,18.1,102.5,19.8,154c0.8,17.3,1.7,34.4,1.6,51.7c1,22.8,1.8,45.3,1.9,67.7h16.1C448.8,731.7,448.6,708.5,446.6,685.2z"
		/>
	<path class="st2" d="M463.1,639.3c-1.6-21.6-3.3-43.1-6.6-64.7c-2.5-21.6-5.8-43.1-9.1-64.7c-4.1-24.8-7.4-49.7-10.7-74.5
		c-5.8-49.7-10.7-99.3-9.1-149.6c0-18.6,0-37.3,0.8-56C431.8,163,457.3,96.1,473,28.9c2.5-10,5-19.3,7.4-28.3h-20.6
		c-35.5,68-52.8,139.4-58.6,212.2c-1.5,24.5-1.8,49.1-0.8,73.7c2.5,52.1,9.9,102.8,20.6,153.8c3.3,17.1,6.6,34.2,10.7,51.3
		c8.3,43.3,23.1,86.3,23.1,129c0,10.8-9.1,21.4-9.1,32.2c5.8,34.3,8.2,68.2,8.5,102h12.4C466.9,716.5,465.8,678.2,463.1,639.3z"/>
	<path class="st2" d="M125.8,614.3c3.5-23.1,8.2-46,14-68.6c6.2-29.4,5.5-58.8,3-88.2c-0.7,4.4-1.8,8.9-3.1,13.3
		c-9.9,23.3-17.9,47.3-23.9,71.8c-5.8,24-9.1,48.4-11.5,72.8c-4.9,37.2-1.6,74.7,0.8,112.1c0.4,9,1,18,1.7,27h14.2
		c-0.4-4.5-0.7-9-1.1-13.5C118.4,699.2,119.2,656.9,125.8,614.3z"/>
	<path class="st2" d="M584.4,504.8c0,0,8.3-7.7-2.1-45C582.3,459.8,576.2,470.8,584.4,504.8z"/>
	<path class="st2" d="M496.9,664.8c0-24.6-0.8-49-2.5-73.3c-2.5-24.4-5-48.6-10.7-72.9c-1.6-23-4.1-46.2-5.8-69.4
		c-5.8-50.9-9.1-104.4-3.3-156.5c1.6-27.9,5-55.7,9.9-83.2c9.9-55.2,25.6-109.5,51.1-162.6c2.5-15.4,4.1-30.8,5-46.4h-51.2
		c-3.3,9.9-6.1,19.9-8.3,30c-18.2,70.6-43.7,140.2-43.7,209.8c0,32.1,0,64.3,1.7,96.7c0.1,22.7,1.5,45.4,4.1,68
		c1.7,22.8,5,45.4,7.4,68c7.5,47.4,14,94.4,19,141.6c2.5,23.6,5,47.2,5.8,70.8c2.5,23.2,3.5,46.2,3.5,69.2h19.8
		C496.5,724.8,495.5,694.8,496.9,664.8z"/>
	<path class="st2" d="M597.2,237.7c1.6-8.2,2.3-19,2.5-30.7c-1,8.7-2.1,19.6-2.8,32.5C596.9,238.9,597,238.3,597.2,237.7z"/>
	<path class="st2" d="M72.9,633.1c0.8-22.8,2.5-45.4,6.6-68s9.1-45,16.5-67.4c4.1-18.9,5.8-38.3,5-57.6
		c-0.8-56.6-15.7-111.5-23.1-168.3c-3.3-23.8-6.6-47.6-7.4-71.6c-1.7-24-2.5-48,0-72c3.3-29.5-2.5-59-12.4-88.7
		c-1.6-9-2.5-18.1-3.3-27.1c-0.7-3.9-1-7.8-0.8-11.8H16.9c-1.7,5.6-3,11.3-4.1,17.1c-5,23.2-4.1,49-3.3,68.8
		c0,39.5,6.6,79.4,14,119.1c3.3,19.9,6.6,39.7,9.9,59.4c9.9,61.4,9.9,122.3,5.8,183.1c-0.8,20.2-2.5,40.5-4.1,61
		c-4.1,23.4-7.4,47-10.7,70.4c-2.5,23.4-4.1,46.8-5.8,70.2c0,35,0.6,70,2.8,105h57.9c-0.2-2.2-0.4-4.3-0.6-6.5
		C74.6,710,72.1,671.8,72.9,633.1z"/>
	<path class="st2" d="M848.3,216.5c-3.3,65.5,1.6,129.8,11.5,194.3c2.5,21.6,6.6,43.1,10.7,64.9c4.1,18.4,8.2,36.7,11.8,55.1
		c-1.8-17.8-3.5-35.6-5.3-53.2c-3.3-25.2-7.4-50.3-10.7-75.5s-7.4-50.5-10.7-75.9c-5.8-42.8,0-83,4.1-124.8
		c3.3-16.9,5.7-34,8.2-51.1c2.5-17.1,5-34.4,5-51.7c3.3-33.6,5.8-64.9,1.7-98.1h-11.5c-3.3,47.2-7.4,94-10.7,140.8
		C850.8,166.5,849.9,191.5,848.3,216.5z"/>
	<path class="st2" d="M599.7,199.5c-0.2-37.5-5.3-80.6-5.3-80.6s-25.6,35.5-36.9,70.5c-11.8,36.3,15.1,124.8,12.6,161
		c-2.5,36.2-20.4,57.9-30.3,103.9c-2.3,10.6-1,23.3,2.4,36.4c5.6,12.5,11.1,27.3,15.9,41.7c13.7,28.3,29.5,51.1,29.5,51.1h0
		c3.6-22.4,25.4-49.4,24.4-91.2c-0.7-27.9-20.8-61.8-21.8-106.8c-0.3-13.3-0.5-25.3-0.6-36C586.8,307.2,588.4,256.3,599.7,199.5z
		 M582.7,182.5c0,0,15,3.1,11,38.4c0,0-1.6-23.5-10.6-31.7c0,0-20.8,16.8-9.3,90.1C573.8,279.2,551.8,208,582.7,182.5z M580.2,251.1
		c-4.7-21.3,1-40.7,1-40.7C583.7,225.7,580.3,251.1,580.2,251.1z M585.3,561.1c-53.4-90.8-13.4-138.7-13.4-138.7
		c-32.8,79.6,15.8,126,15.8,126c11.8-17.2,15.7-56.7,15.7-56.7C611.8,530.1,585.3,561.1,585.3,561.1z M587.6,524.5
		c-22-59.2-6.4-78.2-6.4-78.2C603.2,484.8,587.6,524.5,587.6,524.5z"/>
	<path class="st2" d="M1303,689.9c-0.1,1.7-0.2,3.5-0.3,5.2c0.4,13.7,1.3,27.4,0.4,41.1c0.1,2.9,0.1,5.9,0.1,8.8
		c0.1-2,0.2-4.1,0.3-6.1c0.9-24.2,3.3-48.5,5-72.9c1.2-21.2,2.4-42.5,3.7-63.8c-0.7,3.6-1.3,7.2-2,10.8
		C1306.5,638.9,1303.8,664.6,1303,689.9z"/>
	<path class="st2" d="M638.8,5.9l0.8,3.7c0.2,3.4,0.7,6.9,1.7,10.2c11.5,55.2,13.2,109.7,11.5,163.8c0,18.1-0.8,36.2-1.7,54.3
		c-5.4,51.1,19.7,98,34.8,144.7c-1.5-9.7-3.2-19.4-5.1-29.2c-3.3-21.4-7.4-42.9-12.4-64.7c-5.8-24-11.5-48.2-8.3-72.2
		c0-24,2.5-48,3.3-72c2.5-47.8,3.3-95.2-13.2-141.8v-2h-12.4C637.8,2.4,638.1,4.2,638.8,5.9z"/>
	<path class="st2" d="M1408.4,537.6c0.1,33.9,0.9,67.9,2.3,102c0.8,28.1,0.8,55.8,0.8,83.6c0.1,3.3,0.3,15.6,0.5,31.5h6.4
		c0.7-11.5,1.5-22.8,2.1-33.2c-0.8-24.1-1.6-48.2-2.4-72.2C1421.1,614,1411.2,575.3,1408.4,537.6z"/>
	<path class="st2" d="M87.8,9.6c0.8,3.3,0.8,6.7,1.6,10.2C101,74.9,102.7,129.4,101,183.6c0,18.1-0.8,36.2-1.7,54.3
		c-5.4,51.4,20,98.7,35.1,145.6c-1.5-10-3-20-4.6-30.1c-4.1-21.4-8.2-42.9-13.2-64.7c-5.8-24.2-11.5-48.2-8.2-72.2
		c0.8-24,2.5-48,3.3-72c2.5-47.8,3.3-95.2-12.4-142c-0.6-0.4-0.9-1.1-0.8-1.8H86.2c0,1.8,0.8,3.5,0.8,5.1L87.8,9.6z"/>
	<path class="st2" d="M7.8,0.6H0.7v45.2C1.4,36,2.5,26,4.5,16.3C5.4,10.8,7,5.5,7.8,0.6z"/>
	<path class="st2" d="M63,11.8c0.8,8.8,1.7,17.9,3.3,26.5c4.1,17.5,13.2,36.4,9.9,55.2c-0.8,18.8,0,37.3,0.8,56
		c0.9,18.5,2.5,37,5,55.3c3.1,19,6,37.8,8.6,56.5c-0.7-24.2,0.8-47.8,3-71.2c2.5-27.1,4.1-53.9,3.3-80.6
		c-3.3-29.5-11.5-59-16.5-88.9c0-3.3-0.8-6.3-0.8-9.6l-0.8-3.9c-0.8-1.8-0.8-4.1-1.7-6.5H62.3C62.9,4.3,63.2,8,63,11.8z"/>
	<path class="st2" d="M92,628.6c1.6-20.6,5.8-40.9,9.9-61.1c9.1-40.5,22.3-80.8,35.5-120.9c5.8-21.4-3.3-42.9-9.1-61.7
		c-12.7-33.9-26-65.6-34.6-100.9c5.4,42.6,9.1,84.6,10.6,126.9c0,22.8,0,45.6-0.8,68.8c0.8,30.3-5,60.2-11.5,90.2
		c-6.6,30-12.4,60.1-12.4,91c0.8,24,4.1,48.2,7.4,72.4c1,7.1,1.9,14.2,2.9,21.3h9C94.5,712.7,91.3,670.7,92,628.6z"/>
	<path class="st2" d="M618.1,38.2c4.1,17.5,12.4,36.4,9.9,55.2c-0.8,18.8,0,37.3,0.8,56c0.8,18.5,2.5,37,4.1,55.3
		c3.5,20,6.7,39.8,9.5,59.4c-0.9-25.2,0.7-49.8,2.9-74.1c1.6-27.1,4.1-53.9,2.5-80.6c-2.5-29.5-11.5-59-15.7-88.9
		c-0.1-3.2-0.7-6.5-1.7-9.6l-0.8-3.9c0-1.8-0.8-4.1-0.8-6.5H614c0,3.9,0.8,7.5,0.8,11.2C615.7,20.5,616.5,29.7,618.1,38.2z"/>
	<path class="st2" d="M297.3,216.3c-4.1,65.7,0.8,130,10.7,194.5c3.3,21.6,6.6,43.2,10.7,64.9c4.5,20,8.9,40,12.8,59.9
		c-1.6-19.4-3.6-38.8-6.2-58.3c-3.3-25-6.6-50.1-10.7-75.3c-3.3-25.2-6.6-50.5-9.9-75.9c-5.8-42.9,0-83,3.3-124.8
		c3.3-16.9,5.8-34,8.3-51.1c2.5-17.1,5-34.4,5.8-51.7c2.5-33.6,4.9-64.9,1.7-98.1h-12.4c-3.3,47.2-6.6,94-9.9,140.8
		C299.8,166.5,298.2,191.5,297.3,216.3z"/>
	<path class="st2" d="M1215.3,709.2c-2.5-160.8-22.3-321.3-19.8-481.9c0-34.8-25.6-67-23.1-101.8c5.8-34.8,14.8-67,23.1-101.8
		c2.5-10,1.7-17.5-0.8-23.2h-91.6c2.5,130-4.1,259.9,32.2,389.9c19.8,77.7-20.6,160.8,17.3,240.9c2.4,24.2-5,46.8-11.6,70
		c-5.6,17.3-11.2,34.8-12.2,53.3h28.3c-0.2-2.3-0.3-4.6-0.5-6.9c-1.7-25.4-2.5-50.9-3.3-76.3c-0.8-168.5,10.7-331.9-29.7-505.9
		c-13.2-56.3,7.4-110.5,9.9-165h9.9c-2.5,54.7-22.3,107.6-11.5,165c37.9,168.7,32.2,326.6,30.5,493.1c0,21.2,0,42.3,0.8,63.5
		c0.2,10.8,0.5,21.7,1,32.5h51.6C1215.9,739.6,1215.7,724.4,1215.3,709.2z"/>
	<path class="st2" d="M1014.9,639.5c-1.6-21.8-4.1-43.3-6.6-64.9c-2.5-21.6-5.8-43.1-9.9-64.7l-9.9-74.5
		c-6.6-49.5-10.7-99.3-9.1-149.6c0-18.5,0-37,0.8-55.8c2.5-67,28.9-133.9,44.5-200.9c2.4-10.2,4.9-19.5,7.4-28.4h-20.6
		C976.1,68.6,958.8,140,953,213c-1.5,24.5-1.8,49-0.8,73.5c2.5,52.1,9.9,102.8,19.8,153.8c3.3,17.1,7.4,34.2,10.7,51.3
		c9.1,43.3,23.1,86.3,23.1,129c0,10.8-8.3,21.4-8.3,32.2c5.8,34.3,8.2,68.2,8.4,102h11.7C1017.8,716.5,1016.9,678.2,1014.9,639.5z"
		/>
	<path class="st2" d="M1303,737.3c0-0.4,0-0.8,0.1-1.2c-0.3-13.7-1-27.3-0.4-41.1c-0.2-8-0.3-16.1,0.3-24.1
		c1.2-18.9,3.8-38.3,7.2-58c0.7-4.7,1.4-9.5,2.2-14.3c7.7-127.8,16.7-257.2,21.7-384.8c0-68.4,12.4-143.7-7.4-213.3h9.1
		c20.6,63.9,9.9,134.1,7.4,197.2c-2.4,111.3-10.2,221.2-18.1,331.6c12-60.5,25.7-121.7,32.2-182.1c-0.1-45.4-19.8-93.5-8.2-138.7
		c23.9-70.8,14-139.6,0.8-208h-146c0.8,8.1,0.8,16.7,0.8,23.2c-5.8,34.8-23.1,67-20.6,101.8c28.9,192.7,28.9,385.4,40.4,578.2
		c2.2,16.4-3.9,33.9-6.2,51.1h32.7c1-9.5,1.8-19,2.4-28.5c1.7-19.1,2.5-38.3,2.5-57.4c3.3-77.4-31.3-155.1-25.6-230
		c5.8-93.6,14.8-179.3-5.8-275.8c-11.5-55.4,2.5-108.3,9.9-162.4h7.4c-14.8,89.9-18.2,179.7,11.5,269.4c5.8,13.4,5.8,32.2,0,45.6
		c-37.1,117.8,14.8,232.8,9.1,349c0,23-0.8,45.8-1.7,68.6c-0.4,7.2-0.9,14.3-1.4,21.5h2.7c0.9-15.6,1.8-31.2,2.7-46.8
		c0.8-19.2,1.7-38,1.7-57.2c-1.7-134.3,24.7-265.6,9.9-399.5c-10.7-85.1-19-168.1-3.3-250.7h12.4c-29.7,102,5.8,211,5.8,317.7
		c0,120.5-14.9,243.6-19,364.1c-0.8,22.4-1.7,44.8-2.5,67.2c-0.1,1.8-0.2,3.5-0.3,5.3h33.3c0.1-1.6,0.2-3.3,0.3-4.9
		C1302.8,745.7,1302.8,741.5,1303,737.3z"/>
	<path class="st2" d="M1047.8,664.9c0-24.4,0-48.8-2.5-73.3c-1.6-24.4-5-48.7-9.9-72.7c-2.5-23.2-4.1-46.4-6.6-69.6
		c-5.8-50.9-8.3-104.4-2.5-156.5c1.6-27.9,5-55.7,9.9-83.2c9.2-56.4,26.4-111.1,51.1-162.6c2.6-15.3,4-30.8,4.1-46.4h-51.2
		c-2.4,9.5-4.9,19.3-7.4,30.1c-18.1,70.6-44.5,140.2-44.5,209.8c0,32.1,0,64.3,1.7,96.7c0.8,22.6,2.5,45.4,4.1,68
		c2.5,22.8,5,45.4,8.3,68.2c7.5,47.2,14,94.4,19,141.4c2.5,23.6,5,47.2,5.8,70.8c2.5,23.2,3.5,46.2,3.3,69.2h19.9
		C1048.1,724.8,1046.9,694.8,1047.8,664.9z"/>
	<path class="st2" d="M998.3,685.2c-0.8-21.4-2.5-42.7-4.1-64.1c-4.1-42.7-9.9-85.5-18.1-128.2c-3.3-17.3-7.4-34.4-10.7-51.7
		c-9.9-51.7-19.8-103.4-22.3-156.1c-0.7-24.6-0.1-49.2,1.7-73.7c5.8-72,22.3-142.7,56.9-210.8h-43c-13.2,66.5-23,133.5-28,200.6
		c-1.6,23.8-2.5,47.4-2.5,71.4c-1.7,53.5,8.3,105.8,19.8,157.3c4.2,17.1,8.3,34.2,12.4,51.4c12.4,51,17.3,102.5,19.8,154
		c0.8,17.3,0.8,34.4,1.5,51.6c1,22.8,1.4,45.3,1.6,67.8h16.3C1000.1,731.7,999.9,708.5,998.3,685.2z"/>
	<path class="st2" d="M1124.5,753.8c-1.6-22.4,2.5-44.2,7.4-66.1s10.7-44,11.5-67c-37.1-69.4-17.3-144.5-14-219.4
		c2.5-32.2-14.8-58.8-23.1-88.3c-20.8-81.6-26.7-160.4-18.3-239.4c-17.7,51.1-47.8,98.4-53.5,153.6c-2.5,29.5,6.6,61.7,3.3,91.2
		c-5.8,40.1-5.8,80.2-3.3,120.5c2.4,24,5,48,7.4,71.8c3.3,41.1,6.6,82.2,9.1,123.3c0.8,20.6,1.7,41.1,2.5,61.7
		c1,19.9,2.5,39.6,4.3,59.2h21.2c-0.9-7.1-1.7-14.2-2.4-21.3c-2.4-22.6-5-45.4-7.4-68c-4.9-45.2-9-90.6-14-136.2
		c-0.8-19.3-0.8-38.5-0.1-57.4c2.4,17.1,5,33.8,7.4,50.5c2.5,16.9,5.8,33.6,8.3,50.5c8.3,40.1,10.7,80.2,12.4,120.7
		c0.8,20.1,1.7,40.5,2.5,61c0,0.1,0,0.2,0,0.3h38.9C1124.6,754.5,1124.5,754.1,1124.5,753.8z M1057.7,447.3
		c-0.8,8.1-1.7,16.3-2.5,24.4v-1c-2.5-12.2,0-23.2,3.3-33.8C1058.5,440.4,1057.7,443.8,1057.7,447.3z M1101.7,713.7
		c0,0-14-121.2,0-151C1101.7,562.7,1108.9,655.8,1101.7,713.7z M1094.4,472.6c-11.3,38.8-10,84.2-10,84.2s-10.8-24.2-0.4-60.9
		c0,0,0,0,0-0.1c0.3-2,6.2-41.5-3.3-73.9c-0.8-2.7-1.4-4.2-1.4-4.2c0,0.1,0.1,0.2,0.1,0.2c-1.6-4.8-3.6-9.4-6.1-13.7
		c-11.3-19.7-20.9-57.5-23.4-84c-0.1-0.8-2.7-17,1-25c1-2.7,2.4-4.2,4.4-4.1c5.4-1.3,14.9,4.5,31.7,25.5
		c6.7,8.1,11.8,16.9,15.5,25.9c7.6,17.1,14.1,41.6,7.6,68.8C1107.5,435.2,1100.5,457.1,1094.4,472.6z"/>
	<path class="st2" d="M1094.3,453.4c-1.1,5.6-2,9.1-2,9.1S1094.1,460.1,1094.3,453.4z"/>
	<path class="st2" d="M624,633.1c1.6-22.6,3.3-45.4,7.4-68c3.5-22.9,9-45.4,16.5-67.4c4.1-19.5,5-38.7,5-57.6
		c-0.8-56.6-15.7-111.5-23.1-168.3c-3.3-23.8-6.6-47.6-8.3-71.6c-1.8-24-1.5-48.1,0.8-72c2.5-29.5-3.3-59-13.2-88.7
		c-0.8-8.8-1.6-18.1-2.5-27.1c-0.8-3.8-0.8-7.7-1.6-11.8h-18.2c2.5,7.7,3.3,17.3,3.3,28.3c0,18.5-1.6,38.9-6.6,64.1
		c-1.7,13.6-4.9,27.1-13.2,40.5c-14.8,24-37.9,40.1-43.7,67c-6.6,32.2-1.7,62.3,2.5,92.4c5,30.1,9.1,60,0.8,92.4
		c-5.8,18.1-16.5,34.4-22.3,51.5c3.3-23.4,8.3-47,16.5-70.4c2.5-24,0-48.3-4.1-72.3c-3.3-24-7.4-48.2-7.4-72.2
		c0-40.1,37.1-64.3,54.4-99.1c3.3-10.6,9.1-21.4,7.4-31.1c4.9-24.6,7.4-44.6,7.4-62.7c0.1-9.6-1.2-19.1-4.1-28.3h-28.8
		c-0.1,16-1.7,32-5,47.6c-14,61.3-54.4,114.8-60.2,178.8c-3.3,29.5,5.8,61.7,2.5,91c-5.8,40.3-5.8,80.4-2.5,120.7
		c2.5,24,4.9,48,7.4,71.8c3.3,41.1,5.8,82.2,8.3,123.3c0.8,20.6,2.5,41.1,3.3,61.7c0.7,19.9,2,39.6,3.6,59.2h21.3
		c-1-7.1-1.9-14.2-2.6-21.3c-2.4-22.6-4.9-45.4-7.4-68c-4.9-45.2-9-90.6-14-136.2c-0.8-19.3-0.8-38.5,0-57.4
		c2.5,17.1,5,33.8,7.4,50.5c2.5,16.9,5.8,33.6,8.3,50.5c8.3,40.1,10.7,80.2,12.4,120.7c0.8,20.1,1.7,40.5,2.5,61c0,0.1,0,0.2,0,0.3
		h26.5c-8-65.4-10-150.6-10-150.6s1.7,42.4,22.7,150.6H603c-1.4-30-3-58-3-58c5.8,19.7,8.3,39.9,9,58h22.2c-0.2-2.2-0.4-4.4-0.6-6.5
		C626.3,710,624.1,671.6,624,633.1z M503.5,471.7v-1c-1.6-11.5-0.2-23.2,4.1-34c-0.9,3.5-1.5,7-1.6,10.6
		C505.2,455.5,504.3,463.6,503.5,471.7z M615.7,515.9c-10.7,44.2-32.9,183.9-33,122.4c0-15.9-2.7-31.5-6.8-46.8
		c-0.4-1.1-12.2-33.8-25-65.2c-6.6-14.6-13-28.3-17.9-40.9c-15.2-30.7-4.3-47.8,4.1-62.9c0.5-1,1-1.9,1.6-2.9c0.6-1.1,1-1.8,1.1-2
		c8.3-15.2,17.6-32.5,19.9-58.6c4.9-57.7-8.8-94.8-10.7-140.3c-1.9-45.5,53.2-123.4,53.2-123.4c1.2,17.1,1.6,48.8,1.1,87.6
		c0-0.1,0.1-0.3,0.1-0.4c0,0,0,0.2-0.1,0.4c-0.6,43.8-2.5,96.6-6.1,147.2c-0.1,1.7-0.2,3.5-0.3,5.2c2.1,36.9,6.8,79.5,15.7,126.7
		C617.1,482,619.8,499.1,615.7,515.9z M620.3,422.4c0,0-0.3-56.3-12.1-116.2C608.3,306.2,629.2,358.2,620.3,422.4z"/>
	<path class="st2" d="M1058.7,305.1c0,0,0.3,46.5,21.8,96.2h0c12.1,28,14.2,43.6,13.9,52.1C1100.4,423.3,1115.1,326.1,1058.7,305.1z
		 M1069.8,325.9c0,0,16.1,7.2,17.3,60.6C1087.2,386.5,1069.4,336,1069.8,325.9z"/>
	<path class="st2" d="M1050,320.2c-0.2-2.7-0.4-5.2-0.5-7.6C1049.5,314.9,1049.6,317.4,1050,320.2z"/>
	<path class="st2" d="M887.8,647.6c1.2-8.5,1.6-16.9,1.4-25.3c-0.1-3-0.2-5.9-0.4-8.9c-1.2-17.6-4.8-35.1-9.3-52.4
		c-6.6-28.5-15.7-56.6-19.8-84.7c-4.1-21.9-7.4-43.9-10.7-65.9c-9.1-65.7-13.2-131.9-9.9-198.6c1.7-25.2,3.3-50.5,5-75.9
		c3.3-45,7.4-90,10.7-135.1h-65.2c0,1.4-0.8,3.2-0.8,5C788,15.7,788,25.8,788,36c5,46,1.7,91.8-1.6,137.6
		c-1.7,22.8-3.3,45.6-4.1,68.4c1.6,44.2,7.4,87.9,14,131.3c3.3,21.8,7.4,43.3,10.7,64.9c5.8,38.1,14,72.8,11.5,110.3
		c0,11.6-0.8,23.4-0.8,35c-1.7-8.1-2.5-16.3-4.1-24.4c-6.6-27.7-14.8-55.4-16.5-83.8c-3.3-22.2-5.8-44.2-8.2-65.9
		c-6.8-66.1-9.8-132.4-9.1-198.8c0.8-25.2,1.7-50.5,1.7-75.7c0.8-44.8,1.6-89.5,0-134.1h-50.3C746,44.2,746,87.5,741.9,130.8
		c-2.5,22.6-5.8,45.4-9.1,68.2c-0.8,22.8-9.9,46.8-4.1,68.4c6.7,22.5,12.2,45.3,16.5,68.4c5,22.8,9.9,45.6,13.2,68.6
		c4.9,26.3,8.3,52.5,10.7,79c1.7,26.5,2.5,52.9,2.5,79.4c-5.8,49.6-8.2,99.5-7.4,149.4c0,14.2,0.3,28.4,0.7,42.7h36.4
		c0.4-13.1,1.2-26.2,2.5-39.3c1.8-24.7,5.7-49.2,11.5-73.3c0.7-0.2,0.8-0.4,0.8-0.5c0,0,0-0.1,0-0.1c0,0,0,0.1,0,0.1
		c-0.8,20.1-0.8,40.4-0.8,60.8c-0.6,17.5-0.8,34.9-0.8,52.3h4.1v-1.6c0-23.8,0-47.4,0.8-71c0.8-23.8,1.7-47.2,4.1-71
		c1.8-24.4,2.3-49,1.7-73.5c-0.9-24.8-4.2-49.4-9.9-73.5c-3.3-17.5-6.6-34.8-9.1-52.1c-9.1-52.1-16.5-104.2-16.5-157.3
		c0-22,0.8-44,1.7-65.7c4.1-60.9,10.7-121.5,21.4-182.8c0.8,43.1,0,86.3-0.8,129.6c-0.8,24-1.6,47.8-2.5,72
		c-2.5,65,0,130.1,7.5,194.8c1.6,21.6,5,43.1,7.4,65.1c3.3,28.3,9,56.4,14,84.7c5,28.1,9.1,56.2,5.8,84.3
		c-2.5,28.1-11.5,54.9-18.1,82c-2.6,11.9-4.7,23.9-6.3,36h44.1c0.1-16.5,4.6-32.4,9.2-48C878.7,687,886.2,667.7,887.8,647.6z
		 M816.1,641.7v-12c0.8-15.5,0.8-30.7,1.7-46.2C820.2,602.6,821,621.9,816.1,641.7z"/>
	<path class="st2" d="M890.4,657.9c-1.3,8.5-2.8,16.9-4.2,25.3c-4.1,24.6-8.3,48.6-7.4,71.4c0,0.1,0,0.1,0,0.2h15.3
		c-0.4-14.5-0.9-29.1-1.3-43.7C891.7,693.4,891,675.7,890.4,657.9z"/>
	<path class="st2" d="M764.1,623.8c0.8-24.3,0.8-48.3,0.8-72.3c-1.6-47.8-5.8-95.9-14.8-143.5c-4.1-22.4-9-44.7-14-66.7
		c-5.8-22.2-11.6-44.2-19-65.9c-2.5-10.6-2.5-21.4-2.5-32c6.4-20.6,11.6-41.6,15.7-62.9c10.7-60,9.1-120.7-9.1-179.9h-15.7
		c20.6,64.5,7.4,130,3.3,194.8c-1.7,22.4-2.5,44.6,0,66.8c5,44.2,10.7,88.1,16.5,132.1c3.3,22,5.8,44,8.3,66.1
		c1.6,20.1,3.3,40,4.1,60c1.6,19.7,2.5,39.7,3.3,59.6v161.2c-0.2,4.5-0.4,9.1-0.5,13.6h16.2c0-21.1,0.1-42.1,1.6-63.4
		C759.1,668.8,761,646.2,764.1,623.8z"/>
	<path class="st2" d="M917.5,623c-1.7-25.6-2.5-51.5-5-77.1s-5-51.3-9.1-77.1c-4.1-28.7-9.1-57.8-14.8-86.7
		c-5-29.1-11.6-58.4-18.2-87.9c-5.8-24,2.5-50.9,3.3-76.1l9.9-53.7c10.7-53.5,21.4-107,15.7-162V0.6h-16.5
		c13.2,28.5,1.6,65.3-0.8,98.1c-0.8,17.3-2.5,34.6-5,51.7s-5.8,34.2-8.3,51.1c-4.1,33.8-9.9,65.9-7.4,100.8
		c3.3,26.2,7.4,52.5,11.5,78.7s7.4,52.3,11.5,78.6c5.8,38.7,9.9,77.3,12.4,116.4c0.8,19.3,1.7,38.9,2.5,58.4
		c0,28.9,0.8,57.4,1.6,86.1c0.3,11.5,0.7,22.9,1.1,34.4h21.4c-0.9-19.5-2-39-2.7-58.4C919.2,672,918.4,647.6,917.5,623z"/>
	<path class="st2" d="M643.7,628.6c1.7-20.6,5-41,9.9-61.1c9.1-40.5,22.3-80.8,34.6-120.9c5.8-21.4-2.5-42.7-8.3-61.7
		c-13.7-34.5-26.6-66.7-35-102.8c5.6,43.2,9.3,85.9,10.3,128.8c0.8,22.8,0.8,45.8,0,68.8c0.8,30.3-5.8,60.2-11.6,90.2
		c-6.6,30-13.2,60.1-13.2,91c1.6,24,4.1,48.2,7.4,72.4c1,7.1,2,14.2,3.1,21.3h9.7C646.3,712.7,643,670.7,643.7,628.6z"/>
	<path class="st2" d="M677.6,614.3c3.5-23.1,8.2-46,14-68.6c5.5-28.6,4.8-57.2,2.7-85.8c-0.7,3.6-1.6,7.3-2.7,11
		c-9.9,23.3-17.9,47.3-23.9,71.8c-5.8,24-9.9,48.3-12.4,72.8c-4.1,37.2-1.6,74.7,1.6,112.1c0.4,9,1,18,1.6,27h14
		c-0.3-4.4-0.6-8.9-0.7-13.3C670.1,699.2,671,656.9,677.6,614.3z"/>
	<path class="st2" d="M965.3,644.9c6.6-24.2,5.8-48.2,2.5-72.2c-3.3-23.8-8.3-47.6-11.5-71c-3.3-17.9-7.4-35.8-10.7-53.7
		c-10.7-53.7-19.8-107.5-19.8-163c-0.8-24.4-0.8-48.6,0-73.1c2.5-69.8,9.1-140,19-211.2h-42c16.5,47,7.4,97.5-4.1,149.6
		c-4.9,19.1-9.9,38.7-14,58.2c-8.3,21.6-11.5,48.2-8.3,69.6c4.9,24.4,9.9,48.7,14,72.7s8.3,47.8,12.4,71.6
		c8.3,43.1,14,86.7,17.3,130.4c2.5,22,3.3,44,4.1,66c0.8,25,1.7,50.1,3.3,75.1c1.3,20.4,2.1,40.7,3.3,61h46.4
		c-1.2-25.1-12.3-50.2-14.4-75.3C962.8,668.9,960.3,655.5,965.3,644.9z"/>
	<path class="st2" d="M735.3,580.6c-0.8-19.7-0.8-39.5-1.6-59.2c-0.9-19.5-2.5-39.3-5-59c-3.3-27.7-7.4-55.2-12.4-82.8
		c-5.8-27.5-11.6-55.1-19-82.8c-5.8-21.4-5.8-45.4-3.3-66.8c5-20.2,9.1-39.9,12.4-59.4c9.1-57.2,7.4-112.5-9.9-169.9h-37.1
		c13.2,45.2,14,91,12.4,137c-0.8,23-1.6,46.2-2.5,69.2c-2.5,65.6,17.3,130,31.3,195.6c4.9,21.8,9.1,43.7,10.7,65.7
		c3.3,24.2,3.3,50.9-5.8,75.1c-7.3,22.7-13.1,45.9-17.3,69.4c-5.8,25.4-8.3,51.7-9.8,77.6c-0.7,21.6-0.2,43.3,0.9,64.6h47.3
		c0.4-13.4,1.1-26.8,2.1-40.3C731.2,669.6,734.5,624.8,735.3,580.6z"/>
	<path class="st2" d="M1423.9,104.2c7.4-36,4.1-70-1.7-103.6h-65.1c11.5,44,23.1,86.3,17.3,132.9c-2.5,29.5-19.8,59-17.3,88.3
		c5.6,41.2,4.5,83.1,0,125.5c0,0.2,0,0.3,0,0.5c0,62.7-18.1,131.8-33.5,199.7c-2.7,37.6-5.4,75.3-7.8,113.1
		c-1.7,24.7-3.3,49.2-4.1,73.7c-0.4,6.8-0.7,13.7-1.1,20.5h48.1c-0.1-11.6-0.3-24.7-0.1-31.3c0.8-27.7,1.7-55.1,2.5-83
		c-7.4-107.9,9.9-219,19.8-328.3c-4.9,120.6-7.4,241.1-14.8,361c-1.4,21.8-5.8,56.3-7,81.6h42c-2.6-20.8-4.5-37.9-4.5-43.1
		C1406.6,508.4,1391.8,310.4,1423.9,104.2z M1381,312.2c1.7-41.5,3.3-83,5.8-124.7C1386.8,228.6,1384.3,270.3,1381,312.2z"/>
	<path class="st2" d="M1617.7,585.9c4.9-15.9,2.5-29.3,2.5-45.4c-9.1-40.3-37.9-74.9-34.6-112.5c8.3-143.3,30.5-284.1,39.6-427.4
		h-15.7c8.3,43.1,9.1,87.5-3.3,127.6c-55.3,160.5-23.9,324-9.1,484.5c-4.9,24.2-9.9,47.8-14,71.4c-4.2,23.7-7.6,47.2-10,70.6h8.9
		c4.1-37.5,11.5-75,20.8-112.7C1607,623.3,1612,604.8,1617.7,585.9z"/>
	<path class="st2" d="M13.6,744.2c0-18.2,0-36.6,0.8-55.2c0.8-25.4,1.6-50.9,2.5-76.1c0.8-25.2,0.8-50.5,0.8-75.5
		c2.5-27.7,5.8-55,8.3-82.2c6.6-82,10.7-163.4-9.1-243.2c-3.3-20.8-7.4-41.5-9.9-62.5c-3.1-18.9-5.2-38-6.3-57.2v662.4H14
		C13.9,751.3,13.8,747.8,13.6,744.2z"/>
	<path class="st2" d="M1593.8,422.7c-4.9,37.4,28.9,67,37.9,104.4c8.2,32.1-5.8,61.7-12.4,91.6c-5,20.5-9.1,40.7-13.2,60.9
		c-4.6,25.2-8.5,50.2-11.1,75.2h37.3c-4.6-25.7-7.6-51.5-6.4-77.7c1.7-21.4,13.2-41.5,24.7-61.9c11.6-20.6,23.1-41.3,23.9-63.9
		c3.3-77.7-8.2-152.6-14-230.4c-2.5-29.3,2.5-58.8,0-88.3c0-24-11.5-48.2-17.3-72.2c-5.8-40.1,14.8-74.9,25.6-113.8
		c2.5-11.6,6.6-28.5,6.6-46h9.1c-0.8,16.2-3.3,32.3-7.4,48c-10.7,36.8-33.8,74.3-22.3,114.4c28.9,125.8,19.8,251.7,25.6,377.5
		c-0.8,29.5-15.6,56.2-28,83.6s-23.1,55.6-18.1,87.7c3,14.4,5.8,28.7,8.5,42.9h42.6V0.6h-51.9
		C1622.7,142.5,1608.7,281.3,1593.8,422.7z"/>
	<path class="st2" d="M1574.8,628.2c5-31.5,16.5-63.7,7.4-95.8c-28.8-96.3-34.6-187.2-14-286.3c19-84.4,41.3-161.6,33-245.4h-15.7
		c-13.2,68.8-4.1,139.2-28.9,202.5c-52,131.3,0,278.6-14.8,420.4c-0.8,24.6-1.6,49.5-0.8,74.3c0.2,19,1,38,2.1,57h22.5
		c0.3-21.2,1.1-42.5,2.6-63.9C1569.9,670.2,1572.3,649.2,1574.8,628.2z"/>
	<path class="st2" d="M1499,414.8c11.3-55.2-8.3-105.2-33.1-154.8c0.3,1.6,0.6,3.2,0.9,4.8c11.5,58.8,43.7,115.1,23.1,166
		c-34.6,85.6-40.4,168.5-28,257c2.4,22.3,4,44.5,5.6,67h15.4c-1.3-14.2-2.6-28.3-3.6-42.4C1466.8,612.8,1475.9,516.6,1499,414.8z"/>
	<path class="st2" d="M1533.6,640.9c5.8-148.6-34.7-298.3,14-437.7c23.9-66.1,18.9-134.3,28-202.5h-117.9
		c13.2,25.2,7.4,62.5,3.3,87.5c-14.9,94.2-20.6,186.6-23.9,280.2c-9.9-30.1-15.7-60.8-13.2-92.8c5.8-93.2,65.2-188.8,16.5-274.9
		h-9.1c9.1,34.4,5.8,69.8,0.8,103.6c-12.9,133.7-22.6,265.9-23.6,398.9c2.2-22.3,9.4-43.6,26.2-62.9c0.8-8.6,0.8-17.1,0.8-25.4
		c0-15.5,0.8-30.9,1.7-46.4c2.5,10.2,6.6,20.1,9.9,30.3c2.5,10.6,2.5,24-3.3,32.2c-3.3,3.1-5.8,6.1-9.1,9.4
		c-1.7,77.5-10.7,157.3-12.4,237.9c0.3,6.7-0.6,23.3-1.8,43.5c0,1.2,0.1,2.3,0.1,3.5c0.1,3.1-0.5,14.6-1.3,29.7h37.6
		c-0.3-3.6-0.5-7.1-0.8-10.7c-0.8-21.6-2.5-43.3-4.1-64.9c-14.1-90.4-2.5-178.9,37.9-264.4c3.3-10.5,3.3-21.7,0-32.2
		c-31.3-91-54.4-190,3.3-281c19-29.3,8.3-66.3,5.8-100.9h9.9c-10.7,31.3,11.6,71.8-7.4,103.6c-15.1,26.6-27,53.9-33.3,82
		c9.8-21.1,25.1-41.2,39.1-60.6c26.4-38.3,14.8-82.9,15.7-125h12.4c6.6,77.7-26.4,141.6-65.2,210.6c-9.1,13.4-3.3,32.2,2.5,45.6
		c66.8,117.6,14.8,243.4,3.3,364.1c-3.3,16.1,2.5,34.8,2.5,50.7c2.5,22.8,5.8,45.6,9.1,68.4c0.8,4.9,1.6,9.9,2.4,14.8h44.8
		c-0.6-12.5-1-25.1-1-37.6V640.9z"/>
	<path class="st0" d="M1489.9,430.8c20.6-50.9-11.5-107.2-23.1-166c-0.3-1.6-0.6-3.2-0.9-4.8c-0.5-1-1-2.1-1.5-3.1
		c-10.6-24.9-6.6-48.3,3.8-70.7c6.3-28.1,18.2-55.4,33.3-82c19-31.8-3.3-72.2,7.4-103.6h-9.9c2.5,34.6,13.2,71.6-5.8,100.9
		c-57.7,91-34.6,190.1-3.3,281c3.3,10.5,3.3,21.7,0,32.2c-40.4,85.5-52,174-37.9,264.4c1.7,21.6,3.3,43.4,4.1,64.9
		c0.3,3.6,0.5,7.1,0.8,10.7h10.5c-1.6-22.4-3.2-44.7-5.6-67C1449.5,599.3,1455.3,516.5,1489.9,430.8z"/>
	<polygon class="st0" points="1609.5,0.6 1601.2,0.6 1609.5,0.6 	"/>
	<path class="st0" d="M1597.1,612.8c-14.8-160.6-46.2-324,9.1-484.5c12.4-40.1,11.6-84.4,3.3-127.6h-8.2c8.3,83.8-14,161-33,245.4
		c-20.6,99.1-14.8,190.1,14,286.3c9.1,32.2-2.5,64.3-7.4,95.8c-2.5,21-4.9,41.9-6.6,62.7c-1.5,21.4-2.3,42.6-2.6,63.9h7.5
		c2.3-23.4,5.8-46.9,10-70.6C1587.2,660.6,1592.2,637,1597.1,612.8z"/>
	<path class="st0" d="M1302.7,754.8h0.3c0-1.6-0.1-3.3-0.1-4.9C1302.8,751.5,1302.7,753.1,1302.7,754.8z"/>
	<path class="st0" d="M1315.9,660.6c2.4-37.8,5.1-75.5,7.8-113.1c-4.2,18.4-8.1,36.6-11.5,54.6c-1.3,21.3-2.5,42.6-3.7,63.8
		c-1.7,24.4-4.1,48.6-5,72.9c-0.1,2-0.2,4.1-0.3,6.1c0,3.2,0,6.3-0.2,9.5c0,0.1,0,0.2,0,0.4h7.8c0.3-6.8,0.7-13.7,1.1-20.5
		C1312.6,709.9,1314.3,685.3,1315.9,660.6z"/>
	<path class="st0" d="M1343.1,197.9c2.5-63.1,13.2-133.3-7.4-197.2h-9.1c19.8,69.6,7.4,144.9,7.4,213.3
		c-4.9,127.6-14,257-21.7,384.8c3.6-22.9,8-46,12.6-69.2C1332.9,419.1,1340.8,309.2,1343.1,197.9z"/>
	<path class="st0" d="M1411.5,723.3c0-27.9,0-55.5-0.8-83.6c-1.4-34.1-2.1-68.1-2.3-102c-0.9-11.7-1-23.2,0.1-34.6
		c1-133,10.7-265.2,23.6-398.9c4.9-33.8,8.3-69.2-0.8-103.6h-9.1c5.8,33.6,9.1,67.6,1.7,103.6c-32.1,206.1-17.3,404.2-27.2,607.5
		c0,5.2,1.9,22.3,4.5,43.1h10.8C1411.8,738.9,1411.6,726.6,1411.5,723.3z"/>
	<path class="st0" d="M1272.2,682.4c4.1-120.5,19-243.6,19-364.1c0-106.6-35.5-215.7-5.8-317.7H1273c-15.7,82.6-7.4,165.7,3.3,250.7
		c14.8,133.9-11.6,265.2-9.9,399.5c0,19.1-0.8,38-1.7,57.2c-0.9,15.6-1.8,31.2-2.7,46.8h7.4c0.1-1.8,0.2-3.5,0.3-5.3
		C1270.5,727.1,1271.3,704.8,1272.2,682.4z"/>
	<path class="st0" d="M1386.8,187.5c-2.5,41.7-4.1,83.2-5.8,124.7C1384.3,270.3,1386.8,228.6,1386.8,187.5z"/>
	<path class="st0" d="M1381,312.2c-9.9,109.3-27.2,220.4-19.8,328.3c-0.8,27.9-1.7,55.3-2.5,83c-0.2,6.6,0,19.8,0.1,31.3h0.3
		c1.2-25.2,5.6-59.7,7-81.6C1373.6,553.4,1376.1,432.9,1381,312.2z"/>
	<path class="st0" d="M1088.1,73.6c-8.4,79.1-2.5,157.8,18.3,239.4c8.3,29.5,25.6,56.2,23.1,88.3c-3.3,74.9-23.1,150,14,219.4
		c-0.8,23-6.6,45-11.5,67s-9.1,43.8-7.4,66.1c0,0.3,0,0.7,0.1,1h4.3c1-18.5,6.6-36,12.2-53.3c6.6-23.2,14-45.8,11.6-70
		c-37.9-80.2,2.5-163.2-17.3-240.9c-36.3-130.1-29.7-259.9-32.2-389.9h-2.5c-0.9,15.9-2.5,31.8-5,47.6
		C1093.6,56.8,1091,65.2,1088.1,73.6z"/>
	<rect x="1194.6" y="0.6" class="st0" width="9.1" height="0"/>
	<path class="st0" d="M1224.3,703.7c-11.6-192.7-11.6-385.4-40.4-578.2c-2.5-34.8,14.8-67,20.6-101.8c0-6.5,0-15.1-0.8-23.2h-9.1
		c2.5,5.7,3.3,13.2,0.8,23.2c-8.3,34.8-17.3,67-23.1,101.8c-2.5,34.8,23.1,67,23.1,101.8c-2.5,160.6,17.3,321.1,19.8,481.9
		c0.5,15.1,0.7,30.4,0.6,45.6h2.3C1220.5,737.7,1226.6,720.1,1224.3,703.7z"/>
	<path class="st0" d="M1162.5,658.8c1.7-166.5,7.4-324.4-30.5-493.1c-10.7-57.4,9.1-110.3,11.5-165h-9.9
		c-2.5,54.5-23.1,108.7-9.9,165c40.4,174,28.9,337.4,29.7,505.9c0.8,25.4,1.7,50.9,3.3,76.3c0.1,2.3,0.3,4.6,0.5,6.9h7.1
		c-0.5-10.9-0.8-21.7-1-32.5C1162.5,701.1,1162.5,679.9,1162.5,658.8z"/>
	<path class="st0" d="M1262.3,664.7c5.8-116.2-46.2-231.2-9.1-349c5.8-13.4,5.8-32.2,0-45.6c-29.7-89.7-26.4-179.5-11.5-269.4h-7.4
		c-7.4,54.1-21.4,107-9.9,162.4c20.6,96.5,11.6,182.1,5.8,275.8c-5.8,74.9,28.9,152.6,25.6,230c0,19.1-0.8,38.3-2.5,57.4
		c-0.6,9.5-1.4,19-2.4,28.5h8.5c0.5-7.2,1-14.3,1.4-21.5C1261.5,710.5,1262.3,687.7,1262.3,664.7z"/>
	<path class="st0" d="M1652.4,624.2c12.4-27.5,27.2-54.1,28-83.6c-5.8-125.8,3.3-251.7-25.6-377.5c-11.6-40.1,11.6-77.5,22.3-114.4
		c4.1-15.7,6.6-31.8,7.4-48h-9.1c0,17.5-4.1,34.4-6.6,46c-10.7,38.9-31.3,73.7-25.6,113.8c5.8,24,17.3,48.2,17.3,72.2
		c2.5,29.5-2.5,59,0,88.3c5.8,77.7,17.3,152.6,14,230.4c-0.8,22.6-12.4,43.3-23.9,63.9c-11.6,20.4-23.1,40.5-24.7,61.9
		c-1.2,26.1,1.8,51.9,6.4,77.7h10.3c-2.7-14.2-5.5-28.5-8.5-42.9C1629.2,679.7,1640,651.6,1652.4,624.2z"/>
	<polygon class="st0" points="1585.5,0.6 1575.6,0.6 1575.6,0.6 1585.5,0.6 	"/>
	<path class="st0" d="M1541.8,623.5c14.8-141.8-37.1-289.2,14.8-420.4c24.7-63.3,15.7-133.7,28.9-202.5h-9.9
		c-9.1,68.2-4.1,136.3-28,202.5c-48.7,139.4-8.3,289.2-14,437.7v76.3c0,12.5,0.3,25.1,1,37.6h8.5c-1.2-19-1.9-38-2.1-57
		C1540.2,673,1541,648.2,1541.8,623.5z"/>
	<path class="st0" d="M1478.4,671.6c0-15.9-5.8-34.6-2.5-50.7c11.5-120.7,63.5-246.5-3.3-364.1c-5.8-13.4-11.6-32.2-2.5-45.6
		c38.8-69,71.8-132.9,65.2-210.6h-12.4c-0.8,42.1,10.7,86.7-15.7,125c-14,19.4-29.4,39.5-39.1,60.6c-5.4,24-6.7,48.6-2.2,73.7
		c24.8,49.7,44.4,99.6,33.1,154.8c-23.1,101.8-32.2,198-19.8,297.5c1,14.1,2.4,28.3,3.6,42.4h7c-0.8-4.9-1.6-9.9-2.4-14.8
		C1484.1,717.2,1480.8,694.4,1478.4,671.6z"/>
	<path class="st0" d="M1464.3,256.9c0.5,1,1,2.1,1.5,3.1c-4.4-25.1-3.2-49.7,2.2-73.7C1457.8,208.6,1453.7,232.1,1464.3,256.9z"/>
	<rect x="1625.2" y="0.6" class="st0" width="8.3" height="0"/>
	<path class="st0" d="M1619.4,618.7c6.6-29.9,20.6-59.4,12.4-91.6c-9.1-37.4-42.9-67-37.9-104.4c14.8-141.4,28.9-280.2,39.6-422.1
		h-8.3c-9.1,143.3-31.3,284.1-39.6,427.4c-3.3,37.7,25.6,72.2,34.6,112.5c0,16.1,2.5,29.5-2.5,45.4c-5.8,18.9-10.7,37.4-14.8,56.2
		c-9.4,37.7-16.7,75.2-20.8,112.7h13c2.6-25,6.5-50,11.1-75.2C1610.3,659.4,1614.4,639.2,1619.4,618.7z"/>
	<path class="st0" d="M1408.4,537.6c2.8,37.6,12.7,76.4,9.7,111.8c0.8,24.1,1.6,48.2,2.4,72.2c1.2-20.3,2-36.8,1.8-43.5
		c1.7-80.6,10.7-160.4,12.4-237.9c-16.8,19.3-24,40.6-26.2,62.9C1408.4,514.6,1408.4,526.1,1408.4,537.6z"/>
	<path class="st0" d="M1420.6,725.1c0-1.2-0.1-2.3-0.1-3.5c-0.6,10.4-1.3,21.7-2.1,33.2h0.9C1420.1,739.7,1420.7,728.2,1420.6,725.1
		z"/>
	<path class="st0" d="M1408.4,537.6c0-11.5,0-23.1,0.1-34.6C1407.4,514.4,1407.5,526,1408.4,537.6z"/>
	<rect x="1349.7" y="0.6" class="st0" width="7.4" height="0"/>
	<path class="st0" d="M1310.2,613c-3.4,19.7-6,39.2-7.2,58c-0.6,8-0.5,16.1-0.3,24.1c0.1-1.7,0.2-3.5,0.3-5.2
		C1303.8,664.6,1306.5,638.9,1310.2,613z"/>
	<path class="st0" d="M1303,737.3c-0.2,4.2-0.2,8.3-0.1,12.5c0.1-1.6,0.2-3.3,0.3-4.9c0-2.9,0-5.9-0.1-8.8
		C1303,736.5,1303,736.9,1303,737.3z"/>
	<path class="st0" d="M1348.9,208.6c-11.5,45.2,8.1,93.3,8.2,138.7c4.5-42.4,5.6-84.4,0-125.5c-2.5-29.3,14.8-58.8,17.3-88.3
		c5.8-46.6-5.8-88.9-17.3-132.9h-7.4C1362.9,69,1372.8,137.8,1348.9,208.6z"/>
	<path class="st0" d="M1310.2,613c0.6-3.6,1.3-7.2,2-10.8c0.1-1.1,0.1-2.3,0.2-3.4C1311.6,603.5,1310.9,608.2,1310.2,613z"/>
	<path class="st0" d="M1302.7,695.1c-0.7,13.7,0.1,27.4,0.4,41.1C1304,722.5,1303.1,708.8,1302.7,695.1z"/>
	<path class="st0" d="M1323.7,547.5c15.4-67.9,33.5-137,33.5-199.7c0-0.2,0-0.3,0-0.5c-6.5,60.4-20.1,121.6-32.2,182.1
		C1324.6,535.5,1324.1,541.5,1323.7,547.5z"/>
	<path class="st0" d="M1303.2,744.9c-0.1,1.6-0.2,3.3-0.3,4.9c0,1.6,0,3.3,0.1,4.9h0c0-0.1,0-0.2,0-0.4
		C1303.1,751.3,1303.2,748.1,1303.2,744.9z"/>
	<path class="st0" d="M1312.4,598.7c-0.1,1.1-0.1,2.3-0.2,3.4c3.4-18,7.3-36.3,11.5-54.6c0.4-6,0.9-12,1.3-18
		C1320.4,552.7,1316,575.8,1312.4,598.7z"/>
	<path class="st0" d="M1423.9,275.6c-2.5,32,3.3,62.7,13.2,92.8c3.3-93.6,9.1-186,23.9-280.2c4.1-25,9.9-62.3-3.3-87.5h-17.3
		C1489.1,86.7,1429.7,182.4,1423.9,275.6z"/>
	<path class="st0" d="M1443.7,430.8c5.8-8.1,5.8-21.6,3.3-32.2c-3.3-10.2-7.4-20.1-9.9-30.3c-0.8,15.5-1.7,30.9-1.7,46.4
		c0,8.3,0,16.9-0.8,25.4C1438,436.9,1440.4,433.9,1443.7,430.8z"/>
	<path class="st0" d="M655.3,615.6c2.5-24.5,6.6-48.9,12.4-72.8c6-24.6,14-48.6,23.9-71.8c1.1-3.7,2-7.3,2.7-11
		c-1-14.3-2.4-28.5-3.5-42.8c-1.3-11.5-2.9-23-4.8-34.5c-15.1-46.7-40.2-93.6-34.8-144.7c0.8-18.1,1.7-36.2,1.7-54.3
		c1.7-54.1,0-108.7-11.5-163.8c-0.9-3.3-1.5-6.7-1.7-10.2l-0.8-3.7c-0.7-1.7-0.9-3.5-0.8-5.3h-9.1c0,2.4,0.8,4.7,0.8,6.5l0.8,3.9
		c1,3.1,1.5,6.3,1.7,9.6c4.1,29.9,13.2,59.4,15.7,88.9c1.7,26.7-0.8,53.5-2.5,80.6c-2.2,24.3-3.8,48.9-2.9,74.1
		c0.9,6,1.7,12.1,2.5,18.1c8.4,36,21.4,68.3,35,102.8c5.8,18.9,14,40.3,8.3,61.7c-12.4,40.1-25.6,80.4-34.6,120.9
		c-4.9,20.1-8.2,40.5-9.9,61.1c-0.7,42,2.6,84.1,7,126.1h7.8c-0.7-9-1.2-18-1.6-27C653.7,690.3,651.2,652.9,655.3,615.6z"/>
	<path class="st0" d="M771.6,562.7c0-26.5-0.8-52.9-2.5-79.4c-2.5-26.5-5.8-52.7-10.7-79c-3.3-23-8.3-45.8-13.2-68.6
		c-4.3-23.1-9.8-45.9-16.5-68.4c-5.8-21.6,3.3-45.6,4.1-68.4c3.3-22.8,6.6-45.6,9.1-68.2C746,87.5,746,44.2,731.1,0.6h-9.9
		c18.2,59.2,19.8,119.9,9.1,179.9c-4,21.2-9.3,42.2-15.7,62.9c0,10.6,0,21.4,2.5,32c7.4,21.8,13.2,43.8,19,65.9
		c5,22,9.9,44.4,14,66.7c9.1,47.6,13.2,95.7,14.8,143.5c0,24,0,48-0.8,72.3c-3.1,22.4-5.1,45-5.8,67.6c-1.6,21.3-1.6,42.3-1.6,63.4
		h8.1c-0.4-14.3-0.7-28.5-0.7-42.7C763.3,662.2,765.8,612.3,771.6,562.7z"/>
	<path class="st0" d="M924.1,618.7c-0.8-22-1.7-44-4.1-66c-3.3-43.8-9.1-87.3-17.3-130.4c-4.1-23.8-8.2-47.6-12.4-71.6
		s-9.1-48.2-14-72.7c-3.3-21.4,0-48,8.3-69.6c4.1-19.5,9.1-39.1,14-58.2c11.5-52.1,20.6-102.6,4.1-149.6h-3.3v1.6
		c5.8,55-5,108.5-15.7,162l-9.9,53.7c-0.8,25.2-9.1,52.1-3.3,76.1c6.6,29.5,13.2,58.8,18.2,87.9c5.8,28.9,10.7,58,14.8,86.7
		c4.1,25.8,6.6,51.5,9.1,77.1s3.3,51.5,5,77.1c0.8,24.6,1.7,49.1,3.3,73.5c0.7,19.4,1.8,38.9,2.7,58.4h7.2c-1.2-20.4-2-40.6-3.3-61
		C925.8,668.8,925,643.7,924.1,618.7z"/>
	<path class="st0" d="M844.1,636.8c3.3-28.1-0.8-56.2-5.8-84.3c-5-28.3-10.7-56.4-14-84.7c-2.5-22-5.8-43.5-7.4-65.1
		c-7.4-64.6-9.9-129.8-7.5-194.8c0.8-24.2,1.7-48,2.5-72c0.8-43.3,1.6-86.5,0.8-129.6c-10.7,61.3-17.3,121.9-21.4,182.8
		c-0.8,21.8-1.7,43.8-1.7,65.7c0,53.1,7.4,105.2,16.5,157.3c2.5,17.3,5.8,34.6,9.1,52.1c5.7,24.1,9,48.7,9.9,73.5
		c0.7,24.5,0.1,49-1.7,73.5c-2.5,23.8-3.3,47.2-4.1,71c-0.8,23.6-0.8,47.2-0.8,71v1.6h1.2c1.6-12.1,3.7-24.1,6.3-36
		C832.6,691.7,841.7,664.9,844.1,636.8z"/>
	<path class="st0" d="M958.7,0.6h-14c0,0,0,0,0,0L958.7,0.6C958.7,0.6,958.7,0.6,958.7,0.6z"/>
	<path class="st0" d="M980.2,635.4c-2.5-51.5-7.4-103-19.8-154c-4.1-17.1-8.3-34.3-12.4-51.4c-11.5-51.5-21.4-103.8-19.8-157.3
		c0-24,0.8-47.6,2.5-71.4c4.9-67.2,14.8-134.1,28-200.6h-14c-9.9,71.2-16.5,141.4-19,211.2c-0.8,24.4-0.8,48.6,0,73.1
		c0,55.5,9.1,109.3,19.8,163c3.3,17.9,7.4,35.8,10.7,53.7c3.3,23.4,8.3,47.2,11.5,71c3.3,24,4.1,48-2.5,72.2
		c-5,10.6-2.5,24-2.5,34.6c2.1,25.1,13.2,50.2,14.4,75.3h6.1c-0.1-22.5-0.5-45-1.6-67.8C981,669.8,981,652.7,980.2,635.4z"/>
	<path class="st0" d="M886.2,683.2c1.4-8.4,2.9-16.8,4.2-25.3c-0.3-10.1-0.6-20.2-0.9-30.3c-0.1-1.8-0.1-3.6-0.2-5.4
		c0.2,8.4-0.3,16.8-1.4,25.3c-1.7,20.2-9.1,39.5-14.8,59.2c-4.6,15.6-9.1,31.5-9.2,48h15c0-0.1,0-0.1,0-0.2
		C877.9,731.8,882.1,707.8,886.2,683.2z"/>
	<path class="st0" d="M839.2,211.7c-3.3,66.8,0.8,132.9,9.9,198.6c3.3,22,6.6,44,10.7,65.9c4.1,28.1,13.2,56.2,19.8,84.7
		c4.5,17.4,8.1,34.8,9.3,52.4c-0.9-20.3-2.4-40.5-4.4-60.8c-0.7-7.2-1.4-14.4-2.1-21.7c-3.6-18.4-7.7-36.7-11.8-55.1
		c-4.1-21.8-8.3-43.3-10.7-64.9c-9.9-64.5-14.8-128.8-11.5-194.3c1.7-25,2.5-50.1,4.1-75.1c3.3-46.8,7.4-93.6,10.7-140.8h-8.2
		c-3.3,45.2-7.4,90.2-10.7,135.1C842.5,161.2,840.9,186.4,839.2,211.7z"/>
	<path class="st0" d="M1083.2,693.5c-1.7-40.5-4.1-80.6-12.4-120.7c-2.5-16.9-5.8-33.6-8.3-50.5c-2.5-16.7-5-33.4-7.4-50.5
		c-0.7,19-0.7,38.1,0.1,57.4c5,45.6,9.1,91,14,136.2c2.5,22.6,5,45.4,7.4,68c0.6,7.1,1.5,14.2,2.4,21.3h6.6c0-0.1,0-0.2,0-0.3
		C1084.8,734,1084,713.6,1083.2,693.5z"/>
	<path class="st0" d="M1040.4,0.6h-8.3c0,0,0,0,0,0.1L1040.4,0.6C1040.4,0.6,1040.4,0.6,1040.4,0.6z"/>
	<path class="st0" d="M1027.2,685.6c-0.8-23.6-3.3-47.2-5.8-70.8c-5-47-11.5-94.2-19-141.4c-3.3-22.8-5.8-45.4-8.3-68.2
		c-1.7-22.6-3.3-45.4-4.1-68c-1.7-32.4-1.7-64.5-1.7-96.7c0-69.6,26.4-139.2,44.5-209.8c2.5-10.8,5-20.5,7.4-30.1h-8.3
		c-2.5,9-5,18.3-7.4,28.4c-15.6,67-42,133.9-44.5,200.9c-0.8,18.7-0.8,37.2-0.8,55.8c-1.7,50.3,2.5,100.1,9.1,149.6l9.9,74.5
		c4.1,21.6,7.4,43.1,9.9,64.7c2.5,21.6,5,43.2,6.6,64.9c2,38.8,2.9,77.1,2.7,115.3h13C1030.7,731.8,1029.7,708.8,1027.2,685.6z"/>
	<path class="st0" d="M1055.3,470.7v1c0.8-8.1,1.6-16.3,2.5-24.4c0-3.5,0.8-6.9,0.8-10.4C1055.3,447.5,1052.8,458.5,1055.3,470.7z"
		/>
	<path class="st0" d="M1005.8,620.7c0-42.7-14-85.7-23.1-129c-3.3-17.1-7.4-34.2-10.7-51.3c-9.9-51.1-17.3-101.8-19.8-153.8
		c-1-24.5-0.7-49,0.8-73.5c5.8-73,23.1-144.4,58.6-212.4h-9.9c-34.6,68.2-51.1,138.8-56.9,210.8c-1.8,24.5-2.3,49.1-1.7,73.7
		c2.5,52.7,12.4,104.4,22.3,156.1c3.3,17.3,7.4,34.4,10.7,51.7c8.2,42.7,14,85.5,18.1,128.2c1.7,21.4,3.3,42.7,4.1,64.1
		c1.5,23.3,1.8,46.5,1.2,69.6h6.3c-0.2-33.7-2.6-67.7-8.4-102C997.5,642,1005.8,631.4,1005.8,620.7z"/>
	<path class="st0" d="M1051.1,633.9c-2.5-41.1-5.8-82.2-9.1-123.3c-2.5-23.8-5-47.8-7.4-71.8c-2.5-40.3-2.5-80.4,3.3-120.5
		c3.3-29.5-5.8-61.7-3.3-91.2c5.7-55.1,35.7-102.4,53.5-153.6c2.6-24.3,6.5-48.5,11.7-72.9h-8.2c-0.2,15.5-1.5,31-4.1,46.4
		c-24.8,51.5-42,106.2-51.1,162.6c-4.9,27.5-8.3,55.3-9.9,83.2c-5.8,52.1-3.3,105.6,2.5,156.5c2.5,23.2,4.1,46.4,6.6,69.6
		c4.9,24,8.3,48.2,9.9,72.7c2.5,24.4,2.5,48.8,2.5,73.3c-0.9,29.9,0.2,59.9,2.6,89.9h7.4c-1.7-19.6-3.2-39.3-4.3-59.2
		C1052.8,675,1052,654.5,1051.1,633.9z"/>
	<path class="st0" d="M1095.6,48.3c2.5-15.8,4.1-31.7,5-47.6h-0.8c-5.2,24.4-9.1,48.7-11.7,72.9C1091,65.2,1093.6,56.8,1095.6,48.3z
		"/>
	<path class="st0" d="M659.4,0.6h-9.1v0L659.4,0.6C659.4,0.6,659.4,0.6,659.4,0.6z"/>
	<path class="st0" d="M678.4,690.2c1.6-26,4-52.2,9.8-77.6c4.2-23.5,10-46.7,17.3-69.4c9.1-24.2,9.1-50.9,5.8-75.1
		c-1.7-22-5.8-44-10.7-65.7c-14-65.5-33.8-130-31.3-195.6c0.8-23,1.7-46.2,2.5-69.2c1.6-46,0.8-91.8-12.4-137h-9.1v2
		c16.5,46.6,15.7,94,13.2,141.8c-0.8,24-3.3,48-3.3,72c-3.3,24,2.5,48.2,8.3,72.2c4.9,21.8,9.1,43.4,12.4,64.7
		c1.9,9.8,3.6,19.5,5.1,29.2c3.3,10.2,6.2,20.5,8.1,30.7c2.7,15.4,3.2,30.9,0.2,46.6c2.1,28.6,2.8,57.1-2.7,85.8
		c-5.8,22.6-10.5,45.5-14,68.6c-6.6,42.5-7.4,84.9-5.8,127.2c0.2,4.4,0.4,8.8,0.7,13.3h6.8C678.2,733.5,677.8,711.8,678.4,690.2z"/>
	<path class="st0" d="M694.2,460c3-15.7,2.5-31.3-0.2-46.6c-1.9-10.3-4.8-20.5-8.1-30.7c1.8,11.5,3.4,23,4.8,34.5
		C691.8,431.4,693.2,445.7,694.2,460z"/>
	<path class="st0" d="M614,0.6h-9c0,0,0,0,0,0L614,0.6C614,0.6,614,0.6,614,0.6z"/>
	<path class="st0" d="M630.5,661c0-30.9,6.6-61,13.2-91c5.8-29.9,12.4-59.8,11.6-90.2c0.8-23,0.8-46,0-68.8
		c-1-42.9-4.7-85.6-10.3-128.8c-0.7-3.1-1.4-6.2-2.1-9.4c-0.2-2.9-0.3-5.8-0.4-8.7c-2.8-19.7-6-39.4-9.5-59.4
		c-1.7-18.3-3.3-36.8-4.1-55.3c-0.8-18.7-1.7-37.2-0.8-56c2.5-18.7-5.8-37.7-9.9-55.2c-1.7-8.5-2.5-17.7-3.3-26.5
		c0-3.7-0.8-7.3-0.8-11.2h-9c0.8,4.1,0.8,7.9,1.6,11.8c0.8,9,1.7,18.3,2.5,27.1c9.9,29.7,15.7,59.2,13.2,88.7
		c-2.3,23.9-2.6,48-0.8,72c1.7,24,5,47.8,8.3,71.6c7.4,56.8,22.3,111.7,23.1,168.3c0,18.9-0.8,38-5,57.6
		c-7.5,21.9-13,44.5-16.5,67.4c-4.1,22.6-5.8,45.4-7.4,68c0.1,38.5,2.3,76.9,6.6,115.2c0.2,2.2,0.4,4.4,0.6,6.5h9.9
		c-1.1-7.1-2.1-14.2-3.1-21.3C634.6,709.2,632.2,685,630.5,661z"/>
	<path class="st0" d="M645,282.3c-0.8-6-1.6-12.1-2.5-18.1c0.1,2.9,0.2,5.8,0.4,8.7C643.5,276.1,644.2,279.2,645,282.3z"/>
	<path class="st0" d="M741,580c-0.8-19.9-1.7-39.9-3.3-59.6c-0.8-20-2.5-39.9-4.1-60c-2.5-22.2-5-44.2-8.3-66.1
		c-5.8-44-11.5-87.9-16.5-132.1c-2.5-22.2-1.7-44.4,0-66.8c4.1-64.8,17.3-130.3-3.3-194.8h-9.1c17.3,57.4,19,112.7,9.9,169.9
		c-3.3,19.5-7.4,39.3-12.4,59.4c-2.5,21.4-2.5,45.4,3.3,66.8c7.4,27.7,13.2,55.3,19,82.8c5,27.7,9.1,55.1,12.4,82.8
		c2.5,19.7,4.1,39.5,5,59c0.8,19.7,0.8,39.5,1.6,59.2c-0.8,44.2-4.1,88.9-6.6,133.9c-1,13.4-1.7,26.8-2.1,40.3h13.9
		c0.1-4.5,0.3-9.1,0.5-13.6V580z"/>
	<path class="st0" d="M816.1,629.7v12c4.9-19.7,4.1-39.1,1.7-58.2C816.9,598.9,816.9,614.2,816.1,629.7z"/>
	<path class="st0" d="M789.7,0.6h-8.3c0,0,0,0,0,0L789.7,0.6C789.7,0.6,789.7,0.6,789.7,0.6z"/>
	<path class="st0" d="M781.5,134.7c0,25.2-0.8,50.5-1.7,75.7c-0.7,66.4,2.3,132.8,9.1,198.8c2.5,21.8,4.9,43.8,8.2,65.9
		c1.7,28.5,9.9,56.2,16.5,83.8c1.7,8.1,2.5,16.3,4.1,24.4c0-11.6,0.8-23.4,0.8-35c2.5-37.4-5.8-72.2-11.5-110.3
		c-3.3-21.6-7.4-43.2-10.7-64.9c-6.6-43.3-12.4-87.1-14-131.3c0.8-22.8,2.5-45.6,4.1-68.4C789.7,127.8,793,82,788,36
		c0-10.2,0-20.3,0.8-30.3c0-1.8,0.8-3.6,0.8-5h-8.2C783.1,45.2,782.3,89.9,781.5,134.7z"/>
	<rect x="874.6" y="0.6" class="st0" width="8.3" height="0"/>
	<path class="st0" d="M899.4,634.3c-0.8-19.5-1.7-39.1-2.5-58.4c-2.5-39.1-6.6-77.7-12.4-116.4c-4.1-26.3-7.4-52.3-11.5-78.6
		s-8.3-52.5-11.5-78.7c-2.5-34.8,3.3-67,7.4-100.8c2.5-16.9,5.8-34,8.3-51.1s4.1-34.4,5-51.7c2.5-32.8,14-69.6,0.8-98.1h-8.3
		c4.1,33.2,1.7,64.5-1.7,98.1c0,17.3-2.5,34.6-5,51.7c-2.5,17.1-5,34.2-8.2,51.1c-4.1,41.7-9.9,82-4.1,124.8
		c3.3,25.4,7.4,50.7,10.7,75.9s7.4,50.3,10.7,75.5c1.8,17.7,3.5,35.4,5.3,53.2c0.8,3.8,1.5,7.7,2.2,11.5c4.3,21.9,7.3,44.1,9.1,66.3
		c1.1,16.4-0.7,32.8-3.2,49.2c0.6,17.8,1.3,35.5,2.4,53.2c0.4,14.7,0.9,29.2,1.3,43.7h8c-0.4-11.4-0.7-22.9-1.1-34.4
		C900.2,691.7,899.4,663.2,899.4,634.3z"/>
	<path class="st0" d="M889.3,622.2c-0.1-3-0.2-6-0.4-8.9C889,616.3,889.1,619.3,889.3,622.2z"/>
	<path class="st0" d="M888.9,613.3c0.2,3,0.3,5.9,0.4,8.9c0.1,1.8,0.1,3.6,0.2,5.4c0.3,10.1,0.6,20.2,0.9,30.3
		c2.5-16.4,4.3-32.8,3.2-49.2c-1.8-22.3-4.8-44.4-9.1-66.3c-0.7-3.8-1.5-7.7-2.2-11.5c0.7,7.2,1.4,14.4,2.1,21.7
		C886.5,572.8,887.9,593.1,888.9,613.3z"/>
	<path class="st0" d="M816.1,641.8c0,0.2-0.1,0.4-0.8,0.5c-5.8,24.1-9.7,48.6-11.5,73.3c-1.3,13.1-2.2,26.1-2.5,39.3h13.3
		c0-17.4,0.2-34.8,0.8-52.3C815.3,682.2,815.3,661.9,816.1,641.8z"/>
	<path class="st0" d="M816.1,641.8C816.1,641.7,816.1,641.7,816.1,641.8C816.1,641.7,816.1,641.7,816.1,641.8z"/>
	<path class="st0" d="M104.3,615.6c2.5-24.4,5.8-48.8,11.5-72.8c6-24.6,14-48.6,23.9-71.8c1.3-4.5,2.3-8.9,3.1-13.3
		c-1.1-13.5-2.6-27-3.9-40.5c-1.3-11.2-2.9-22.4-4.5-33.6c-15.1-47-40.5-94.2-35.1-145.6c0.8-18.1,1.7-36.2,1.7-54.3
		c1.6-54.1,0-108.7-11.5-163.8c-0.8-3.5-0.8-6.9-1.6-10.2L87,5.7c0-1.6-0.8-3.3-0.8-5.1h-9.1c0.8,2.4,0.8,4.7,1.7,6.5l0.8,3.9
		c0,3.3,0.8,6.3,0.8,9.6c5,29.9,13.2,59.4,16.5,88.9c0.8,26.7-0.8,53.5-3.3,80.6c-2.1,23.3-3.6,47-3,71.2c1.1,7.7,2.1,15.3,3,22.9
		c8.5,35.3,21.9,67,34.6,100.9c5.8,18.7,14.8,40.3,9.1,61.7c-13.2,40.1-26.4,80.4-35.5,120.9c-4.1,20.2-8.3,40.5-9.9,61.1
		c-0.7,42,2.6,84.1,7,126.1h7.9c-0.8-9-1.3-18-1.7-27C102.7,690.3,99.4,652.9,104.3,615.6z"/>
	<polygon class="st0" points="179.4,0.6 169.5,0.6 169.5,0.6 179.4,0.6 	"/>
	<path class="st0" d="M219.8,562.7c0-26.5,0-52.9-2.5-79.4c-1.6-26.5-5.8-52.7-10.7-79c-3.3-23-7.4-45.8-12.4-68.6
		c-5-23-10.7-45.8-16.5-68.4c-5.8-21.5,2.4-45.5,3.2-68.4c3.3-22.8,6.6-45.6,9.1-68.4c4.1-43.1,4.1-86.5-10.7-130h-9.9
		c18.1,59.2,19.8,119.9,9.1,179.9c-4,21.2-9.2,42.1-15.7,62.7c0,10.8,0,21.4,3.3,32.2c6.6,21.8,12.4,43.8,18.1,65.9
		c5.8,22,9.9,44.4,14,66.7c9,47.3,14,95.3,14.8,143.5c0.8,24,0,48-0.8,72.3c-2.5,22.6-4.9,45.2-5.8,67.6
		c-1.6,21.4-1.6,42.4-1.6,63.5h8.3c-0.5-14.3-0.8-28.6-0.8-42.9C212.4,662.4,214.1,612.8,219.8,562.7z"/>
	<path class="st0" d="M372.4,618.7c-0.8-22-1.7-44-3.3-66c-4.1-44-9.9-87.5-18.1-130.4c-4.1-23.8-8.3-47.6-12.4-71.6
		s-9.1-48.2-14-72.7c-2.5-21.4,0-48.2,8.2-69.6c5-19.5,9.1-39.1,14-58.2c12.4-52.1,20.6-102.6,4.1-149.6h-3.3v1.6
		c5.8,55-5,108.5-15.7,162c-3.3,17.9-6.6,35.8-9.1,53.7c-0.8,25.2-9.9,52.1-4.1,76.1c6.6,29.5,13.2,58.8,19,87.9
		c5,28.9,9.9,57.8,14,86.7c4.1,25.6,6.6,51.5,9.1,77.1s4.1,51.5,4.9,77.1c0.8,24.4,1.7,49.1,3.3,73.5c0.7,19.4,1.8,38.9,2.7,58.4
		h7.5c-0.9-20.4-2.3-40.8-3.6-61C374.9,668.8,373.2,643.7,372.4,618.7z"/>
	<path class="st0" d="M293.2,636.8c2.5-28.1-0.8-56.2-5.8-84.5c-5-28.1-11.5-56.4-14-84.7c-3.3-21.8-5.8-43.4-8.2-64.9
		c-6.6-64.5-9.9-129-7.4-194.8c0.8-24.2,1.6-48.2,2.5-72.2c1.7-43.2,2.5-86.3,1.7-129.4c-10.7,61.3-18.1,121.9-21.5,182.5
		c-1.8,21.9-2.3,43.9-1.7,65.9c-0.8,53.1,6.6,105.2,15.7,157.3c2.4,17.3,5.7,34.6,9,52.1c5.7,24.1,9,48.7,9.9,73.5
		c1.7,24.4,0.8,49-0.8,73.5c-2.5,23.6-4.1,47.2-5,71c-0.8,23.6-0.8,47.2-0.8,70.8c0,0.6,0,1.2,0.1,1.8h1.5c1.2-12.2,3.4-24.2,6.7-36
		C281.7,691.7,289.9,664.8,293.2,636.8z"/>
	<rect x="303.1" y="0.6" class="st0" width="8.3" height="0"/>
	<path class="st0" d="M288.2,211.7c-3.2,66.3-0.1,132.8,9.1,198.6c3.3,22,6.6,44,10.7,65.9c4.1,28.1,13.2,56.2,20.6,84.7
		c4,17.4,7.4,34.9,8.5,52.5c-0.9-20.3-2.4-40.6-4.4-60.9c-0.4-5.6-0.8-11.2-1.2-16.8c-3.9-19.9-8.3-39.9-12.8-59.9
		c-4.1-21.8-7.4-43.3-10.7-64.9c-9.9-64.5-14.8-128.8-10.7-194.5c0.8-24.8,2.5-49.9,4.1-74.9c3.3-46.8,6.6-93.6,9.9-140.8h-8.3
		c-3.3,45.2-7.4,90.1-10.7,135.1C290.7,161,289.1,186.4,288.2,211.7z"/>
	<path class="st0" d="M334.4,683.2c1.7-8.3,3.2-16.6,4.5-24.9c-0.4-10.2-0.9-20.4-1.2-30.6c-0.1-2.2-0.2-4.3-0.2-6.5
		c0.2,8.8-0.2,17.6-1.5,26.5c-1.7,19.9-8.3,39.5-14.8,59.2c-4.6,15.6-8.6,31.4-8.9,48h15.5c0-0.1,0-0.1,0-0.2
		C326.2,731.8,330.3,707.8,334.4,683.2z"/>
	<path class="st0" d="M428.5,635.4c-1.6-51.5-7.4-103.2-19.8-154c-4.1-17.1-8.2-34.2-11.5-51.3c-11.5-51.5-22.3-103.8-20.6-157.3
		c0-24,0.8-47.8,2.5-71.4c5-67.2,14.8-134.1,28-200.7h-14c-9.1,71.2-16.5,141.4-18.1,211.2c-0.8,24.4-1.6,48.6-0.8,73.1
		c0,55.3,9.1,109.3,19.8,163c4.1,17.9,7.4,35.8,10.7,53.7c3.3,23.4,9.1,47.2,11.5,71c3.3,24,4.1,48-1.6,72.2
		c-5.8,10.6-3.3,24-3.3,34.6c2.8,25.1,13.3,50.2,14.9,75.3h5.9c-0.2-22.4-0.9-44.9-1.9-67.7C430.1,669.8,429.3,652.7,428.5,635.4z"
		/>
	<path class="st0" d="M531.5,693.5c-1.7-40.5-4.1-80.6-12.4-120.7c-2.5-16.9-5.8-33.6-8.3-50.5c-2.5-16.7-5-33.4-7.4-50.5
		c-0.8,19-0.8,38.1,0,57.4c5,45.6,9.1,91,14,136.2c2.5,22.6,5,45.4,7.4,68c0.7,7.1,1.6,14.2,2.6,21.3h6.4c0-0.1,0-0.2,0-0.3
		C533.2,734,532.3,713.6,531.5,693.5z"/>
	<path class="st0" d="M574.4,91.6c1.7,9.8-4.1,20.5-7.4,31.1c-17.3,34.8-54.4,59-54.4,99.1c0,24,4.1,48.2,7.4,72.2
		c4.1,24,6.6,48.2,4.1,72.3c-8.3,23.4-13.2,47-16.5,70.4c5.8-17.1,16.5-33.4,22.3-51.5c8.3-32.4,4.1-62.3-0.8-92.4
		c-4.1-30.1-9.1-60.2-2.5-92.4c5.8-26.9,28.9-42.9,43.7-67c8.3-13.4,11.5-26.9,13.2-40.5c5-25.2,6.6-45.6,6.6-64.1
		c0-11-0.8-20.5-3.3-28.3h-9.1c2.9,9.1,4.3,18.7,4.1,28.3C581.9,47,579.4,67,574.4,91.6z"/>
	<path class="st0" d="M469.7,614.8c-5-47.2-11.5-94.2-19-141.6c-2.5-22.6-5.8-45.2-7.4-68c-2.6-22.6-4-45.3-4.1-68
		c-1.7-32.4-1.7-64.5-1.7-96.7c0-69.6,25.6-139.2,43.7-209.8c2.2-10.2,5-20.2,8.3-30h-9.1c-2.5,9-5,18.3-7.4,28.3
		c-15.7,67.2-41.2,134.1-44.5,200.9c-0.8,18.7-0.8,37.4-0.8,56c-1.6,50.3,3.3,99.9,9.1,149.6c3.3,24.8,6.6,49.6,10.7,74.5
		c3.3,21.6,6.6,43.1,9.1,64.7c3.3,21.6,5,43.2,6.6,64.7c2.7,38.9,3.8,77.3,3.6,115.5H479c0-23-1-46-3.5-69.2
		C474.6,662,472.2,638.4,469.7,614.8z"/>
	<path class="st0" d="M503.5,470.7v1c0.8-8.1,1.6-16.3,2.5-24.4c0.2-3.6,0.7-7.1,1.6-10.6C503.3,447.5,501.9,459.2,503.5,470.7z"/>
	<path class="st0" d="M454.8,620.7c0-42.7-14.8-85.7-23.1-129c-4.1-17.1-7.4-34.2-10.7-51.3c-10.7-51.1-18.1-101.8-20.6-153.8
		c-1-24.6-0.7-49.1,0.8-73.7C407,140,424.3,68.6,459.8,0.6h-9.9c-34.6,68.2-51.1,138.8-56.9,210.8c-1.8,24.5-2.3,49.1-1.6,73.7
		c3.3,52.7,12.4,104.4,22.3,156.1c4.1,17.3,7.4,34.4,10.7,51.7c8.3,42.7,14.8,85.3,18.1,128c2.5,21.6,3.3,42.7,4.1,64.3
		c2,23.3,2.2,46.5,1.4,69.6h6.2c-0.3-33.7-2.7-67.7-8.5-102C445.8,642,454.8,631.4,454.8,620.7z"/>
	<path class="st0" d="M499.4,633.9c-2.5-41.1-5-82.2-8.3-123.3c-2.5-23.8-5-47.8-7.4-71.8c-3.3-40.3-3.3-80.4,2.5-120.7
		c3.3-29.3-5.8-61.5-2.5-91c5.8-64.1,46.2-117.6,60.2-178.8c3.3-15.7,4.9-31.6,5-47.6h-8.3c-0.9,15.5-2.5,31-5,46.4
		c-25.6,53.1-41.2,107.5-51.1,162.6c-4.9,27.5-8.3,55.3-9.9,83.2c-5.8,52.1-2.5,105.6,3.3,156.5c1.6,23.2,4.1,46.4,5.8,69.4
		c5.8,24.2,8.3,48.4,10.7,72.9c1.6,24.2,2.5,48.6,2.5,73.3c-1.4,29.9-0.4,59.9,1.9,89.9h7.5c-1.6-19.6-2.9-39.3-3.6-59.2
		C501.9,675,500.2,654.5,499.4,633.9z"/>
	<path class="st0" d="M0.4,86.9c0.1,1.8,0.2,3.6,0.3,5.5V45.8C-0.3,60.5-0.1,74.7,0.4,86.9z"/>
	<path class="st0" d="M24.3,579.6c3.3-23.4,6.6-47,10.7-70.4c1.6-20.6,3.3-40.9,4.1-61c4.1-60.8,4.1-121.7-5.8-183.1
		c-3.3-19.7-6.6-39.5-9.9-59.4c-7.4-39.7-14-79.6-14-119.1c-0.8-19.7-1.7-45.6,3.3-68.8c1.1-5.8,2.4-11.5,4.1-17.1H7.8
		C7,5.5,5.4,10.8,4.5,16.3C2.5,26,1.4,36,0.7,45.8v46.5c1.1,19.2,3.2,38.3,6.3,57.2c2.5,21,6.6,41.7,9.9,62.5
		c19.8,79.8,15.7,161.2,9.1,243.2c-2.5,27.3-5.8,54.5-8.3,82.2c0,25,0,50.3-0.8,75.5c-0.8,25.2-1.6,50.7-2.5,76.1
		c-0.8,18.5-0.8,37-0.8,55.2c0.2,3.5,0.3,7,0.4,10.6h7.3c-2.2-35-2.8-70-2.8-105C20.2,626.4,21.8,603,24.3,579.6z"/>
	<path class="st0" d="M107.7,0.6h-9.1c0,0,0,0,0,0L107.7,0.6C107.7,0.6,107.7,0.6,107.7,0.6z"/>
	<path class="st0" d="M127.4,690.3c0.8-26,3.3-52.3,9.1-77.9c4.1-23.5,10.2-46.7,18.2-69.2c8.3-24.2,8.3-50.9,5-75.1
		c-1.7-22-5.8-44-10.7-65.7c-14-65.5-33.8-130-31.3-195.6c0.8-23,2.5-46.2,2.5-69.2c1.6-46,0.8-91.8-12.4-137h-9.1
		c-0.1,0.7,0.2,1.4,0.8,1.8c15.7,46.8,14.8,94.2,12.4,142c-0.8,24-2.5,48-3.3,72c-3.3,24,2.5,48,8.2,72.2c5,21.8,9.1,43.4,13.2,64.7
		c1.6,10.1,3.1,20.1,4.6,30.1c3.2,9.9,5.9,19.8,7.8,29.8c2.5,14.6,3.1,29.3,0.6,44.3c2.4,29.4,3.2,58.7-3,88.2
		c-5.8,22.6-10.5,45.5-14,68.6c-6.6,42.5-7.4,84.9-5.8,127c0.4,4.5,0.7,9,1.1,13.5h6.4C126.4,733.5,126.1,711.8,127.4,690.3z"/>
	<path class="st0" d="M142.8,457.6c2.5-14.9,2-29.7-0.6-44.3c-1.9-9.9-4.6-19.9-7.8-29.8c1.6,11.2,3.2,22.4,4.5,33.6
		C140.3,430.6,141.7,444.1,142.8,457.6z"/>
	<path class="st0" d="M79.6,661c0-30.9,5.8-61,12.4-91c6.6-30,12.4-59.8,11.5-90.2c0.8-23.2,0.8-46,0.8-68.8
		c-1.5-42.3-5.3-84.3-10.6-126.9c-0.9-3.7-1.8-7.5-2.5-11.3c-0.2-3.9-0.4-7.8-0.5-11.7c-2.6-18.7-5.5-37.5-8.6-56.5
		c-2.5-18.3-4.1-36.8-5-55.3c-0.8-18.7-1.7-37.2-0.8-56c3.3-18.7-5.8-37.7-9.9-55.2c-1.7-8.5-2.5-17.7-3.3-26.5
		c0.1-3.7-0.1-7.5-0.8-11.2H54c-0.1,4,0.1,7.9,0.8,11.8c0.8,9,1.7,18.1,3.3,27.1c9.9,29.7,15.7,59.2,12.4,88.7c-2.5,24-1.7,48,0,72
		c0.8,24,4.1,47.8,7.4,71.6c7.4,56.8,22.3,111.7,23.1,168.3c0.8,19.3-0.9,38.7-5,57.6c-7.4,22.4-12.4,44.8-16.5,67.4
		s-5.8,45.2-6.6,68c-0.8,38.7,1.6,76.9,5.8,115.2c0.2,2.2,0.4,4.3,0.6,6.5h10.6c-1-7.1-1.9-14.2-2.9-21.3
		C83.7,709.2,80.4,685,79.6,661z"/>
	<path class="st0" d="M93.7,284.2c-1-7.6-2-15.3-3-22.9c0.1,3.9,0.3,7.8,0.5,11.7C91.9,276.7,92.8,280.5,93.7,284.2z"/>
	<rect x="144.8" y="0.6" class="st0" width="9.1" height="0"/>
	<path class="st0" d="M189.3,661v-81c-0.8-19.9-1.6-39.9-2.5-59.8c-1.7-20-3.3-39.7-5-59.8c-2.5-22.2-5-44.2-8.3-66.1
		c-5-44-11.5-87.9-16.5-132.1c-2.5-22.2-1.6-44.6,0-66.8c4.1-64.9,17.3-130.2-3.3-194.7h-9.1c17.3,57.4,19,112.7,9.9,169.9
		c-2.7,19.9-6.6,39.7-11.6,59.2c-3.3,21.6-3.3,45.6,2.5,67c7.4,27.7,13.2,55.4,19,82.8c5,27.7,9.9,55.2,13.2,82.8
		c1.6,19.7,3.3,39.3,4.1,59c0.8,19.7,1.6,39.5,1.6,59.2c0,44.2-4.1,88.9-6.6,133.9c-0.5,13.4-1.3,26.8-1.8,40.2h14.3
		c0.2-4.5,0.4-9.1,0.7-13.6C189.3,714.5,189.3,687.9,189.3,661z"/>
	<path class="st0" d="M264.4,629.7v12c4.9-19.7,4.1-39.1,1.6-58.2C266,598.9,265.2,614.2,264.4,629.7z"/>
	<path class="st0" d="M230.5,134.7c-0.8,25.2-1.6,50.5-1.6,75.7c-1.6,66.3,1.5,132.7,9.1,198.6c1.7,22,5,44,7.4,65.9
		c2.5,28.7,10.7,56.4,16.5,84c1.7,8.1,3.3,16.3,4.1,24.4c0.8-11.6,0.8-23.4,0.8-35c3.3-37.4-5.8-72.2-11.5-110.3
		c-3.3-21.6-6.6-43.2-10.7-64.9c-6.6-43.3-12.4-87.1-14-131.3c0.8-22.8,2.5-45.6,4.1-68.4c4.1-45.8,6.6-91.6,1.7-137.6
		c0.8-10.2,0.8-20.3,0.8-30.3c0.1-1.8,0.6-3.6,1.6-5.1h-9.1C231.3,45.2,231.3,90,230.5,134.7z"/>
	<rect x="323.7" y="0.6" class="st0" width="8.2" height="0"/>
	<path class="st0" d="M347.6,634.3c0-19.5-1.6-39.1-2.5-58.4c-2.5-39.1-6.6-77.7-12.4-116.4c-3.3-26.3-7.4-52.3-11.5-78.6
		s-7.4-52.5-10.7-78.7c-3.3-34.8,2.5-67,6.6-100.8c2.5-16.9,5.8-34,8.3-51.1c2.5-17.1,4.1-34.4,4.9-51.7c2.5-32.8,14-69.6,1.7-98.1
		h-8.2c3.3,33.2,0.8,64.5-1.7,98.1c-0.8,17.3-3.3,34.6-5.8,51.7c-2.5,17.1-5,34.2-8.3,51.1c-3.3,41.7-9.1,81.8-3.3,124.8
		c3.3,25.4,6.6,50.7,9.9,75.9c4.1,25.2,7.4,50.3,10.7,75.3c2.6,19.4,4.6,38.8,6.2,58.3c0.4,2.2,0.8,4.3,1.2,6.5
		c4.2,22,7.3,44.2,9.1,66.5c1.1,16.4-0.4,33-2.9,49.5c0.8,17.7,1.6,35.3,2.1,52.8c0.4,14.6,1.1,29.2,1.7,43.7h7.7
		c-0.5-11.4-1-22.9-1.3-34.4C348.5,691.7,348.5,663,347.6,634.3z"/>
	<path class="st0" d="M337.5,621.1c-0.1-2.6-0.2-5.1-0.3-7.7C337.3,616,337.4,618.5,337.5,621.1z"/>
	<path class="st0" d="M337.2,613.4c0.2,2.6,0.3,5.1,0.3,7.7c0.1,2.2,0.2,4.3,0.2,6.5c0.3,10.2,0.7,20.4,1.2,30.6
		c2.6-16.5,4-33.2,2.9-49.5c-1.8-22.3-4.8-44.5-9.1-66.5c-0.4-2.2-0.8-4.3-1.2-6.5c0.5,5.6,0.9,11.2,1.2,16.8
		C334.8,572.8,336.3,593.1,337.2,613.4z"/>
	<path class="st0" d="M264.3,642.3c-6.6,24.4-9.9,48.8-12.4,73.2c-1.3,13.1-1.9,26.2-2.2,39.3h13.1c0.2-17.5,0.7-34.9,0.7-52.3
		C263.5,682.4,264.3,662.2,264.3,642.3z"/>
	<path class="st0" d="M264.3,641.7c0,0.2,0,0.4,0,0.6c0,0,0,0,0,0V641.7z"/>
	<path class="st0" d="M560.5,754.8h12.7c-21-108.1-22.7-150.6-22.7-150.6S552.5,689.4,560.5,754.8z"/>
	<path class="st0" d="M603,754.8h6c-0.7-18.1-3.2-38.2-9-58C600,696.8,601.6,724.8,603,754.8z"/>
	<path class="st0" d="M532.9,485.4c4.9,12.6,11.3,26.3,17.9,40.9C544.7,511.2,538.4,496.3,532.9,485.4
		C532.9,485.4,532.9,485.4,532.9,485.4z"/>
	<path class="st0" d="M538.3,420.4c-4,8.3-13.6,33.7,1.5,65c0.8,1.7,1.6,3.4,2.4,5.2c-3.4-13.1-4.7-25.8-2.4-36.4
		c9.9-46,27.8-67.7,30.3-103.9c2.5-36.2-24.4-124.7-12.6-161c11.3-35,36.9-70.5,36.9-70.5s5.1,43.1,5.3,80.6
		c1.1-5.5,2.3-11,3.5-16.6c0.5-38.8,0-70.6-1.1-87.6c0,0-55.2,77.9-53.2,123.4c1.9,45.5,15.7,82.7,10.7,140.3
		c-2.2,26.1-11.6,43.4-19.9,58.6c0-0.1,0.1-0.1,0.1-0.1C539.3,418.5,538.8,419.4,538.3,420.4z M554.5,268.7
		c32.9,83.6,0,116.7,0,116.7C572.6,323.9,554.5,268.7,554.5,268.7z"/>
	<path class="st0" d="M538.6,419.6c-0.5,1-1.1,1.9-1.6,2.9c0.4-0.7,0.8-1.5,1.2-2.2C538.4,420.1,538.5,419.9,538.6,419.6z"/>
	<path class="st0" d="M597.2,237.7c-0.1,0.6-0.2,1.2-0.3,1.8c-1.5,24.8-2.2,57.2,0,95.8c0.1-1.7,0.2-3.4,0.3-5.2
		c3.6-50.6,5.5-103.4,6.1-147.2c-0.4,1.9-1.9,10.2-3.6,24.1C599.5,218.7,598.8,229.5,597.2,237.7z"/>
	<path class="st0" d="M616,479.5c0,0-21.2-49.4-26.4-130.1c0.1,10.8,0.3,22.7,0.6,36c1,45,21.1,78.9,21.8,106.8
		c1,41.8-20.8,68.8-24.4,91.2h0c0,0-15.8-22.8-29.5-51.1c10.3,30.6,17.7,59.2,17.7,59.2s0,0,0,0c4.1,15.3,6.8,31,6.8,46.8
		c0.1,61.5,22.3-78.3,33-122.4c4.1-16.8,1.4-33.9-3.1-53.9C613.6,467.8,614.8,473.6,616,479.5z"/>
	<path class="st0" d="M583.1,189.2c9,8.2,10.6,31.7,10.6,31.7c4-35.2-11-38.4-11-38.4c-30.9,25.5-8.9,96.7-8.9,96.7
		C562.3,206,583.1,189.2,583.1,189.2z"/>
	<path class="st0" d="M571.9,422.4c0,0-40,47.9,13.4,138.7c0,0,26.4-31,18-69.4c0,0-3.9,39.5-15.7,56.7
		C587.6,548.4,539,502,571.9,422.4z"/>
	<path class="st0" d="M587.6,524.5c0,0,15.6-39.7-6.4-78.2C581.2,446.3,565.6,465.3,587.6,524.5z M584.4,504.8
		c-8.2-33.9-2.1-45-2.1-45C592.7,497.1,584.4,504.8,584.4,504.8z"/>
	<path class="st0" d="M580.2,251.1c0,0,3.5-25.4,1-40.7C581.2,210.4,575.5,229.9,580.2,251.1z"/>
	<path class="st0" d="M603.3,182.5c0,0.1-0.1,0.3-0.1,0.4c0,0,0,0,0,0C603.3,182.7,603.3,182.5,603.3,182.5z"/>
	<path class="st0" d="M596.8,239.5c0.8-12.9,1.8-23.8,2.8-32.5c0-2.5,0-5,0-7.6c-11.3,56.9-12.9,107.7-10.1,149.9
		C589,291.5,591.4,267.4,596.8,239.5z"/>
	<path class="st0" d="M612.5,462c-8.9-47.2-13.6-89.8-15.7-126.7C593.7,391.6,605.4,430.4,612.5,462z"/>
	<path class="st0" d="M596.8,239.5c-5.4,27.9-7.8,52-7.2,109.9c5.3,80.7,26.4,130.1,26.4,130.1c-1.2-5.9-2.4-11.7-3.5-17.5
		c-7.1-31.6-18.9-70.4-15.7-126.7C594.6,296.7,595.3,264.4,596.8,239.5z"/>
	<path class="st0" d="M599.7,207c1.6-13.9,3.2-22.2,3.6-24.1c0,0,0,0,0,0c-1.3,5.6-2.4,11.1-3.5,16.6
		C599.7,202,599.7,204.6,599.7,207z"/>
	<path class="st0" d="M538.6,419.6c0.4-0.7,0.7-1.3,1.1-2C539.6,417.8,539.2,418.5,538.6,419.6z"/>
	<path class="st0" d="M558.2,532.3c-4.8-14.4-10.3-29.2-15.9-41.7C545.8,504.6,551.8,519,558.2,532.3z"/>
	<path class="st0" d="M537.1,422.5c-8.5,15.1-19.4,32.2-4.1,62.9c-1.4-3.7-2.7-7.2-3.8-10.7C522.1,453.2,528.4,438.8,537.1,422.5z"
		/>
	<path class="st0" d="M575.9,591.5c-6.2-22.9-15.8-44.9-25-65.2C563.6,557.7,575.5,590.4,575.9,591.5z"/>
	<path class="st0" d="M539.8,417.5C539.8,417.5,539.8,417.5,539.8,417.5c-0.4,0.8-0.8,1.4-1.2,2.1c-0.1,0.2-0.2,0.5-0.4,0.7
		C538.8,419.4,539.3,418.5,539.8,417.5z"/>
	<path class="st0" d="M558.2,532.3c-6.4-13.3-12.3-27.8-15.9-41.7c-0.8-1.8-1.6-3.6-2.4-5.2c-15.1-31.4-5.5-56.8-1.5-65
		c-0.4,0.7-0.8,1.4-1.2,2.2c-8.7,16.2-15,30.7-8,52.2c1.1,3.5,2.4,7,3.8,10.7c0,0,0,0,0,0c5.4,10.9,11.8,25.8,17.9,40.9
		c9.2,20.4,18.8,42.4,25,65.2c0,0,0,0,0,0S568.4,562.9,558.2,532.3z"/>
	<path class="st0" d="M554.5,268.7c0,0,18.1,55.2,0,116.7C554.5,385.5,587.4,352.3,554.5,268.7z"/>
	<path class="st0" d="M620.3,422.4c8.8-64.2-12.1-116.2-12.1-116.2C620.1,366.1,620.3,422.4,620.3,422.4z"/>
	<path class="st0" d="M1056.4,295.3c0,0-6.7,3.7-6.9,17.3c0.1,2.4,0.3,5,0.5,7.6c0,0,0,0.1,0,0.1c0,0,0,0,0,0
		c2.5,26.5,12,64.3,23.4,84c2.5,4.3,4.5,8.9,6.1,13.7c10.7,23.1,12.9,49.1,12.9,49c1-2.1,5.3-4.4,5.3-4.4c-1.2,3.3-2.3,6.6-3.3,10.1
		c6.1-15.5,13-37.4,15.8-61.2c0,0.1,0,0.1,0,0.2C1110.2,411.6,1112.5,321.6,1056.4,295.3z M1094.3,453.4c-0.3,6.7-2,9.1-2,9.1
		S1093.2,459,1094.3,453.4c0.3-8.5-1.8-24.2-13.9-52.1h0c-21.4-49.7-21.8-96.2-21.8-96.2C1115.1,326.1,1100.4,423.3,1094.3,453.4z"
		/>
	<path class="st0" d="M1055.5,291.2c-2-0.1-3.5,1.4-4.4,4.1C1052,293.2,1053.4,291.7,1055.5,291.2z"/>
	<path class="st0" d="M1080.8,422c9.5,32.5,3.6,71.9,3.3,73.9C1092.4,466.2,1084.2,433.4,1080.8,422z"/>
	<path class="st0" d="M1102.6,342.6c-3.7-9.1-8.8-17.8-15.5-25.9c0.2,0.3,0.5,0.6,0.7,0.9C1087.8,317.5,1095.7,327,1102.6,342.6z"/>
	<path class="st0" d="M1049.5,312.6c-0.3-7.5,0.1-13.6,1.5-17.3c-3.7,7.9-1.1,24.1-1,25c0,0,0,0,0,0
		C1049.6,317.4,1049.5,314.9,1049.5,312.6z"/>
	<path class="st0" d="M1102.6,342.6c9.1,22.2,10.2,46.4,7.6,68.8C1116.7,384.2,1110.3,359.7,1102.6,342.6z"/>
	<path class="st0" d="M1087.1,316.7c-16.7-21-26.3-26.8-31.7-25.5c0.9,0,1.9,0.4,3.1,1.1C1070.3,299.4,1079.7,307.7,1087.1,316.7z"
		/>
	<path class="st0" d="M1050,320.2C1050,320.3,1050,320.3,1050,320.2C1050,320.3,1050.1,320.3,1050,320.2
		C1050,320.3,1050,320.3,1050,320.2z"/>
	<path class="st0" d="M1102.6,342.6c-6.9-15.6-14.8-25.1-14.8-25.1c-0.2-0.3-0.5-0.6-0.7-0.9c-7.4-9-16.8-17.2-28.6-24.4
		c-1.1-0.7-2.2-1-3.1-1.1c-2,0.5-3.5,2-4.4,4.1c-1.4,3.7-1.8,9.8-1.5,17.3c0.2-13.6,6.9-17.3,6.9-17.3
		c56.1,26.3,53.8,116.3,53.8,116.3c0-0.1,0-0.1,0-0.2C1112.9,389,1111.8,364.8,1102.6,342.6z"/>
	<path class="st0" d="M1069.8,325.9c-0.4,10.2,17.3,60.6,17.3,60.6C1085.9,333.1,1069.8,325.9,1069.8,325.9z"/>
	<path class="st0" d="M1079.4,417.7c0,0,0.6,1.5,1.4,4.2c-0.4-1.4-0.8-2.7-1.3-4C1079.5,417.9,1079.4,417.8,1079.4,417.7z"/>
	<path class="st0" d="M1084,495.9C1084,495.9,1084,495.9,1084,495.9c-10.4,36.8,0.4,60.9,0.4,60.9s-1.3-45.4,10-84.2
		C1088.8,487,1084,496,1084,495.9C1084,496,1084,496,1084,495.9z"/>
	<path class="st0" d="M1092.4,467c0,0-2.2-26-12.9-49c0.4,1.3,0.9,2.7,1.3,4c3.4,11.5,11.6,44.3,3.3,73.9c0,0.1,0,0.1,0,0.1
		s4.8-9,10.4-23.4c1-3.4,2.1-6.8,3.3-10.1C1097.7,462.6,1093.3,464.9,1092.4,467z"/>
	<path class="st0" d="M1101.7,713.7c7.2-57.9,0-151,0-151C1087.7,592.5,1101.7,713.7,1101.7,713.7z"/>
</g>
</svg>
